
<svg xmlns='http://www.w3.org/2000/svg' width='900' height='640'>
    <style>
        text { font-family: Arial, sans-serif; }
    </style>
    <rect x='0' y='0' width='900' height='640' fill='white' stroke='black' stroke-width='1'/>
    <text x='450.0' y='30.0' text-anchor='middle' font-size='18'>Predictor importance (summed weights)</text>
    <text x='450.0' y='610.0' text-anchor='middle' font-size='14'>Summed Akaike weight</text>
    <text x="210" y="85" text-anchor="end" font-size="14">CLIMATIC_lag_avg</text><rect x="220" y="70" width="640.00" height="20" fill="#4682b4" /><text x="865.0" y="85" font-size="12">0.988</text><text x="210" y="125" text-anchor="end" font-size="14">ECOLOGICAL__bin_lag_avg</text><rect x="220" y="110" width="262.75" height="20" fill="#4682b4" /><text x="487.7533660759439" y="125" font-size="12">0.406</text><text x="210" y="165" text-anchor="end" font-size="14">ECOLOGICAL_lag_avg</text><rect x="220" y="150" width="219.74" height="20" fill="#4682b4" /><text x="444.7380096298838" y="165" font-size="12">0.339</text><text x="210" y="205" text-anchor="end" font-size="14">ECONOMIC_lag_avg</text><rect x="220" y="190" width="53.34" height="20" fill="#4682b4" /><text x="278.34438210939663" y="205" font-size="12">0.082</text><text x="210" y="245" text-anchor="end" font-size="14">GEOPHYSICAL_lag_avg</text><rect x="220" y="230" width="47.99" height="20" fill="#4682b4" /><text x="272.99272588633283" y="245" font-size="12">0.074</text><text x="210" y="285" text-anchor="end" font-size="14">GEOPHYSICAL__bin_lag_avg</text><rect x="220" y="270" width="32.75" height="20" fill="#4682b4" /><text x="257.7478518321676" y="285" font-size="12">0.051</text><text x="210" y="325" text-anchor="end" font-size="14">INTERSTATE__bin_lag_avg</text><rect x="220" y="310" width="11.50" height="20" fill="#4682b4" /><text x="236.50056223504112" y="325" font-size="12">0.018</text><text x="210" y="365" text-anchor="end" font-size="14">INTRASTATE_lag_avg</text><rect x="220" y="350" width="10.23" height="20" fill="#4682b4" /><text x="235.22637898397238" y="365" font-size="12">0.016</text><text x="210" y="405" text-anchor="end" font-size="14">INTERSTATE_lag_avg</text><rect x="220" y="390" width="6.41" height="20" fill="#4682b4" /><text x="231.40857764495962" y="405" font-size="12">0.010</text><text x="210" y="445" text-anchor="end" font-size="14">TECHNOLOGICAL_lag_avg</text><rect x="220" y="430" width="5.37" height="20" fill="#4682b4" /><text x="230.36613173534187" y="445" font-size="12">0.008</text><text x="210" y="485" text-anchor="end" font-size="14">TERRORISM_lag_avg</text><rect x="220" y="470" width="2.02" height="20" fill="#4682b4" /><text x="227.01801884655399" y="485" font-size="12">0.003</text><text x="210" y="525" text-anchor="end" font-size="14">POISONING__bin_lag_avg</text><rect x="220" y="510" width="1.91" height="20" fill="#4682b4" /><text x="226.9143084593019" y="525" font-size="12">0.003</text><text x="210" y="565" text-anchor="end" font-size="14">POISONING_lag_avg</text><rect x="220" y="550" width="0.96" height="20" fill="#4682b4" /><text x="225.95628976393027" y="565" font-size="12">0.001</text>
</svg>
