
<svg xmlns='http://www.w3.org/2000/svg' width='900' height='920'>
    <style>
        text { font-family: Arial, sans-serif; }
    </style>
    <rect x='0' y='0' width='900' height='920' fill='white' stroke='black' stroke-width='1'/>
    <text x='450.0' y='30.0' text-anchor='middle' font-size='18'>Top models by AICc weight</text>
    <text x='450.0' y='890.0' text-anchor='middle' font-size='14'>Akaike weight</text>
    <text x="210" y="85" text-anchor="end" font-size="14">e68b3396bc2eed5218ce4a90d5e362ae</text><rect x="220" y="70" width="640.00" height="20" fill="#4682b4" /><text x="865.0000000000001" y="85" font-size="12">0.002</text><text x="210" y="125" text-anchor="end" font-size="14">63290b01a1248de8e97a690733ec9d40</text><rect x="220" y="110" width="277.65" height="20" fill="#4682b4" /><text x="502.64705882352945" y="125" font-size="12">0.001</text><text x="210" y="165" text-anchor="end" font-size="14">63290b01a1248de8e97a690733ec9d40</text><rect x="220" y="150" width="277.65" height="20" fill="#4682b4" /><text x="502.64705882352945" y="165" font-size="12">0.001</text><text x="210" y="205" text-anchor="end" font-size="14">05d18cf75876e92aa6464d0e727fd8ff</text><rect x="220" y="190" width="247.20" height="20" fill="#4682b4" /><text x="472.1972318339101" y="205" font-size="12">0.001</text><text x="210" y="245" text-anchor="end" font-size="14">05d18cf75876e92aa6464d0e727fd8ff</text><rect x="220" y="230" width="247.20" height="20" fill="#4682b4" /><text x="472.1972318339101" y="245" font-size="12">0.001</text><text x="210" y="285" text-anchor="end" font-size="14">05d18cf75876e92aa6464d0e727fd8ff</text><rect x="220" y="270" width="247.20" height="20" fill="#4682b4" /><text x="472.1972318339101" y="285" font-size="12">0.001</text><text x="210" y="325" text-anchor="end" font-size="14">05d18cf75876e92aa6464d0e727fd8ff</text><rect x="220" y="310" width="247.20" height="20" fill="#4682b4" /><text x="472.1972318339101" y="325" font-size="12">0.001</text><text x="210" y="365" text-anchor="end" font-size="14">05d18cf75876e92aa6464d0e727fd8ff</text><rect x="220" y="350" width="247.20" height="20" fill="#4682b4" /><text x="472.1972318339101" y="365" font-size="12">0.001</text><text x="210" y="405" text-anchor="end" font-size="14">05d18cf75876e92aa6464d0e727fd8ff</text><rect x="220" y="390" width="247.20" height="20" fill="#4682b4" /><text x="472.1972318339101" y="405" font-size="12">0.001</text><text x="210" y="445" text-anchor="end" font-size="14">05d18cf75876e92aa6464d0e727fd8ff</text><rect x="220" y="430" width="247.20" height="20" fill="#4682b4" /><text x="472.1972318339101" y="445" font-size="12">0.001</text><text x="210" y="485" text-anchor="end" font-size="14">05d18cf75876e92aa6464d0e727fd8ff</text><rect x="220" y="470" width="247.20" height="20" fill="#4682b4" /><text x="472.1972318339101" y="485" font-size="12">0.001</text><text x="210" y="525" text-anchor="end" font-size="14">05d18cf75876e92aa6464d0e727fd8ff</text><rect x="220" y="510" width="247.20" height="20" fill="#4682b4" /><text x="472.1972318339101" y="525" font-size="12">0.001</text><text x="210" y="565" text-anchor="end" font-size="14">05d18cf75876e92aa6464d0e727fd8ff</text><rect x="220" y="550" width="247.20" height="20" fill="#4682b4" /><text x="472.1972318339101" y="565" font-size="12">0.001</text><text x="210" y="605" text-anchor="end" font-size="14">05d18cf75876e92aa6464d0e727fd8ff</text><rect x="220" y="590" width="247.20" height="20" fill="#4682b4" /><text x="472.1972318339101" y="605" font-size="12">0.001</text><text x="210" y="645" text-anchor="end" font-size="14">05d18cf75876e92aa6464d0e727fd8ff</text><rect x="220" y="630" width="247.20" height="20" fill="#4682b4" /><text x="472.1972318339101" y="645" font-size="12">0.001</text><text x="210" y="685" text-anchor="end" font-size="14">05d18cf75876e92aa6464d0e727fd8ff</text><rect x="220" y="670" width="247.20" height="20" fill="#4682b4" /><text x="472.1972318339101" y="685" font-size="12">0.001</text><text x="210" y="725" text-anchor="end" font-size="14">05d18cf75876e92aa6464d0e727fd8ff</text><rect x="220" y="710" width="247.20" height="20" fill="#4682b4" /><text x="472.1972318339101" y="725" font-size="12">0.001</text><text x="210" y="765" text-anchor="end" font-size="14">05d18cf75876e92aa6464d0e727fd8ff</text><rect x="220" y="750" width="247.20" height="20" fill="#4682b4" /><text x="472.1972318339101" y="765" font-size="12">0.001</text><text x="210" y="805" text-anchor="end" font-size="14">05d18cf75876e92aa6464d0e727fd8ff</text><rect x="220" y="790" width="247.20" height="20" fill="#4682b4" /><text x="472.1972318339101" y="805" font-size="12">0.001</text><text x="210" y="845" text-anchor="end" font-size="14">3c80a3e4a5f33fad739468c2f5010970</text><rect x="220" y="830" width="241.94" height="20" fill="#4682b4" /><text x="466.9377162629758" y="845" font-size="12">0.001</text>
</svg>
