
<svg xmlns='http://www.w3.org/2000/svg' width='1000' height='660'>
    <style>
        text { font-family: Arial, sans-serif; }
    </style>
    <rect x='0' y='0' width='1000' height='660' fill='white' stroke='black' stroke-width='1'/>
    <line x1='600.00' y1='50' x2='600.00' y2='610' stroke='#666' stroke-width='1' stroke-dasharray='4 4' />
    <text x='500.0' y='30.0' text-anchor='middle' font-size='18'>Model-averaged fixed effects</text>
    <text x='500.0' y='630.0' text-anchor='middle' font-size='14'>Coefficient value</text>
    <text x="245" y="85" text-anchor="end" font-size="14">ECOLOGICAL_lag_avg</text><line x1="925.53" y1="80" x2="940.00" y2="80" stroke="#000" stroke-width="2" /><line x1="925.53" y1="74" x2="925.53" y2="86" stroke="#000" stroke-width="2" /><line x1="940.00" y1="74" x2="940.00" y2="86" stroke="#000" stroke-width="2" /><circle cx="932.77" cy="80" r="6" fill="#8b0000" /><text x="942.77" y="72" font-size="12">1.360 +/- 0.030</text><text x="245" y="125" text-anchor="end" font-size="14">ECOLOGICAL__bin_lag_avg</text><line x1="907.86" y1="120" x2="923.57" y2="120" stroke="#000" stroke-width="2" /><line x1="907.86" y1="114" x2="907.86" y2="126" stroke="#000" stroke-width="2" /><line x1="923.57" y1="114" x2="923.57" y2="126" stroke="#000" stroke-width="2" /><circle cx="915.72" cy="120" r="6" fill="#8b0000" /><text x="925.72" y="112" font-size="12">1.290 +/- 0.032</text><text x="245" y="165" text-anchor="end" font-size="14">GEOPHYSICAL_lag_avg</text><line x1="625.07" y1="160" x2="672.35" y2="160" stroke="#000" stroke-width="2" /><line x1="625.07" y1="154" x2="625.07" y2="166" stroke="#000" stroke-width="2" /><line x1="672.35" y1="154" x2="672.35" y2="166" stroke="#000" stroke-width="2" /><circle cx="648.71" cy="160" r="6" fill="#8b0000" /><text x="658.71" y="152" font-size="12">0.199 +/- 0.097</text><text x="245" y="205" text-anchor="end" font-size="14">CLIMATIC_lag_avg</text><line x1="630.13" y1="200" x2="633.35" y2="200" stroke="#000" stroke-width="2" /><line x1="630.13" y1="194" x2="630.13" y2="206" stroke="#000" stroke-width="2" /><line x1="633.35" y1="194" x2="633.35" y2="206" stroke="#000" stroke-width="2" /><circle cx="631.74" cy="200" r="6" fill="#8b0000" /><text x="641.74" y="192" font-size="12">0.130 +/- 0.007</text><text x="245" y="245" text-anchor="end" font-size="14">TECHNOLOGICAL_lag_avg</text><line x1="612.53" y1="240" x2="622.37" y2="240" stroke="#000" stroke-width="2" /><line x1="612.53" y1="234" x2="612.53" y2="246" stroke="#000" stroke-width="2" /><line x1="622.37" y1="234" x2="622.37" y2="246" stroke="#000" stroke-width="2" /><circle cx="617.45" cy="240" r="6" fill="#8b0000" /><text x="627.45" y="232" font-size="12">0.071 +/- 0.020</text><text x="245" y="285" text-anchor="end" font-size="14">POISONING_lag_avg</text><line x1="427.63" y1="280" x2="801.64" y2="280" stroke="#000" stroke-width="2" /><line x1="427.63" y1="274" x2="427.63" y2="286" stroke="#000" stroke-width="2" /><line x1="801.64" y1="274" x2="801.64" y2="286" stroke="#000" stroke-width="2" /><circle cx="614.64" cy="280" r="6" fill="#8b0000" /><text x="624.64" y="272" font-size="12">0.060 +/- 0.764</text><text x="245" y="325" text-anchor="end" font-size="14">INTERSTATE__bin_lag_avg</text><line x1="576.77" y1="320" x2="646.12" y2="320" stroke="#000" stroke-width="2" /><line x1="576.77" y1="314" x2="576.77" y2="326" stroke="#000" stroke-width="2" /><line x1="646.12" y1="314" x2="646.12" y2="326" stroke="#000" stroke-width="2" /><circle cx="611.45" cy="320" r="6" fill="#8b0000" /><text x="621.45" y="312" font-size="12">0.047 +/- 0.142</text><text x="245" y="365" text-anchor="end" font-size="14">INTERSTATE_lag_avg</text><line x1="561.14" y1="360" x2="652.33" y2="360" stroke="#000" stroke-width="2" /><line x1="561.14" y1="354" x2="561.14" y2="366" stroke="#000" stroke-width="2" /><line x1="652.33" y1="354" x2="652.33" y2="366" stroke="#000" stroke-width="2" /><circle cx="606.73" cy="360" r="6" fill="#8b0000" /><text x="616.73" y="352" font-size="12">0.028 +/- 0.186</text><text x="245" y="405" text-anchor="end" font-size="14">TERRORISM_lag_avg</text><line x1="599.55" y1="400" x2="599.60" y2="400" stroke="#000" stroke-width="2" /><line x1="599.55" y1="394" x2="599.55" y2="406" stroke="#000" stroke-width="2" /><line x1="599.60" y1="394" x2="599.60" y2="406" stroke="#000" stroke-width="2" /><circle cx="599.57" cy="400" r="6" fill="#8b0000" /><text x="609.57" y="392" font-size="12">-0.002 +/- 0.000</text><text x="245" y="445" text-anchor="end" font-size="14">ECONOMIC_lag_avg</text><line x1="578.01" y1="440" x2="580.57" y2="440" stroke="#000" stroke-width="2" /><line x1="578.01" y1="434" x2="578.01" y2="446" stroke="#000" stroke-width="2" /><line x1="580.57" y1="434" x2="580.57" y2="446" stroke="#000" stroke-width="2" /><circle cx="579.29" cy="440" r="6" fill="#8b0000" /><text x="589.29" y="432" font-size="12">-0.085 +/- 0.005</text><text x="245" y="485" text-anchor="end" font-size="14">GEOPHYSICAL__bin_lag_avg</text><line x1="535.17" y1="480" x2="618.08" y2="480" stroke="#000" stroke-width="2" /><line x1="535.17" y1="474" x2="535.17" y2="486" stroke="#000" stroke-width="2" /><line x1="618.08" y1="474" x2="618.08" y2="486" stroke="#000" stroke-width="2" /><circle cx="576.62" cy="480" r="6" fill="#8b0000" /><text x="586.62" y="472" font-size="12">-0.096 +/- 0.169</text><text x="245" y="525" text-anchor="end" font-size="14">INTRASTATE_lag_avg</text><line x1="549.69" y1="520" x2="561.43" y2="520" stroke="#000" stroke-width="2" /><line x1="549.69" y1="514" x2="549.69" y2="526" stroke="#000" stroke-width="2" /><line x1="561.43" y1="514" x2="561.43" y2="526" stroke="#000" stroke-width="2" /><circle cx="555.56" cy="520" r="6" fill="#8b0000" /><text x="565.56" y="512" font-size="12">-0.182 +/- 0.024</text><text x="245" y="565" text-anchor="end" font-size="14">POISONING__bin_lag_avg</text><line x1="268.45" y1="560" x2="553.63" y2="560" stroke="#000" stroke-width="2" /><line x1="268.45" y1="554" x2="268.45" y2="566" stroke="#000" stroke-width="2" /><line x1="553.63" y1="554" x2="553.63" y2="566" stroke="#000" stroke-width="2" /><circle cx="411.04" cy="560" r="6" fill="#8b0000" /><text x="421.04" y="552" font-size="12">-0.772 +/- 0.583</text>
</svg>
