
<svg xmlns='http://www.w3.org/2000/svg' width='1000' height='500'>
    <style>
        text { font-family: Arial, sans-serif; }
    </style>
    <rect x='0' y='0' width='1000' height='500' fill='white' stroke='black' stroke-width='1'/>
    <line x1='600.00' y1='50' x2='600.00' y2='450' stroke='#666' stroke-width='1' stroke-dasharray='4 4' />
    <text x='500.0' y='30.0' text-anchor='middle' font-size='18'>Model-averaged fixed effects</text>
    <text x='500.0' y='470.0' text-anchor='middle' font-size='14'>Coefficient value</text>
    <text x="245" y="85" text-anchor="end" font-size="14">ECOLOGICAL__bin_lag_avg</text><line x1="915.71" y1="80" x2="931.82" y2="80" stroke="#000" stroke-width="2" /><line x1="915.71" y1="74" x2="915.71" y2="86" stroke="#000" stroke-width="2" /><line x1="931.82" y1="74" x2="931.82" y2="86" stroke="#000" stroke-width="2" /><circle cx="923.77" cy="80" r="6" fill="#8b0000" /><text x="933.77" y="72" font-size="12">1.290 +/- 0.032</text><text x="245" y="125" text-anchor="end" font-size="14">GEOPHYSICAL_lag_avg</text><line x1="625.71" y1="120" x2="674.20" y2="120" stroke="#000" stroke-width="2" /><line x1="625.71" y1="114" x2="625.71" y2="126" stroke="#000" stroke-width="2" /><line x1="674.20" y1="114" x2="674.20" y2="126" stroke="#000" stroke-width="2" /><circle cx="649.95" cy="120" r="6" fill="#8b0000" /><text x="659.95" y="112" font-size="12">0.199 +/- 0.097</text><text x="245" y="165" text-anchor="end" font-size="14">CLIMATIC_lag_avg</text><line x1="630.90" y1="160" x2="634.20" y2="160" stroke="#000" stroke-width="2" /><line x1="630.90" y1="154" x2="630.90" y2="166" stroke="#000" stroke-width="2" /><line x1="634.20" y1="154" x2="634.20" y2="166" stroke="#000" stroke-width="2" /><circle cx="632.55" cy="160" r="6" fill="#8b0000" /><text x="642.55" y="152" font-size="12">0.130 +/- 0.007</text><text x="245" y="205" text-anchor="end" font-size="14">TECHNOLOGICAL_lag_avg</text><line x1="612.85" y1="200" x2="622.94" y2="200" stroke="#000" stroke-width="2" /><line x1="612.85" y1="194" x2="612.85" y2="206" stroke="#000" stroke-width="2" /><line x1="622.94" y1="194" x2="622.94" y2="206" stroke="#000" stroke-width="2" /><circle cx="617.89" cy="200" r="6" fill="#8b0000" /><text x="627.89" y="192" font-size="12">0.071 +/- 0.020</text><text x="245" y="245" text-anchor="end" font-size="14">INTERSTATE__bin_lag_avg</text><line x1="576.18" y1="240" x2="647.30" y2="240" stroke="#000" stroke-width="2" /><line x1="576.18" y1="234" x2="576.18" y2="246" stroke="#000" stroke-width="2" /><line x1="647.30" y1="234" x2="647.30" y2="246" stroke="#000" stroke-width="2" /><circle cx="611.74" cy="240" r="6" fill="#8b0000" /><text x="621.74" y="232" font-size="12">0.047 +/- 0.142</text><text x="245" y="285" text-anchor="end" font-size="14">TERRORISM_lag_avg</text><line x1="599.54" y1="280" x2="599.59" y2="280" stroke="#000" stroke-width="2" /><line x1="599.54" y1="274" x2="599.54" y2="286" stroke="#000" stroke-width="2" /><line x1="599.59" y1="274" x2="599.59" y2="286" stroke="#000" stroke-width="2" /><circle cx="599.56" cy="280" r="6" fill="#8b0000" /><text x="609.56" y="272" font-size="12">-0.002 +/- 0.000</text><text x="245" y="325" text-anchor="end" font-size="14">ECONOMIC_lag_avg</text><line x1="577.45" y1="320" x2="580.07" y2="320" stroke="#000" stroke-width="2" /><line x1="577.45" y1="314" x2="577.45" y2="326" stroke="#000" stroke-width="2" /><line x1="580.07" y1="314" x2="580.07" y2="326" stroke="#000" stroke-width="2" /><circle cx="578.76" cy="320" r="6" fill="#8b0000" /><text x="588.76" y="312" font-size="12">-0.085 +/- 0.005</text><text x="245" y="365" text-anchor="end" font-size="14">INTRASTATE_lag_avg</text><line x1="548.40" y1="360" x2="560.45" y2="360" stroke="#000" stroke-width="2" /><line x1="548.40" y1="354" x2="548.40" y2="366" stroke="#000" stroke-width="2" /><line x1="560.45" y1="354" x2="560.45" y2="366" stroke="#000" stroke-width="2" /><circle cx="554.43" cy="360" r="6" fill="#8b0000" /><text x="564.43" y="352" font-size="12">-0.182 +/- 0.024</text><text x="245" y="405" text-anchor="end" font-size="14">POISONING__bin_lag_avg</text><line x1="260.00" y1="400" x2="552.44" y2="400" stroke="#000" stroke-width="2" /><line x1="260.00" y1="394" x2="260.00" y2="406" stroke="#000" stroke-width="2" /><line x1="552.44" y1="394" x2="552.44" y2="406" stroke="#000" stroke-width="2" /><circle cx="406.22" cy="400" r="6" fill="#8b0000" /><text x="416.22" y="392" font-size="12">-0.772 +/- 0.583</text>
</svg>
