
<svg xmlns='http://www.w3.org/2000/svg' width='900' height='640'>
    <style>
        text { font-family: Arial, sans-serif; }
    </style>
    <rect x='0' y='0' width='900' height='640' fill='white' stroke='black' stroke-width='1'/>
    <text x='450.0' y='30.0' text-anchor='middle' font-size='18'>Predictor importance (summed weights)</text>
    <text x='450.0' y='610.0' text-anchor='middle' font-size='14'>Summed Akaike weight</text>
    <text x="210" y="85" text-anchor="end" font-size="14">CLIMATIC_lead_avg</text><rect x="220" y="70" width="640.00" height="20" fill="#4682b4" /><text x="865.0" y="85" font-size="12">1.000</text><text x="210" y="125" text-anchor="end" font-size="14">GEOPHYSICAL__bin_lead_avg</text><rect x="220" y="110" width="149.22" height="20" fill="#4682b4" /><text x="374.22434400028203" y="125" font-size="12">0.233</text><text x="210" y="165" text-anchor="end" font-size="14">GEOPHYSICAL_lead_avg</text><rect x="220" y="150" width="137.22" height="20" fill="#4682b4" /><text x="362.2171179929737" y="165" font-size="12">0.214</text><text x="210" y="205" text-anchor="end" font-size="14">ECOLOGICAL__bin_lead_avg</text><rect x="220" y="190" width="132.13" height="20" fill="#4682b4" /><text x="357.12793736040345" y="205" font-size="12">0.206</text><text x="210" y="245" text-anchor="end" font-size="14">ECOLOGICAL_lead_avg</text><rect x="220" y="230" width="91.00" height="20" fill="#4682b4" /><text x="316.00375863132496" y="245" font-size="12">0.142</text><text x="210" y="285" text-anchor="end" font-size="14">ECONOMIC_lead_avg</text><rect x="220" y="270" width="60.15" height="20" fill="#4682b4" /><text x="285.14915403551447" y="285" font-size="12">0.094</text><text x="210" y="325" text-anchor="end" font-size="14">INTRASTATE_lead_avg</text><rect x="220" y="310" width="37.84" height="20" fill="#4682b4" /><text x="262.8437968385863" y="325" font-size="12">0.059</text><text x="210" y="365" text-anchor="end" font-size="14">INTERSTATE__bin_lead_avg</text><rect x="220" y="350" width="18.12" height="20" fill="#4682b4" /><text x="243.11685122887584" y="365" font-size="12">0.028</text><text x="210" y="405" text-anchor="end" font-size="14">INTERSTATE_lead_avg</text><rect x="220" y="390" width="9.85" height="20" fill="#4682b4" /><text x="234.85307493898281" y="405" font-size="12">0.015</text><text x="210" y="445" text-anchor="end" font-size="14">POISONING__bin_lead_avg</text><rect x="220" y="430" width="2.03" height="20" fill="#4682b4" /><text x="227.03058509571568" y="445" font-size="12">0.003</text><text x="210" y="485" text-anchor="end" font-size="14">POISONING_lead_avg</text><rect x="220" y="470" width="1.00" height="20" fill="#4682b4" /><text x="226.0002687497793" y="485" font-size="12">0.002</text><text x="210" y="525" text-anchor="end" font-size="14">TECHNOLOGICAL_lead_avg</text><rect x="220" y="510" width="0.55" height="20" fill="#4682b4" /><text x="225.5529758226952" y="525" font-size="12">0.001</text><text x="210" y="565" text-anchor="end" font-size="14">TERRORISM_lead_avg</text><rect x="220" y="550" width="0.25" height="20" fill="#4682b4" /><text x="225.24861724483705" y="565" font-size="12">0.000</text>
</svg>
