
<svg xmlns='http://www.w3.org/2000/svg' width='1000' height='500'>
    <style>
        text { font-family: Arial, sans-serif; }
    </style>
    <rect x='0' y='0' width='1000' height='500' fill='white' stroke='black' stroke-width='1'/>
    <line x1='600.00' y1='50' x2='600.00' y2='450' stroke='#666' stroke-width='1' stroke-dasharray='4 4' />
    <text x='500.0' y='30.0' text-anchor='middle' font-size='18'>Model-averaged fixed effects</text>
    <text x='500.0' y='470.0' text-anchor='middle' font-size='14'>Coefficient value</text>
    <text x="245" y="85" text-anchor="end" font-size="14">INTERSTATE__bin_lead_avg</text><line x1="939.16" y1="80" x2="940.00" y2="80" stroke="#000" stroke-width="2" /><line x1="939.16" y1="74" x2="939.16" y2="86" stroke="#000" stroke-width="2" /><line x1="940.00" y1="74" x2="940.00" y2="86" stroke="#000" stroke-width="2" /><circle cx="939.58" cy="80" r="6" fill="#8b0000" /><text x="949.58" y="72" font-size="12">2.105 +/- 0.003</text><text x="245" y="125" text-anchor="end" font-size="14">INTRASTATE_lead_avg</text><line x1="715.02" y1="120" x2="715.85" y2="120" stroke="#000" stroke-width="2" /><line x1="715.02" y1="114" x2="715.02" y2="126" stroke="#000" stroke-width="2" /><line x1="715.85" y1="114" x2="715.85" y2="126" stroke="#000" stroke-width="2" /><circle cx="715.44" cy="120" r="6" fill="#8b0000" /><text x="725.44" y="112" font-size="12">0.716 +/- 0.003</text><text x="245" y="165" text-anchor="end" font-size="14">POISONING__bin_lead_avg</text><line x1="705.58" y1="160" x2="715.22" y2="160" stroke="#000" stroke-width="2" /><line x1="705.58" y1="154" x2="705.58" y2="166" stroke="#000" stroke-width="2" /><line x1="715.22" y1="154" x2="715.22" y2="166" stroke="#000" stroke-width="2" /><circle cx="710.40" cy="160" r="6" fill="#8b0000" /><text x="720.40" y="152" font-size="12">0.684 +/- 0.030</text><text x="245" y="205" text-anchor="end" font-size="14">CLIMATIC_lead_avg</text><line x1="661.28" y1="200" x2="669.98" y2="200" stroke="#000" stroke-width="2" /><line x1="661.28" y1="194" x2="661.28" y2="206" stroke="#000" stroke-width="2" /><line x1="669.98" y1="194" x2="669.98" y2="206" stroke="#000" stroke-width="2" /><circle cx="665.63" cy="200" r="6" fill="#8b0000" /><text x="675.63" y="192" font-size="12">0.407 +/- 0.027</text><text x="245" y="245" text-anchor="end" font-size="14">TERRORISM_lead_avg</text><line x1="600.21" y1="240" x2="600.28" y2="240" stroke="#000" stroke-width="2" /><line x1="600.21" y1="234" x2="600.21" y2="246" stroke="#000" stroke-width="2" /><line x1="600.28" y1="234" x2="600.28" y2="246" stroke="#000" stroke-width="2" /><circle cx="600.24" cy="240" r="6" fill="#8b0000" /><text x="610.24" y="232" font-size="12">0.002 +/- 0.000</text><text x="245" y="285" text-anchor="end" font-size="14">TECHNOLOGICAL_lead_avg</text><line x1="591.67" y1="280" x2="593.47" y2="280" stroke="#000" stroke-width="2" /><line x1="591.67" y1="274" x2="591.67" y2="286" stroke="#000" stroke-width="2" /><line x1="593.47" y1="274" x2="593.47" y2="286" stroke="#000" stroke-width="2" /><circle cx="592.57" cy="280" r="6" fill="#8b0000" /><text x="602.57" y="272" font-size="12">-0.046 +/- 0.006</text><text x="245" y="325" text-anchor="end" font-size="14">ECONOMIC_lead_avg</text><line x1="591.27" y1="320" x2="591.31" y2="320" stroke="#000" stroke-width="2" /><line x1="591.27" y1="314" x2="591.27" y2="326" stroke="#000" stroke-width="2" /><line x1="591.31" y1="314" x2="591.31" y2="326" stroke="#000" stroke-width="2" /><circle cx="591.29" cy="320" r="6" fill="#8b0000" /><text x="601.29" y="312" font-size="12">-0.054 +/- 0.000</text><text x="245" y="365" text-anchor="end" font-size="14">ECOLOGICAL__bin_lead_avg</text><line x1="514.93" y1="360" x2="522.92" y2="360" stroke="#000" stroke-width="2" /><line x1="514.93" y1="354" x2="514.93" y2="366" stroke="#000" stroke-width="2" /><line x1="522.92" y1="354" x2="522.92" y2="366" stroke="#000" stroke-width="2" /><circle cx="518.92" cy="360" r="6" fill="#8b0000" /><text x="528.92" y="352" font-size="12">-0.503 +/- 0.025</text><text x="245" y="405" text-anchor="end" font-size="14">GEOPHYSICAL_lead_avg</text><line x1="408.84" y1="400" x2="409.13" y2="400" stroke="#000" stroke-width="2" /><line x1="408.84" y1="394" x2="408.84" y2="406" stroke="#000" stroke-width="2" /><line x1="409.13" y1="394" x2="409.13" y2="406" stroke="#000" stroke-width="2" /><circle cx="408.99" cy="400" r="6" fill="#8b0000" /><text x="418.99" y="392" font-size="12">-1.184 +/- 0.001</text>
</svg>
