
<svg xmlns='http://www.w3.org/2000/svg' width='900' height='640'>
    <style>
        text { font-family: Arial, sans-serif; }
    </style>
    <rect x='0' y='0' width='900' height='640' fill='white' stroke='black' stroke-width='1'/>
    <text x='450.0' y='30.0' text-anchor='middle' font-size='18'>Predictor importance (summed weights)</text>
    <text x='450.0' y='610.0' text-anchor='middle' font-size='14'>Summed Akaike weight</text>
    <text x="210" y="85" text-anchor="end" font-size="14">ECONOMIC_lag_avg</text><rect x="220" y="70" width="640.00" height="20" fill="#4682b4" /><text x="865.0" y="85" font-size="12">0.423</text><text x="210" y="125" text-anchor="end" font-size="14">ECOLOGICAL_lag_avg</text><rect x="220" y="110" width="585.05" height="20" fill="#4682b4" /><text x="810.0496666151404" y="125" font-size="12">0.386</text><text x="210" y="165" text-anchor="end" font-size="14">ECOLOGICAL__bin_lag_avg</text><rect x="220" y="150" width="549.17" height="20" fill="#4682b4" /><text x="774.168730874702" y="165" font-size="12">0.363</text><text x="210" y="205" text-anchor="end" font-size="14">CLIMATIC_lag_avg</text><rect x="220" y="190" width="497.20" height="20" fill="#4682b4" /><text x="722.203990768852" y="205" font-size="12">0.328</text><text x="210" y="245" text-anchor="end" font-size="14">GEOPHYSICAL__bin_lag_avg</text><rect x="220" y="230" width="163.40" height="20" fill="#4682b4" /><text x="388.39681188010076" y="245" font-size="12">0.108</text><text x="210" y="285" text-anchor="end" font-size="14">INTERSTATE__bin_lag_avg</text><rect x="220" y="270" width="130.64" height="20" fill="#4682b4" /><text x="355.6391999503223" y="285" font-size="12">0.086</text><text x="210" y="325" text-anchor="end" font-size="14">GEOPHYSICAL_lag_avg</text><rect x="220" y="310" width="111.66" height="20" fill="#4682b4" /><text x="336.66340183439064" y="325" font-size="12">0.074</text><text x="210" y="365" text-anchor="end" font-size="14">TECHNOLOGICAL_lag_avg</text><rect x="220" y="350" width="110.81" height="20" fill="#4682b4" /><text x="335.81025261345724" y="365" font-size="12">0.073</text><text x="210" y="405" text-anchor="end" font-size="14">INTERSTATE_lag_avg</text><rect x="220" y="390" width="84.99" height="20" fill="#4682b4" /><text x="309.98965052496925" y="405" font-size="12">0.056</text><text x="210" y="445" text-anchor="end" font-size="14">INTRASTATE_lag_avg</text><rect x="220" y="430" width="73.90" height="20" fill="#4682b4" /><text x="298.89803601994083" y="445" font-size="12">0.049</text><text x="210" y="485" text-anchor="end" font-size="14">POISONING__bin_lag_avg</text><rect x="220" y="470" width="40.43" height="20" fill="#4682b4" /><text x="265.4334703386634" y="485" font-size="12">0.027</text><text x="210" y="525" text-anchor="end" font-size="14">POISONING_lag_avg</text><rect x="220" y="510" width="26.35" height="20" fill="#4682b4" /><text x="251.35157097395435" y="525" font-size="12">0.017</text><text x="210" y="565" text-anchor="end" font-size="14">TERRORISM_lag_avg</text><rect x="220" y="550" width="5.22" height="20" fill="#4682b4" /><text x="230.2206365445269" y="565" font-size="12">0.003</text>
</svg>
