
<svg xmlns='http://www.w3.org/2000/svg' width='900' height='920'>
    <style>
        text { font-family: Arial, sans-serif; }
    </style>
    <rect x='0' y='0' width='900' height='920' fill='white' stroke='black' stroke-width='1'/>
    <text x='450.0' y='30.0' text-anchor='middle' font-size='18'>Top models by AICc weight</text>
    <text x='450.0' y='890.0' text-anchor='middle' font-size='14'>Akaike weight</text>
    <text x="210" y="85" text-anchor="end" font-size="14">575c97858cb7dbc1d0d9fcb9c2d8da7a</text><rect x="220" y="70" width="640.00" height="20" fill="#4682b4" /><text x="865.0" y="85" font-size="12">0.011</text><text x="210" y="125" text-anchor="end" font-size="14">575c97858cb7dbc1d0d9fcb9c2d8da7a</text><rect x="220" y="110" width="640.00" height="20" fill="#4682b4" /><text x="865.0" y="125" font-size="12">0.011</text><text x="210" y="165" text-anchor="end" font-size="14">e61cfdcccafe2176e7ac19003139598b</text><rect x="220" y="150" width="227.69" height="20" fill="#4682b4" /><text x="452.6894673682267" y="165" font-size="12">0.004</text><text x="210" y="205" text-anchor="end" font-size="14">e61cfdcccafe2176e7ac19003139598b</text><rect x="220" y="190" width="227.69" height="20" fill="#4682b4" /><text x="452.6894673682267" y="205" font-size="12">0.004</text><text x="210" y="245" text-anchor="end" font-size="14">f8c1980fa2fe6e622527dabd8b19c3da</text><rect x="220" y="230" width="210.44" height="20" fill="#4682b4" /><text x="435.4384750300009" y="245" font-size="12">0.004</text><text x="210" y="285" text-anchor="end" font-size="14">0882a094bea570392812eb1db1140215</text><rect x="220" y="270" width="184.68" height="20" fill="#4682b4" /><text x="409.6801440044309" y="285" font-size="12">0.003</text><text x="210" y="325" text-anchor="end" font-size="14">0b7e3a6e87c7e2c430d9e42442f34db5</text><rect x="220" y="310" width="184.68" height="20" fill="#4682b4" /><text x="409.6801440044309" y="325" font-size="12">0.003</text><text x="210" y="365" text-anchor="end" font-size="14">0882a094bea570392812eb1db1140215</text><rect x="220" y="350" width="184.68" height="20" fill="#4682b4" /><text x="409.6801440044309" y="365" font-size="12">0.003</text><text x="210" y="405" text-anchor="end" font-size="14">0b7e3a6e87c7e2c430d9e42442f34db5</text><rect x="220" y="390" width="184.68" height="20" fill="#4682b4" /><text x="409.6801440044309" y="405" font-size="12">0.003</text><text x="210" y="445" text-anchor="end" font-size="14">d46906010fffd5b4085133dba40767f6</text><rect x="220" y="430" width="149.53" height="20" fill="#4682b4" /><text x="374.5282931782516" y="445" font-size="12">0.003</text><text x="210" y="485" text-anchor="end" font-size="14">d46906010fffd5b4085133dba40767f6</text><rect x="220" y="470" width="149.53" height="20" fill="#4682b4" /><text x="374.5282931782516" y="485" font-size="12">0.003</text><text x="210" y="525" text-anchor="end" font-size="14">ffd8f18a25492e232f18a33e301ff100</text><rect x="220" y="510" width="126.96" height="20" fill="#4682b4" /><text x="351.96021416043567" y="525" font-size="12">0.002</text><text x="210" y="565" text-anchor="end" font-size="14">ca9f1efcd2fb7a850f703cbb955ad9ad</text><rect x="220" y="550" width="126.96" height="20" fill="#4682b4" /><text x="351.96021416043567" y="565" font-size="12">0.002</text><text x="210" y="605" text-anchor="end" font-size="14">ffd8f18a25492e232f18a33e301ff100</text><rect x="220" y="590" width="126.96" height="20" fill="#4682b4" /><text x="351.96021416043567" y="605" font-size="12">0.002</text><text x="210" y="645" text-anchor="end" font-size="14">ca9f1efcd2fb7a850f703cbb955ad9ad</text><rect x="220" y="630" width="126.96" height="20" fill="#4682b4" /><text x="351.96021416043567" y="645" font-size="12">0.002</text><text x="210" y="685" text-anchor="end" font-size="14">6132c493408272e6fc692fa320d4f15a</text><rect x="220" y="670" width="120.23" height="20" fill="#4682b4" /><text x="345.2252376996215" y="685" font-size="12">0.002</text><text x="210" y="725" text-anchor="end" font-size="14">6132c493408272e6fc692fa320d4f15a</text><rect x="220" y="710" width="120.23" height="20" fill="#4682b4" /><text x="345.2252376996215" y="725" font-size="12">0.002</text><text x="210" y="765" text-anchor="end" font-size="14">f7cb50315a803be268627af248e8c413</text><rect x="220" y="750" width="100.49" height="20" fill="#4682b4" /><text x="325.49293824425365" y="765" font-size="12">0.002</text><text x="210" y="805" text-anchor="end" font-size="14">a510e48bfb90c23abf855789869c61ae</text><rect x="220" y="790" width="84.90" height="20" fill="#4682b4" /><text x="309.89615065078925" y="805" font-size="12">0.001</text><text x="210" y="845" text-anchor="end" font-size="14">a510e48bfb90c23abf855789869c61ae</text><rect x="220" y="830" width="84.90" height="20" fill="#4682b4" /><text x="309.89615065078925" y="845" font-size="12">0.001</text>
</svg>
