
<svg xmlns='http://www.w3.org/2000/svg' width='1000' height='660'>
    <style>
        text { font-family: Arial, sans-serif; }
    </style>
    <rect x='0' y='0' width='1000' height='660' fill='white' stroke='black' stroke-width='1'/>
    <line x1='600.00' y1='50' x2='600.00' y2='610' stroke='#666' stroke-width='1' stroke-dasharray='4 4' />
    <text x='500.0' y='30.0' text-anchor='middle' font-size='18'>Model-averaged fixed effects</text>
    <text x='500.0' y='630.0' text-anchor='middle' font-size='14'>Coefficient value</text>
    <text x="245" y="85" text-anchor="end" font-size="14">POISONING_lag_avg</text><line x1="778.69" y1="80" x2="805.23" y2="80" stroke="#000" stroke-width="2" /><line x1="778.69" y1="74" x2="778.69" y2="86" stroke="#000" stroke-width="2" /><line x1="805.23" y1="74" x2="805.23" y2="86" stroke="#000" stroke-width="2" /><circle cx="791.96" cy="80" r="6" fill="#8b0000" /><text x="801.96" y="72" font-size="12">3.842 +/- 0.266</text><text x="245" y="125" text-anchor="end" font-size="14">POISONING__bin_lag_avg</text><line x1="777.35" y1="120" x2="806.53" y2="120" stroke="#000" stroke-width="2" /><line x1="777.35" y1="114" x2="777.35" y2="126" stroke="#000" stroke-width="2" /><line x1="806.53" y1="114" x2="806.53" y2="126" stroke="#000" stroke-width="2" /><circle cx="791.94" cy="120" r="6" fill="#8b0000" /><text x="801.94" y="112" font-size="12">3.841 +/- 0.292</text><text x="245" y="165" text-anchor="end" font-size="14">ECOLOGICAL_lag_avg</text><line x1="593.35" y1="160" x2="940.00" y2="160" stroke="#000" stroke-width="2" /><line x1="593.35" y1="154" x2="593.35" y2="166" stroke="#000" stroke-width="2" /><line x1="940.00" y1="154" x2="940.00" y2="166" stroke="#000" stroke-width="2" /><circle cx="766.68" cy="160" r="6" fill="#8b0000" /><text x="776.68" y="152" font-size="12">3.336 +/- 3.469</text><text x="245" y="205" text-anchor="end" font-size="14">ECONOMIC_lag_avg</text><line x1="612.46" y1="200" x2="614.90" y2="200" stroke="#000" stroke-width="2" /><line x1="612.46" y1="194" x2="612.46" y2="206" stroke="#000" stroke-width="2" /><line x1="614.90" y1="194" x2="614.90" y2="206" stroke="#000" stroke-width="2" /><circle cx="613.68" cy="200" r="6" fill="#8b0000" /><text x="623.68" y="192" font-size="12">0.274 +/- 0.024</text><text x="245" y="245" text-anchor="end" font-size="14">INTRASTATE_lag_avg</text><line x1="612.89" y1="240" x2="613.73" y2="240" stroke="#000" stroke-width="2" /><line x1="612.89" y1="234" x2="612.89" y2="246" stroke="#000" stroke-width="2" /><line x1="613.73" y1="234" x2="613.73" y2="246" stroke="#000" stroke-width="2" /><circle cx="613.31" cy="240" r="6" fill="#8b0000" /><text x="623.31" y="232" font-size="12">0.266 +/- 0.008</text><text x="245" y="285" text-anchor="end" font-size="14">CLIMATIC_lag_avg</text><line x1="604.68" y1="280" x2="606.24" y2="280" stroke="#000" stroke-width="2" /><line x1="604.68" y1="274" x2="604.68" y2="286" stroke="#000" stroke-width="2" /><line x1="606.24" y1="274" x2="606.24" y2="286" stroke="#000" stroke-width="2" /><circle cx="605.46" cy="280" r="6" fill="#8b0000" /><text x="615.46" y="272" font-size="12">0.109 +/- 0.016</text><text x="245" y="325" text-anchor="end" font-size="14">TECHNOLOGICAL_lag_avg</text><line x1="604.04" y1="320" x2="604.44" y2="320" stroke="#000" stroke-width="2" /><line x1="604.04" y1="314" x2="604.04" y2="326" stroke="#000" stroke-width="2" /><line x1="604.44" y1="314" x2="604.44" y2="326" stroke="#000" stroke-width="2" /><circle cx="604.24" cy="320" r="6" fill="#8b0000" /><text x="614.24" y="312" font-size="12">0.085 +/- 0.004</text><text x="245" y="365" text-anchor="end" font-size="14">TERRORISM_lag_avg</text><line x1="599.88" y1="360" x2="599.91" y2="360" stroke="#000" stroke-width="2" /><line x1="599.88" y1="354" x2="599.88" y2="366" stroke="#000" stroke-width="2" /><line x1="599.91" y1="354" x2="599.91" y2="366" stroke="#000" stroke-width="2" /><circle cx="599.90" cy="360" r="6" fill="#8b0000" /><text x="609.90" y="352" font-size="12">-0.002 +/- 0.000</text><text x="245" y="405" text-anchor="end" font-size="14">GEOPHYSICAL_lag_avg</text><line x1="592.41" y1="400" x2="599.42" y2="400" stroke="#000" stroke-width="2" /><line x1="592.41" y1="394" x2="592.41" y2="406" stroke="#000" stroke-width="2" /><line x1="599.42" y1="394" x2="599.42" y2="406" stroke="#000" stroke-width="2" /><circle cx="595.92" cy="400" r="6" fill="#8b0000" /><text x="605.92" y="392" font-size="12">-0.082 +/- 0.070</text><text x="245" y="445" text-anchor="end" font-size="14">GEOPHYSICAL__bin_lag_avg</text><line x1="590.04" y1="440" x2="597.59" y2="440" stroke="#000" stroke-width="2" /><line x1="590.04" y1="434" x2="590.04" y2="446" stroke="#000" stroke-width="2" /><line x1="597.59" y1="434" x2="597.59" y2="446" stroke="#000" stroke-width="2" /><circle cx="593.82" cy="440" r="6" fill="#8b0000" /><text x="603.82" y="432" font-size="12">-0.124 +/- 0.076</text><text x="245" y="485" text-anchor="end" font-size="14">INTERSTATE__bin_lag_avg</text><line x1="537.48" y1="480" x2="545.52" y2="480" stroke="#000" stroke-width="2" /><line x1="537.48" y1="474" x2="537.48" y2="486" stroke="#000" stroke-width="2" /><line x1="545.52" y1="474" x2="545.52" y2="486" stroke="#000" stroke-width="2" /><circle cx="541.50" cy="480" r="6" fill="#8b0000" /><text x="551.50" y="472" font-size="12">-1.171 +/- 0.080</text><text x="245" y="525" text-anchor="end" font-size="14">INTERSTATE_lag_avg</text><line x1="537.22" y1="520" x2="545.72" y2="520" stroke="#000" stroke-width="2" /><line x1="537.22" y1="514" x2="537.22" y2="526" stroke="#000" stroke-width="2" /><line x1="545.72" y1="514" x2="545.72" y2="526" stroke="#000" stroke-width="2" /><circle cx="541.47" cy="520" r="6" fill="#8b0000" /><text x="551.47" y="512" font-size="12">-1.171 +/- 0.085</text><text x="245" y="565" text-anchor="end" font-size="14">ECOLOGICAL__bin_lag_avg</text><line x1="292.34" y1="560" x2="692.03" y2="560" stroke="#000" stroke-width="2" /><line x1="292.34" y1="554" x2="292.34" y2="566" stroke="#000" stroke-width="2" /><line x1="692.03" y1="554" x2="692.03" y2="566" stroke="#000" stroke-width="2" /><circle cx="492.19" cy="560" r="6" fill="#8b0000" /><text x="502.19" y="552" font-size="12">-2.158 +/- 4.000</text>
</svg>
