
<svg xmlns='http://www.w3.org/2000/svg' width='1000' height='500'>
    <style>
        text { font-family: Arial, sans-serif; }
    </style>
    <rect x='0' y='0' width='1000' height='500' fill='white' stroke='black' stroke-width='1'/>
    <line x1='600.00' y1='50' x2='600.00' y2='450' stroke='#666' stroke-width='1' stroke-dasharray='4 4' />
    <text x='500.0' y='30.0' text-anchor='middle' font-size='18'>Model-averaged fixed effects</text>
    <text x='500.0' y='470.0' text-anchor='middle' font-size='14'>Coefficient value</text>
    <text x="245" y="85" text-anchor="end" font-size="14">POISONING__bin_lag_avg</text><line x1="795.99" y1="80" x2="828.24" y2="80" stroke="#000" stroke-width="2" /><line x1="795.99" y1="74" x2="795.99" y2="86" stroke="#000" stroke-width="2" /><line x1="828.24" y1="74" x2="828.24" y2="86" stroke="#000" stroke-width="2" /><circle cx="812.11" cy="80" r="6" fill="#8b0000" /><text x="822.11" y="72" font-size="12">3.841 +/- 0.292</text><text x="245" y="125" text-anchor="end" font-size="14">ECONOMIC_lag_avg</text><line x1="613.77" y1="120" x2="616.46" y2="120" stroke="#000" stroke-width="2" /><line x1="613.77" y1="114" x2="613.77" y2="126" stroke="#000" stroke-width="2" /><line x1="616.46" y1="114" x2="616.46" y2="126" stroke="#000" stroke-width="2" /><circle cx="615.12" cy="120" r="6" fill="#8b0000" /><text x="625.12" y="112" font-size="12">0.274 +/- 0.024</text><text x="245" y="165" text-anchor="end" font-size="14">INTRASTATE_lag_avg</text><line x1="614.24" y1="160" x2="615.18" y2="160" stroke="#000" stroke-width="2" /><line x1="614.24" y1="154" x2="614.24" y2="166" stroke="#000" stroke-width="2" /><line x1="615.18" y1="154" x2="615.18" y2="166" stroke="#000" stroke-width="2" /><circle cx="614.71" cy="160" r="6" fill="#8b0000" /><text x="624.71" y="152" font-size="12">0.266 +/- 0.008</text><text x="245" y="205" text-anchor="end" font-size="14">CLIMATIC_lag_avg</text><line x1="605.17" y1="200" x2="606.89" y2="200" stroke="#000" stroke-width="2" /><line x1="605.17" y1="194" x2="605.17" y2="206" stroke="#000" stroke-width="2" /><line x1="606.89" y1="194" x2="606.89" y2="206" stroke="#000" stroke-width="2" /><circle cx="606.03" cy="200" r="6" fill="#8b0000" /><text x="616.03" y="192" font-size="12">0.109 +/- 0.016</text><text x="245" y="245" text-anchor="end" font-size="14">TECHNOLOGICAL_lag_avg</text><line x1="604.47" y1="240" x2="604.91" y2="240" stroke="#000" stroke-width="2" /><line x1="604.47" y1="234" x2="604.47" y2="246" stroke="#000" stroke-width="2" /><line x1="604.91" y1="234" x2="604.91" y2="246" stroke="#000" stroke-width="2" /><circle cx="604.69" cy="240" r="6" fill="#8b0000" /><text x="614.69" y="232" font-size="12">0.085 +/- 0.004</text><text x="245" y="285" text-anchor="end" font-size="14">TERRORISM_lag_avg</text><line x1="599.87" y1="280" x2="599.90" y2="280" stroke="#000" stroke-width="2" /><line x1="599.87" y1="274" x2="599.87" y2="286" stroke="#000" stroke-width="2" /><line x1="599.90" y1="274" x2="599.90" y2="286" stroke="#000" stroke-width="2" /><circle cx="599.89" cy="280" r="6" fill="#8b0000" /><text x="609.89" y="272" font-size="12">-0.002 +/- 0.000</text><text x="245" y="325" text-anchor="end" font-size="14">GEOPHYSICAL_lag_avg</text><line x1="591.62" y1="320" x2="599.36" y2="320" stroke="#000" stroke-width="2" /><line x1="591.62" y1="314" x2="591.62" y2="326" stroke="#000" stroke-width="2" /><line x1="599.36" y1="314" x2="599.36" y2="326" stroke="#000" stroke-width="2" /><circle cx="595.49" cy="320" r="6" fill="#8b0000" /><text x="605.49" y="312" font-size="12">-0.082 +/- 0.070</text><text x="245" y="365" text-anchor="end" font-size="14">INTERSTATE__bin_lag_avg</text><line x1="530.90" y1="360" x2="539.79" y2="360" stroke="#000" stroke-width="2" /><line x1="530.90" y1="354" x2="530.90" y2="366" stroke="#000" stroke-width="2" /><line x1="539.79" y1="354" x2="539.79" y2="366" stroke="#000" stroke-width="2" /><circle cx="535.35" cy="360" r="6" fill="#8b0000" /><text x="545.35" y="352" font-size="12">-1.171 +/- 0.080</text><text x="245" y="405" text-anchor="end" font-size="14">ECOLOGICAL__bin_lag_avg</text><line x1="260.00" y1="400" x2="701.70" y2="400" stroke="#000" stroke-width="2" /><line x1="260.00" y1="394" x2="260.00" y2="406" stroke="#000" stroke-width="2" /><line x1="701.70" y1="394" x2="701.70" y2="406" stroke="#000" stroke-width="2" /><circle cx="480.85" cy="400" r="6" fill="#8b0000" /><text x="490.85" y="392" font-size="12">-2.158 +/- 4.000</text>
</svg>
