
<svg xmlns='http://www.w3.org/2000/svg' width='900' height='640'>
    <style>
        text { font-family: Arial, sans-serif; }
    </style>
    <rect x='0' y='0' width='900' height='640' fill='white' stroke='black' stroke-width='1'/>
    <text x='450.0' y='30.0' text-anchor='middle' font-size='18'>Predictor importance (summed weights)</text>
    <text x='450.0' y='610.0' text-anchor='middle' font-size='14'>Summed Akaike weight</text>
    <text x="210" y="85" text-anchor="end" font-size="14">CLIMATIC</text><rect x="220" y="70" width="640.00" height="20" fill="#4682b4" /><text x="865.0" y="85" font-size="12">0.987</text><text x="210" y="125" text-anchor="end" font-size="14">TECHNOLOGICAL</text><rect x="220" y="110" width="217.07" height="20" fill="#4682b4" /><text x="442.0688726173869" y="125" font-size="12">0.335</text><text x="210" y="165" text-anchor="end" font-size="14">INTRASTATE</text><rect x="220" y="150" width="192.46" height="20" fill="#4682b4" /><text x="417.4622951731013" y="165" font-size="12">0.297</text><text x="210" y="205" text-anchor="end" font-size="14">GEOPHYSICAL__bin</text><rect x="220" y="190" width="154.87" height="20" fill="#4682b4" /><text x="379.8734194148073" y="205" font-size="12">0.239</text><text x="210" y="245" text-anchor="end" font-size="14">INTERSTATE</text><rect x="220" y="230" width="138.22" height="20" fill="#4682b4" /><text x="363.2191251018676" y="245" font-size="12">0.213</text><text x="210" y="285" text-anchor="end" font-size="14">ECONOMIC</text><rect x="220" y="270" width="128.94" height="20" fill="#4682b4" /><text x="353.941990026717" y="285" font-size="12">0.199</text><text x="210" y="325" text-anchor="end" font-size="14">GEOPHYSICAL</text><rect x="220" y="310" width="122.22" height="20" fill="#4682b4" /><text x="347.21925882888604" y="325" font-size="12">0.189</text><text x="210" y="365" text-anchor="end" font-size="14">INTERSTATE__bin</text><rect x="220" y="350" width="111.52" height="20" fill="#4682b4" /><text x="336.5235562779171" y="365" font-size="12">0.172</text><text x="210" y="405" text-anchor="end" font-size="14">ECOLOGICAL</text><rect x="220" y="390" width="84.16" height="20" fill="#4682b4" /><text x="309.1649970357644" y="405" font-size="12">0.130</text><text x="210" y="445" text-anchor="end" font-size="14">ECOLOGICAL__bin</text><rect x="220" y="430" width="78.99" height="20" fill="#4682b4" /><text x="303.9891853136308" y="445" font-size="12">0.122</text><text x="210" y="485" text-anchor="end" font-size="14">POISONING</text><rect x="220" y="470" width="32.41" height="20" fill="#4682b4" /><text x="257.40749406469547" y="485" font-size="12">0.050</text><text x="210" y="525" text-anchor="end" font-size="14">POISONING__bin</text><rect x="220" y="510" width="16.74" height="20" fill="#4682b4" /><text x="241.74024480852927" y="525" font-size="12">0.026</text><text x="210" y="565" text-anchor="end" font-size="14">TERRORISM</text><rect x="220" y="550" width="9.08" height="20" fill="#4682b4" /><text x="234.0833937854007" y="565" font-size="12">0.014</text>
</svg>
