
<svg xmlns='http://www.w3.org/2000/svg' width='900' height='920'>
    <style>
        text { font-family: Arial, sans-serif; }
    </style>
    <rect x='0' y='0' width='900' height='920' fill='white' stroke='black' stroke-width='1'/>
    <text x='450.0' y='30.0' text-anchor='middle' font-size='18'>Top models by AICc weight</text>
    <text x='450.0' y='890.0' text-anchor='middle' font-size='14'>Akaike weight</text>
    <text x="210" y="85" text-anchor="end" font-size="14">2de5b3dc48d10aa9af6031599a53c60b</text><rect x="220" y="70" width="640.00" height="20" fill="#4682b4" /><text x="865.0" y="85" font-size="12">0.043</text><text x="210" y="125" text-anchor="end" font-size="14">2de5b3dc48d10aa9af6031599a53c60b</text><rect x="220" y="110" width="640.00" height="20" fill="#4682b4" /><text x="865.0" y="125" font-size="12">0.043</text><text x="210" y="165" text-anchor="end" font-size="14">Efbc0671217f21103e56b39612736555</text><rect x="220" y="150" width="290.00" height="20" fill="#4682b4" /><text x="514.999765681749" y="165" font-size="12">0.019</text><text x="210" y="205" text-anchor="end" font-size="14">Efbc0671217f21103e56b39612736555</text><rect x="220" y="190" width="290.00" height="20" fill="#4682b4" /><text x="514.999765681749" y="205" font-size="12">0.019</text><text x="210" y="245" text-anchor="end" font-size="14">93ce8f623d79b202407a60a4c2373d78</text><rect x="220" y="230" width="265.98" height="20" fill="#4682b4" /><text x="490.9755840382407" y="245" font-size="12">0.018</text><text x="210" y="285" text-anchor="end" font-size="14">26663a46f9b1dc156db6567ea56f6ef3</text><rect x="220" y="270" width="253.51" height="20" fill="#4682b4" /><text x="478.51360217447336" y="285" font-size="12">0.017</text><text x="210" y="325" text-anchor="end" font-size="14">26663a46f9b1dc156db6567ea56f6ef3</text><rect x="220" y="310" width="253.51" height="20" fill="#4682b4" /><text x="478.51360217447336" y="325" font-size="12">0.017</text><text x="210" y="365" text-anchor="end" font-size="14">Ee0fc07e65eef844b7aa0495180c9af0</text><rect x="220" y="350" width="241.14" height="20" fill="#4682b4" /><text x="466.1415985191087" y="365" font-size="12">0.016</text><text x="210" y="405" text-anchor="end" font-size="14">5af15c1d27daa552639f350ffe9a7cf8</text><rect x="220" y="390" width="241.14" height="20" fill="#4682b4" /><text x="466.1415985191087" y="405" font-size="12">0.016</text><text x="210" y="445" text-anchor="end" font-size="14">Ee0fc07e65eef844b7aa0495180c9af0</text><rect x="220" y="430" width="241.14" height="20" fill="#4682b4" /><text x="466.1415985191087" y="445" font-size="12">0.016</text><text x="210" y="485" text-anchor="end" font-size="14">5af15c1d27daa552639f350ffe9a7cf8</text><rect x="220" y="470" width="241.14" height="20" fill="#4682b4" /><text x="466.1415985191087" y="485" font-size="12">0.016</text><text x="210" y="525" text-anchor="end" font-size="14">Bf10e8b812b6f473340d6b3cbe3ee279</text><rect x="220" y="510" width="144.56" height="20" fill="#4682b4" /><text x="369.5649881669283" y="525" font-size="12">0.010</text><text x="210" y="565" text-anchor="end" font-size="14">Bf10e8b812b6f473340d6b3cbe3ee279</text><rect x="220" y="550" width="144.56" height="20" fill="#4682b4" /><text x="369.5649881669283" y="565" font-size="12">0.010</text><text x="210" y="605" text-anchor="end" font-size="14">Af01479ac7290c43d1cef297c37cfd54</text><rect x="220" y="590" width="132.99" height="20" fill="#4682b4" /><text x="357.9877920191203" y="605" font-size="12">0.009</text><text x="210" y="645" text-anchor="end" font-size="14">F1ba0dc092c72cd2803806c99ad4b9ab</text><rect x="220" y="630" width="107.19" height="20" fill="#4682b4" /><text x="332.19403894369333" y="645" font-size="12">0.007</text><text x="210" y="685" text-anchor="end" font-size="14">F1ba0dc092c72cd2803806c99ad4b9ab</text><rect x="220" y="670" width="107.19" height="20" fill="#4682b4" /><text x="332.19403894369333" y="685" font-size="12">0.007</text><text x="210" y="725" text-anchor="end" font-size="14">3d11b2d10107fbc60bc595443a81451b</text><rect x="220" y="710" width="103.91" height="20" fill="#4682b4" /><text x="328.9098343369965" y="725" font-size="12">0.007</text><text x="210" y="765" text-anchor="end" font-size="14">3d11b2d10107fbc60bc595443a81451b</text><rect x="220" y="750" width="103.91" height="20" fill="#4682b4" /><text x="328.9098343369965" y="765" font-size="12">0.007</text><text x="210" y="805" text-anchor="end" font-size="14">5fcdf2db2e55ac131d102703f609654b</text><rect x="220" y="790" width="99.38" height="20" fill="#4682b4" /><text x="324.3809311807297" y="805" font-size="12">0.007</text><text x="210" y="845" text-anchor="end" font-size="14">5fcdf2db2e55ac131d102703f609654b</text><rect x="220" y="830" width="99.38" height="20" fill="#4682b4" /><text x="324.3809311807297" y="845" font-size="12">0.007</text>
</svg>
