
<svg xmlns='http://www.w3.org/2000/svg' width='1000' height='660'>
    <style>
        text { font-family: Arial, sans-serif; }
    </style>
    <rect x='0' y='0' width='1000' height='660' fill='white' stroke='black' stroke-width='1'/>
    <line x1='600.00' y1='50' x2='600.00' y2='610' stroke='#666' stroke-width='1' stroke-dasharray='4 4' />
    <text x='500.0' y='30.0' text-anchor='middle' font-size='18'>Model-averaged fixed effects</text>
    <text x='500.0' y='630.0' text-anchor='middle' font-size='14'>Coefficient value</text>
    <text x="245" y="85" text-anchor="end" font-size="14">INTERSTATE</text><line x1="800.06" y1="80" x2="842.28" y2="80" stroke="#000" stroke-width="2" /><line x1="800.06" y1="74" x2="800.06" y2="86" stroke="#000" stroke-width="2" /><line x1="842.28" y1="74" x2="842.28" y2="86" stroke="#000" stroke-width="2" /><circle cx="821.17" cy="80" r="6" fill="#8b0000" /><text x="831.17" y="72" font-size="12">0.476 +/- 0.045</text><text x="245" y="125" text-anchor="end" font-size="14">INTERSTATE__bin</text><line x1="792.43" y1="120" x2="837.19" y2="120" stroke="#000" stroke-width="2" /><line x1="792.43" y1="114" x2="792.43" y2="126" stroke="#000" stroke-width="2" /><line x1="837.19" y1="114" x2="837.19" y2="126" stroke="#000" stroke-width="2" /><circle cx="814.81" cy="120" r="6" fill="#8b0000" /><text x="824.81" y="112" font-size="12">0.463 +/- 0.048</text><text x="245" y="165" text-anchor="end" font-size="14">ECOLOGICAL</text><line x1="548.12" y1="160" x2="940.00" y2="160" stroke="#000" stroke-width="2" /><line x1="548.12" y1="154" x2="548.12" y2="166" stroke="#000" stroke-width="2" /><line x1="940.00" y1="154" x2="940.00" y2="166" stroke="#000" stroke-width="2" /><circle cx="744.06" cy="160" r="6" fill="#8b0000" /><text x="754.06" y="152" font-size="12">0.310 +/- 0.422</text><text x="245" y="205" text-anchor="end" font-size="14">POISONING</text><line x1="646.98" y1="200" x2="820.53" y2="200" stroke="#000" stroke-width="2" /><line x1="646.98" y1="194" x2="646.98" y2="206" stroke="#000" stroke-width="2" /><line x1="820.53" y1="194" x2="820.53" y2="206" stroke="#000" stroke-width="2" /><circle cx="733.75" cy="200" r="6" fill="#8b0000" /><text x="743.75" y="192" font-size="12">0.288 +/- 0.187</text><text x="245" y="245" text-anchor="end" font-size="14">INTRASTATE</text><line x1="671.05" y1="240" x2="680.73" y2="240" stroke="#000" stroke-width="2" /><line x1="671.05" y1="234" x2="671.05" y2="246" stroke="#000" stroke-width="2" /><line x1="680.73" y1="234" x2="680.73" y2="246" stroke="#000" stroke-width="2" /><circle cx="675.89" cy="240" r="6" fill="#8b0000" /><text x="685.89" y="232" font-size="12">0.163 +/- 0.010</text><text x="245" y="285" text-anchor="end" font-size="14">GEOPHYSICAL</text><line x1="616.95" y1="280" x2="689.04" y2="280" stroke="#000" stroke-width="2" /><line x1="616.95" y1="274" x2="616.95" y2="286" stroke="#000" stroke-width="2" /><line x1="689.04" y1="274" x2="689.04" y2="286" stroke="#000" stroke-width="2" /><circle cx="653.00" cy="280" r="6" fill="#8b0000" /><text x="663.00" y="272" font-size="12">0.114 +/- 0.078</text><text x="245" y="325" text-anchor="end" font-size="14">ECONOMIC</text><line x1="642.40" y1="320" x2="648.12" y2="320" stroke="#000" stroke-width="2" /><line x1="642.40" y1="314" x2="642.40" y2="326" stroke="#000" stroke-width="2" /><line x1="648.12" y1="314" x2="648.12" y2="326" stroke="#000" stroke-width="2" /><circle cx="645.26" cy="320" r="6" fill="#8b0000" /><text x="655.26" y="312" font-size="12">0.097 +/- 0.006</text><text x="245" y="365" text-anchor="end" font-size="14">CLIMATIC</text><line x1="630.31" y1="360" x2="639.55" y2="360" stroke="#000" stroke-width="2" /><line x1="630.31" y1="354" x2="630.31" y2="366" stroke="#000" stroke-width="2" /><line x1="639.55" y1="354" x2="639.55" y2="366" stroke="#000" stroke-width="2" /><circle cx="634.93" cy="360" r="6" fill="#8b0000" /><text x="644.93" y="352" font-size="12">0.075 +/- 0.010</text><text x="245" y="405" text-anchor="end" font-size="14">POISONING__bin</text><line x1="474.35" y1="400" x2="788.79" y2="400" stroke="#000" stroke-width="2" /><line x1="474.35" y1="394" x2="474.35" y2="406" stroke="#000" stroke-width="2" /><line x1="788.79" y1="394" x2="788.79" y2="406" stroke="#000" stroke-width="2" /><circle cx="631.57" cy="400" r="6" fill="#8b0000" /><text x="641.57" y="392" font-size="12">0.068 +/- 0.339</text><text x="245" y="445" text-anchor="end" font-size="14">TECHNOLOGICAL</text><line x1="617.09" y1="440" x2="620.56" y2="440" stroke="#000" stroke-width="2" /><line x1="617.09" y1="434" x2="617.09" y2="446" stroke="#000" stroke-width="2" /><line x1="620.56" y1="434" x2="620.56" y2="446" stroke="#000" stroke-width="2" /><circle cx="618.82" cy="440" r="6" fill="#8b0000" /><text x="628.82" y="432" font-size="12">0.041 +/- 0.004</text><text x="245" y="485" text-anchor="end" font-size="14">TERRORISM</text><line x1="599.81" y1="480" x2="599.88" y2="480" stroke="#000" stroke-width="2" /><line x1="599.81" y1="474" x2="599.81" y2="486" stroke="#000" stroke-width="2" /><line x1="599.88" y1="474" x2="599.88" y2="486" stroke="#000" stroke-width="2" /><circle cx="599.85" cy="480" r="6" fill="#8b0000" /><text x="609.85" y="472" font-size="12">-0.000 +/- 0.000</text><text x="245" y="525" text-anchor="end" font-size="14">ECOLOGICAL__bin</text><line x1="272.78" y1="520" x2="725.92" y2="520" stroke="#000" stroke-width="2" /><line x1="272.78" y1="514" x2="272.78" y2="526" stroke="#000" stroke-width="2" /><line x1="725.92" y1="514" x2="725.92" y2="526" stroke="#000" stroke-width="2" /><circle cx="499.35" cy="520" r="6" fill="#8b0000" /><text x="509.35" y="512" font-size="12">-0.217 +/- 0.488</text><text x="245" y="565" text-anchor="end" font-size="14">GEOPHYSICAL__bin</text><line x1="404.77" y1="560" x2="531.53" y2="560" stroke="#000" stroke-width="2" /><line x1="404.77" y1="554" x2="404.77" y2="566" stroke="#000" stroke-width="2" /><line x1="531.53" y1="554" x2="531.53" y2="566" stroke="#000" stroke-width="2" /><circle cx="468.15" cy="560" r="6" fill="#8b0000" /><text x="478.15" y="552" font-size="12">-0.284 +/- 0.137</text>
</svg>
