
<svg xmlns='http://www.w3.org/2000/svg' width='1000' height='500'>
    <style>
        text { font-family: Arial, sans-serif; }
    </style>
    <rect x='0' y='0' width='1000' height='500' fill='white' stroke='black' stroke-width='1'/>
    <line x1='600.00' y1='50' x2='600.00' y2='450' stroke='#666' stroke-width='1' stroke-dasharray='4 4' />
    <text x='500.0' y='30.0' text-anchor='middle' font-size='18'>Model-averaged fixed effects</text>
    <text x='500.0' y='470.0' text-anchor='middle' font-size='14'>Coefficient value</text>
    <text x="245" y="85" text-anchor="end" font-size="14">INTERSTATE__bin</text><line x1="799.95" y1="80" x2="846.46" y2="80" stroke="#000" stroke-width="2" /><line x1="799.95" y1="74" x2="799.95" y2="86" stroke="#000" stroke-width="2" /><line x1="846.46" y1="74" x2="846.46" y2="86" stroke="#000" stroke-width="2" /><circle cx="823.20" cy="80" r="6" fill="#8b0000" /><text x="833.20" y="72" font-size="12">0.463 +/- 0.048</text><text x="245" y="125" text-anchor="end" font-size="14">INTRASTATE</text><line x1="673.82" y1="120" x2="683.88" y2="120" stroke="#000" stroke-width="2" /><line x1="673.82" y1="114" x2="673.82" y2="126" stroke="#000" stroke-width="2" /><line x1="683.88" y1="114" x2="683.88" y2="126" stroke="#000" stroke-width="2" /><circle cx="678.85" cy="120" r="6" fill="#8b0000" /><text x="688.85" y="112" font-size="12">0.163 +/- 0.010</text><text x="245" y="165" text-anchor="end" font-size="14">GEOPHYSICAL</text><line x1="617.61" y1="160" x2="692.52" y2="160" stroke="#000" stroke-width="2" /><line x1="617.61" y1="154" x2="617.61" y2="166" stroke="#000" stroke-width="2" /><line x1="692.52" y1="154" x2="692.52" y2="166" stroke="#000" stroke-width="2" /><circle cx="655.07" cy="160" r="6" fill="#8b0000" /><text x="665.07" y="152" font-size="12">0.114 +/- 0.078</text><text x="245" y="205" text-anchor="end" font-size="14">ECONOMIC</text><line x1="644.05" y1="200" x2="650.00" y2="200" stroke="#000" stroke-width="2" /><line x1="644.05" y1="194" x2="644.05" y2="206" stroke="#000" stroke-width="2" /><line x1="650.00" y1="194" x2="650.00" y2="206" stroke="#000" stroke-width="2" /><circle cx="647.03" cy="200" r="6" fill="#8b0000" /><text x="657.03" y="192" font-size="12">0.097 +/- 0.006</text><text x="245" y="245" text-anchor="end" font-size="14">CLIMATIC</text><line x1="631.50" y1="240" x2="641.10" y2="240" stroke="#000" stroke-width="2" /><line x1="631.50" y1="234" x2="631.50" y2="246" stroke="#000" stroke-width="2" /><line x1="641.10" y1="234" x2="641.10" y2="246" stroke="#000" stroke-width="2" /><circle cx="636.30" cy="240" r="6" fill="#8b0000" /><text x="646.30" y="232" font-size="12">0.075 +/- 0.010</text><text x="245" y="285" text-anchor="end" font-size="14">POISONING__bin</text><line x1="469.44" y1="280" x2="796.16" y2="280" stroke="#000" stroke-width="2" /><line x1="469.44" y1="274" x2="469.44" y2="286" stroke="#000" stroke-width="2" /><line x1="796.16" y1="274" x2="796.16" y2="286" stroke="#000" stroke-width="2" /><circle cx="632.80" cy="280" r="6" fill="#8b0000" /><text x="642.80" y="272" font-size="12">0.068 +/- 0.339</text><text x="245" y="325" text-anchor="end" font-size="14">TECHNOLOGICAL</text><line x1="617.75" y1="320" x2="621.37" y2="320" stroke="#000" stroke-width="2" /><line x1="617.75" y1="314" x2="617.75" y2="326" stroke="#000" stroke-width="2" /><line x1="621.37" y1="314" x2="621.37" y2="326" stroke="#000" stroke-width="2" /><circle cx="619.56" cy="320" r="6" fill="#8b0000" /><text x="629.56" y="312" font-size="12">0.041 +/- 0.004</text><text x="245" y="365" text-anchor="end" font-size="14">TERRORISM</text><line x1="599.81" y1="360" x2="599.87" y2="360" stroke="#000" stroke-width="2" /><line x1="599.81" y1="354" x2="599.81" y2="366" stroke="#000" stroke-width="2" /><line x1="599.87" y1="354" x2="599.87" y2="366" stroke="#000" stroke-width="2" /><circle cx="599.84" cy="360" r="6" fill="#8b0000" /><text x="609.84" y="352" font-size="12">-0.000 +/- 0.000</text><text x="245" y="405" text-anchor="end" font-size="14">ECOLOGICAL__bin</text><line x1="260.00" y1="400" x2="730.84" y2="400" stroke="#000" stroke-width="2" /><line x1="260.00" y1="394" x2="260.00" y2="406" stroke="#000" stroke-width="2" /><line x1="730.84" y1="394" x2="730.84" y2="406" stroke="#000" stroke-width="2" /><circle cx="495.42" cy="400" r="6" fill="#8b0000" /><text x="505.42" y="392" font-size="12">-0.217 +/- 0.488</text>
</svg>
