
<svg xmlns='http://www.w3.org/2000/svg' width='900' height='640'>
    <style>
        text { font-family: Arial, sans-serif; }
    </style>
    <rect x='0' y='0' width='900' height='640' fill='white' stroke='black' stroke-width='1'/>
    <text x='450.0' y='30.0' text-anchor='middle' font-size='18'>Predictor importance (summed weights)</text>
    <text x='450.0' y='610.0' text-anchor='middle' font-size='14'>Summed Akaike weight</text>
    <text x="210" y="85" text-anchor="end" font-size="14">CLIMATIC_lag_avg</text><rect x="220" y="70" width="640.00" height="20" fill="#4682b4" /><text x="865.0" y="85" font-size="12">0.999</text><text x="210" y="125" text-anchor="end" font-size="14">ECONOMIC_lag_avg</text><rect x="220" y="110" width="507.87" height="20" fill="#4682b4" /><text x="732.8736014665301" y="125" font-size="12">0.792</text><text x="210" y="165" text-anchor="end" font-size="14">ECOLOGICAL__bin_lag_avg</text><rect x="220" y="150" width="47.42" height="20" fill="#4682b4" /><text x="272.4178878290593" y="165" font-size="12">0.074</text><text x="210" y="205" text-anchor="end" font-size="14">ECOLOGICAL_lag_avg</text><rect x="220" y="190" width="30.56" height="20" fill="#4682b4" /><text x="255.5558423610705" y="205" font-size="12">0.048</text><text x="210" y="245" text-anchor="end" font-size="14">POISONING__bin_lag_avg</text><rect x="220" y="230" width="14.11" height="20" fill="#4682b4" /><text x="239.10987195460493" y="245" font-size="12">0.022</text><text x="210" y="285" text-anchor="end" font-size="14">GEOPHYSICAL__bin_lag_avg</text><rect x="220" y="270" width="12.89" height="20" fill="#4682b4" /><text x="237.88731312899387" y="285" font-size="12">0.020</text><text x="210" y="325" text-anchor="end" font-size="14">POISONING_lag_avg</text><rect x="220" y="310" width="10.83" height="20" fill="#4682b4" /><text x="235.8256360517132" y="325" font-size="12">0.017</text><text x="210" y="365" text-anchor="end" font-size="14">GEOPHYSICAL_lag_avg</text><rect x="220" y="350" width="7.52" height="20" fill="#4682b4" /><text x="232.5183028532083" y="365" font-size="12">0.012</text><text x="210" y="405" text-anchor="end" font-size="14">INTERSTATE__bin_lag_avg</text><rect x="220" y="390" width="5.26" height="20" fill="#4682b4" /><text x="230.25688351098097" y="405" font-size="12">0.008</text><text x="210" y="445" text-anchor="end" font-size="14">INTERSTATE_lag_avg</text><rect x="220" y="430" width="2.87" height="20" fill="#4682b4" /><text x="227.86662039358933" y="445" font-size="12">0.004</text><text x="210" y="485" text-anchor="end" font-size="14">INTRASTATE_lag_avg</text><rect x="220" y="470" width="1.70" height="20" fill="#4682b4" /><text x="226.70404406826586" y="485" font-size="12">0.003</text><text x="210" y="525" text-anchor="end" font-size="14">TECHNOLOGICAL_lag_avg</text><rect x="220" y="510" width="0.31" height="20" fill="#4682b4" /><text x="225.30502171581722" y="525" font-size="12">0.000</text><text x="210" y="565" text-anchor="end" font-size="14">TERRORISM_lag_avg</text><rect x="220" y="550" width="0.24" height="20" fill="#4682b4" /><text x="225.2370402990457" y="565" font-size="12">0.000</text>
</svg>
