
<svg xmlns='http://www.w3.org/2000/svg' width='1000' height='500'>
    <style>
        text { font-family: Arial, sans-serif; }
    </style>
    <rect x='0' y='0' width='1000' height='500' fill='white' stroke='black' stroke-width='1'/>
    <line x1='600.00' y1='50' x2='600.00' y2='450' stroke='#666' stroke-width='1' stroke-dasharray='4 4' />
    <text x='500.0' y='30.0' text-anchor='middle' font-size='18'>Model-averaged fixed effects</text>
    <text x='500.0' y='470.0' text-anchor='middle' font-size='14'>Coefficient value</text>
    <text x="245" y="85" text-anchor="end" font-size="14">POISONING__bin_lag_avg</text><line x1="887.40" y1="80" x2="940.00" y2="80" stroke="#000" stroke-width="2" /><line x1="887.40" y1="74" x2="887.40" y2="86" stroke="#000" stroke-width="2" /><line x1="940.00" y1="74" x2="940.00" y2="86" stroke="#000" stroke-width="2" /><circle cx="913.70" cy="80" r="6" fill="#8b0000" /><text x="923.70" y="72" font-size="12">3.060 +/- 0.257</text><text x="245" y="125" text-anchor="end" font-size="14">ECOLOGICAL__bin_lag_avg</text><line x1="657.84" y1="120" x2="662.70" y2="120" stroke="#000" stroke-width="2" /><line x1="657.84" y1="114" x2="657.84" y2="126" stroke="#000" stroke-width="2" /><line x1="662.70" y1="114" x2="662.70" y2="126" stroke="#000" stroke-width="2" /><circle cx="660.27" cy="120" r="6" fill="#8b0000" /><text x="670.27" y="112" font-size="12">0.588 +/- 0.024</text><text x="245" y="165" text-anchor="end" font-size="14">CLIMATIC_lag_avg</text><line x1="630.56" y1="160" x2="633.14" y2="160" stroke="#000" stroke-width="2" /><line x1="630.56" y1="154" x2="630.56" y2="166" stroke="#000" stroke-width="2" /><line x1="633.14" y1="154" x2="633.14" y2="166" stroke="#000" stroke-width="2" /><circle cx="631.85" cy="160" r="6" fill="#8b0000" /><text x="641.85" y="152" font-size="12">0.311 +/- 0.013</text><text x="245" y="205" text-anchor="end" font-size="14">TECHNOLOGICAL_lag_avg</text><line x1="602.78" y1="200" x2="620.42" y2="200" stroke="#000" stroke-width="2" /><line x1="602.78" y1="194" x2="602.78" y2="206" stroke="#000" stroke-width="2" /><line x1="620.42" y1="194" x2="620.42" y2="206" stroke="#000" stroke-width="2" /><circle cx="611.60" cy="200" r="6" fill="#8b0000" /><text x="621.60" y="192" font-size="12">0.113 +/- 0.086</text><text x="245" y="245" text-anchor="end" font-size="14">GEOPHYSICAL_lag_avg</text><line x1="606.47" y1="240" x2="613.01" y2="240" stroke="#000" stroke-width="2" /><line x1="606.47" y1="234" x2="606.47" y2="246" stroke="#000" stroke-width="2" /><line x1="613.01" y1="234" x2="613.01" y2="246" stroke="#000" stroke-width="2" /><circle cx="609.74" cy="240" r="6" fill="#8b0000" /><text x="619.74" y="232" font-size="12">0.095 +/- 0.032</text><text x="245" y="285" text-anchor="end" font-size="14">TERRORISM_lag_avg</text><line x1="600.38" y1="280" x2="600.73" y2="280" stroke="#000" stroke-width="2" /><line x1="600.38" y1="274" x2="600.38" y2="286" stroke="#000" stroke-width="2" /><line x1="600.73" y1="274" x2="600.73" y2="286" stroke="#000" stroke-width="2" /><circle cx="600.56" cy="280" r="6" fill="#8b0000" /><text x="610.56" y="272" font-size="12">0.005 +/- 0.002</text><text x="245" y="325" text-anchor="end" font-size="14">INTRASTATE_lag_avg</text><line x1="572.34" y1="320" x2="576.06" y2="320" stroke="#000" stroke-width="2" /><line x1="572.34" y1="314" x2="572.34" y2="326" stroke="#000" stroke-width="2" /><line x1="576.06" y1="314" x2="576.06" y2="326" stroke="#000" stroke-width="2" /><circle cx="574.20" cy="320" r="6" fill="#8b0000" /><text x="584.20" y="312" font-size="12">-0.252 +/- 0.018</text><text x="245" y="365" text-anchor="end" font-size="14">ECONOMIC_lag_avg</text><line x1="531.93" y1="360" x2="532.29" y2="360" stroke="#000" stroke-width="2" /><line x1="531.93" y1="354" x2="531.93" y2="366" stroke="#000" stroke-width="2" /><line x1="532.29" y1="354" x2="532.29" y2="366" stroke="#000" stroke-width="2" /><circle cx="532.11" cy="360" r="6" fill="#8b0000" /><text x="542.11" y="352" font-size="12">-0.662 +/- 0.002</text><text x="245" y="405" text-anchor="end" font-size="14">INTERSTATE__bin_lag_avg</text><line x1="497.68" y1="400" x2="504.55" y2="400" stroke="#000" stroke-width="2" /><line x1="497.68" y1="394" x2="497.68" y2="406" stroke="#000" stroke-width="2" /><line x1="504.55" y1="394" x2="504.55" y2="406" stroke="#000" stroke-width="2" /><circle cx="501.11" cy="400" r="6" fill="#8b0000" /><text x="511.11" y="392" font-size="12">-0.965 +/- 0.034</text>
</svg>
