
<svg xmlns='http://www.w3.org/2000/svg' width='1000' height='660'>
    <style>
        text { font-family: Arial, sans-serif; }
    </style>
    <rect x='0' y='0' width='1000' height='660' fill='white' stroke='black' stroke-width='1'/>
    <line x1='600.00' y1='50' x2='600.00' y2='610' stroke='#666' stroke-width='1' stroke-dasharray='4 4' />
    <text x='500.0' y='30.0' text-anchor='middle' font-size='18'>Model-averaged fixed effects</text>
    <text x='500.0' y='630.0' text-anchor='middle' font-size='14'>Coefficient value</text>
    <text x="245" y="85" text-anchor="end" font-size="14">POISONING__bin_lag_avg</text><line x1="887.17" y1="80" x2="939.73" y2="80" stroke="#000" stroke-width="2" /><line x1="887.17" y1="74" x2="887.17" y2="86" stroke="#000" stroke-width="2" /><line x1="939.73" y1="74" x2="939.73" y2="86" stroke="#000" stroke-width="2" /><circle cx="913.45" cy="80" r="6" fill="#8b0000" /><text x="923.45" y="72" font-size="12">3.060 +/- 0.257</text><text x="245" y="125" text-anchor="end" font-size="14">POISONING_lag_avg</text><line x1="883.01" y1="120" x2="940.00" y2="120" stroke="#000" stroke-width="2" /><line x1="883.01" y1="114" x2="883.01" y2="126" stroke="#000" stroke-width="2" /><line x1="940.00" y1="114" x2="940.00" y2="126" stroke="#000" stroke-width="2" /><circle cx="911.51" cy="120" r="6" fill="#8b0000" /><text x="921.51" y="112" font-size="12">3.041 +/- 0.278</text><text x="245" y="165" text-anchor="end" font-size="14">ECOLOGICAL__bin_lag_avg</text><line x1="657.80" y1="160" x2="662.65" y2="160" stroke="#000" stroke-width="2" /><line x1="657.80" y1="154" x2="657.80" y2="166" stroke="#000" stroke-width="2" /><line x1="662.65" y1="154" x2="662.65" y2="166" stroke="#000" stroke-width="2" /><circle cx="660.23" cy="160" r="6" fill="#8b0000" /><text x="670.23" y="152" font-size="12">0.588 +/- 0.024</text><text x="245" y="205" text-anchor="end" font-size="14">ECOLOGICAL_lag_avg</text><line x1="634.01" y1="200" x2="638.56" y2="200" stroke="#000" stroke-width="2" /><line x1="634.01" y1="194" x2="634.01" y2="206" stroke="#000" stroke-width="2" /><line x1="638.56" y1="194" x2="638.56" y2="206" stroke="#000" stroke-width="2" /><circle cx="636.28" cy="200" r="6" fill="#8b0000" /><text x="646.28" y="192" font-size="12">0.354 +/- 0.022</text><text x="245" y="245" text-anchor="end" font-size="14">CLIMATIC_lag_avg</text><line x1="630.54" y1="240" x2="633.11" y2="240" stroke="#000" stroke-width="2" /><line x1="630.54" y1="234" x2="630.54" y2="246" stroke="#000" stroke-width="2" /><line x1="633.11" y1="234" x2="633.11" y2="246" stroke="#000" stroke-width="2" /><circle cx="631.83" cy="240" r="6" fill="#8b0000" /><text x="641.83" y="232" font-size="12">0.311 +/- 0.013</text><text x="245" y="285" text-anchor="end" font-size="14">GEOPHYSICAL__bin_lag_avg</text><line x1="615.25" y1="280" x2="629.08" y2="280" stroke="#000" stroke-width="2" /><line x1="615.25" y1="274" x2="615.25" y2="286" stroke="#000" stroke-width="2" /><line x1="629.08" y1="274" x2="629.08" y2="286" stroke="#000" stroke-width="2" /><circle cx="622.16" cy="280" r="6" fill="#8b0000" /><text x="632.16" y="272" font-size="12">0.216 +/- 0.068</text><text x="245" y="325" text-anchor="end" font-size="14">TECHNOLOGICAL_lag_avg</text><line x1="602.78" y1="320" x2="620.40" y2="320" stroke="#000" stroke-width="2" /><line x1="602.78" y1="314" x2="602.78" y2="326" stroke="#000" stroke-width="2" /><line x1="620.40" y1="314" x2="620.40" y2="326" stroke="#000" stroke-width="2" /><circle cx="611.59" cy="320" r="6" fill="#8b0000" /><text x="621.59" y="312" font-size="12">0.113 +/- 0.086</text><text x="245" y="365" text-anchor="end" font-size="14">GEOPHYSICAL_lag_avg</text><line x1="606.46" y1="360" x2="613.00" y2="360" stroke="#000" stroke-width="2" /><line x1="606.46" y1="354" x2="606.46" y2="366" stroke="#000" stroke-width="2" /><line x1="613.00" y1="354" x2="613.00" y2="366" stroke="#000" stroke-width="2" /><circle cx="609.73" cy="360" r="6" fill="#8b0000" /><text x="619.73" y="352" font-size="12">0.095 +/- 0.032</text><text x="245" y="405" text-anchor="end" font-size="14">TERRORISM_lag_avg</text><line x1="600.38" y1="400" x2="600.73" y2="400" stroke="#000" stroke-width="2" /><line x1="600.38" y1="394" x2="600.38" y2="406" stroke="#000" stroke-width="2" /><line x1="600.73" y1="394" x2="600.73" y2="406" stroke="#000" stroke-width="2" /><circle cx="600.56" cy="400" r="6" fill="#8b0000" /><text x="610.56" y="392" font-size="12">0.005 +/- 0.002</text><text x="245" y="445" text-anchor="end" font-size="14">INTRASTATE_lag_avg</text><line x1="572.36" y1="440" x2="576.08" y2="440" stroke="#000" stroke-width="2" /><line x1="572.36" y1="434" x2="572.36" y2="446" stroke="#000" stroke-width="2" /><line x1="576.08" y1="434" x2="576.08" y2="446" stroke="#000" stroke-width="2" /><circle cx="574.22" cy="440" r="6" fill="#8b0000" /><text x="584.22" y="432" font-size="12">-0.252 +/- 0.018</text><text x="245" y="485" text-anchor="end" font-size="14">ECONOMIC_lag_avg</text><line x1="531.98" y1="480" x2="532.34" y2="480" stroke="#000" stroke-width="2" /><line x1="531.98" y1="474" x2="531.98" y2="486" stroke="#000" stroke-width="2" /><line x1="532.34" y1="474" x2="532.34" y2="486" stroke="#000" stroke-width="2" /><circle cx="532.16" cy="480" r="6" fill="#8b0000" /><text x="542.16" y="472" font-size="12">-0.662 +/- 0.002</text><text x="245" y="525" text-anchor="end" font-size="14">INTERSTATE_lag_avg</text><line x1="497.71" y1="520" x2="504.74" y2="520" stroke="#000" stroke-width="2" /><line x1="497.71" y1="514" x2="497.71" y2="526" stroke="#000" stroke-width="2" /><line x1="504.74" y1="514" x2="504.74" y2="526" stroke="#000" stroke-width="2" /><circle cx="501.23" cy="520" r="6" fill="#8b0000" /><text x="511.23" y="512" font-size="12">-0.964 +/- 0.034</text><text x="245" y="565" text-anchor="end" font-size="14">INTERSTATE__bin_lag_avg</text><line x1="497.76" y1="560" x2="504.62" y2="560" stroke="#000" stroke-width="2" /><line x1="497.76" y1="554" x2="497.76" y2="566" stroke="#000" stroke-width="2" /><line x1="504.62" y1="554" x2="504.62" y2="566" stroke="#000" stroke-width="2" /><circle cx="501.19" cy="560" r="6" fill="#8b0000" /><text x="511.19" y="552" font-size="12">-0.965 +/- 0.034</text>
</svg>
