
<svg xmlns='http://www.w3.org/2000/svg' width='900' height='480'>
    <style>
        text { font-family: Arial, sans-serif; }
    </style>
    <rect x='0' y='0' width='900' height='480' fill='white' stroke='black' stroke-width='1'/>
    <text x='450.0' y='30.0' text-anchor='middle' font-size='18'>Predictor importance (summed weights)</text>
    <text x='450.0' y='450.0' text-anchor='middle' font-size='14'>Summed Akaike weight</text>
    <text x="210" y="85" text-anchor="end" font-size="14">CLIMATIC_lead_avg</text><rect x="220" y="70" width="640.00" height="20" fill="#4682b4" /><text x="865.0" y="85" font-size="12">0.971</text><text x="210" y="125" text-anchor="end" font-size="14">ECOLOGICAL__bin_lead_avg</text><rect x="220" y="110" width="356.51" height="20" fill="#4682b4" /><text x="581.5069100372267" y="125" font-size="12">0.541</text><text x="210" y="165" text-anchor="end" font-size="14">ECONOMIC_lead_avg</text><rect x="220" y="150" width="22.38" height="20" fill="#4682b4" /><text x="247.3798285528498" y="165" font-size="12">0.034</text><text x="210" y="205" text-anchor="end" font-size="14">INTERSTATE__bin_lead_avg</text><rect x="220" y="190" width="16.41" height="20" fill="#4682b4" /><text x="241.40506454193002" y="205" font-size="12">0.025</text><text x="210" y="245" text-anchor="end" font-size="14">GEOPHYSICAL_lead_avg</text><rect x="220" y="230" width="10.97" height="20" fill="#4682b4" /><text x="235.96681679719296" y="245" font-size="12">0.017</text><text x="210" y="285" text-anchor="end" font-size="14">INTRASTATE_lead_avg</text><rect x="220" y="270" width="10.00" height="20" fill="#4682b4" /><text x="235.0042990442931" y="285" font-size="12">0.015</text><text x="210" y="325" text-anchor="end" font-size="14">TECHNOLOGICAL_lead_avg</text><rect x="220" y="310" width="4.78" height="20" fill="#4682b4" /><text x="229.77941320297577" y="325" font-size="12">0.007</text><text x="210" y="365" text-anchor="end" font-size="14">POISONING__bin_lead_avg</text><rect x="220" y="350" width="0.95" height="20" fill="#4682b4" /><text x="225.94516302976172" y="365" font-size="12">0.001</text><text x="210" y="405" text-anchor="end" font-size="14">TERRORISM_lead_avg</text><rect x="220" y="390" width="0.20" height="20" fill="#4682b4" /><text x="225.19719503891426" y="405" font-size="12">0.000</text>
</svg>
