
<svg xmlns='http://www.w3.org/2000/svg' width='1000' height='500'>
    <style>
        text { font-family: Arial, sans-serif; }
    </style>
    <rect x='0' y='0' width='1000' height='500' fill='white' stroke='black' stroke-width='1'/>
    <line x1='600.00' y1='50' x2='600.00' y2='450' stroke='#666' stroke-width='1' stroke-dasharray='4 4' />
    <text x='500.0' y='30.0' text-anchor='middle' font-size='18'>Model-averaged fixed effects</text>
    <text x='500.0' y='470.0' text-anchor='middle' font-size='14'>Coefficient value</text>
    <text x="245" y="85" text-anchor="end" font-size="14">INTERSTATE__bin_lead_avg</text><line x1="831.91" y1="80" x2="940.00" y2="80" stroke="#000" stroke-width="2" /><line x1="831.91" y1="74" x2="831.91" y2="86" stroke="#000" stroke-width="2" /><line x1="940.00" y1="74" x2="940.00" y2="86" stroke="#000" stroke-width="2" /><circle cx="885.95" cy="80" r="6" fill="#8b0000" /><text x="895.95" y="72" font-size="12">3.741 +/- 0.707</text><text x="245" y="125" text-anchor="end" font-size="14">INTRASTATE_lead_avg</text><line x1="637.30" y1="120" x2="656.14" y2="120" stroke="#000" stroke-width="2" /><line x1="637.30" y1="114" x2="637.30" y2="126" stroke="#000" stroke-width="2" /><line x1="656.14" y1="114" x2="656.14" y2="126" stroke="#000" stroke-width="2" /><circle cx="646.72" cy="120" r="6" fill="#8b0000" /><text x="656.72" y="112" font-size="12">0.611 +/- 0.123</text><text x="245" y="165" text-anchor="end" font-size="14">POISONING__bin_lead_avg</text><line x1="578.00" y1="160" x2="648.01" y2="160" stroke="#000" stroke-width="2" /><line x1="578.00" y1="154" x2="578.00" y2="166" stroke="#000" stroke-width="2" /><line x1="648.01" y1="154" x2="648.01" y2="166" stroke="#000" stroke-width="2" /><circle cx="613.00" cy="160" r="6" fill="#8b0000" /><text x="623.00" y="152" font-size="12">0.170 +/- 0.458</text><text x="245" y="205" text-anchor="end" font-size="14">TECHNOLOGICAL_lead_avg</text><line x1="610.93" y1="200" x2="614.62" y2="200" stroke="#000" stroke-width="2" /><line x1="610.93" y1="194" x2="610.93" y2="206" stroke="#000" stroke-width="2" /><line x1="614.62" y1="194" x2="614.62" y2="206" stroke="#000" stroke-width="2" /><circle cx="612.77" cy="200" r="6" fill="#8b0000" /><text x="622.77" y="192" font-size="12">0.167 +/- 0.024</text><text x="245" y="245" text-anchor="end" font-size="14">GEOPHYSICAL_lead_avg</text><line x1="606.26" y1="240" x2="616.15" y2="240" stroke="#000" stroke-width="2" /><line x1="606.26" y1="234" x2="606.26" y2="246" stroke="#000" stroke-width="2" /><line x1="616.15" y1="234" x2="616.15" y2="246" stroke="#000" stroke-width="2" /><circle cx="611.21" cy="240" r="6" fill="#8b0000" /><text x="621.21" y="232" font-size="12">0.147 +/- 0.065</text><text x="245" y="285" text-anchor="end" font-size="14">CLIMATIC_lead_avg</text><line x1="605.50" y1="280" x2="605.78" y2="280" stroke="#000" stroke-width="2" /><line x1="605.50" y1="274" x2="605.50" y2="286" stroke="#000" stroke-width="2" /><line x1="605.78" y1="274" x2="605.78" y2="286" stroke="#000" stroke-width="2" /><circle cx="605.64" cy="280" r="6" fill="#8b0000" /><text x="615.64" y="272" font-size="12">0.074 +/- 0.002</text><text x="245" y="325" text-anchor="end" font-size="14">ECONOMIC_lead_avg</text><line x1="599.68" y1="320" x2="601.05" y2="320" stroke="#000" stroke-width="2" /><line x1="599.68" y1="314" x2="599.68" y2="326" stroke="#000" stroke-width="2" /><line x1="601.05" y1="314" x2="601.05" y2="326" stroke="#000" stroke-width="2" /><circle cx="600.37" cy="320" r="6" fill="#8b0000" /><text x="610.37" y="312" font-size="12">0.005 +/- 0.009</text><text x="245" y="365" text-anchor="end" font-size="14">TERRORISM_lead_avg</text><line x1="600.09" y1="360" x2="600.18" y2="360" stroke="#000" stroke-width="2" /><line x1="600.09" y1="354" x2="600.09" y2="366" stroke="#000" stroke-width="2" /><line x1="600.18" y1="354" x2="600.18" y2="366" stroke="#000" stroke-width="2" /><circle cx="600.13" cy="360" r="6" fill="#8b0000" /><text x="610.13" y="352" font-size="12">0.002 +/- 0.001</text><text x="245" y="405" text-anchor="end" font-size="14">ECOLOGICAL__bin_lead_avg</text><line x1="457.05" y1="400" x2="461.98" y2="400" stroke="#000" stroke-width="2" /><line x1="457.05" y1="394" x2="457.05" y2="406" stroke="#000" stroke-width="2" /><line x1="461.98" y1="394" x2="461.98" y2="406" stroke="#000" stroke-width="2" /><circle cx="459.52" cy="400" r="6" fill="#8b0000" /><text x="469.52" y="392" font-size="12">-1.838 +/- 0.032</text>
</svg>
