
<svg xmlns='http://www.w3.org/2000/svg' width='900' height='480'>
    <style>
        text { font-family: Arial, sans-serif; }
    </style>
    <rect x='0' y='0' width='900' height='480' fill='white' stroke='black' stroke-width='1'/>
    <text x='450.0' y='30.0' text-anchor='middle' font-size='18'>Predictor importance (summed weights)</text>
    <text x='450.0' y='450.0' text-anchor='middle' font-size='14'>Summed Akaike weight</text>
    <text x="210" y="85" text-anchor="end" font-size="14">TECHNOLOGICAL_lag_avg</text><rect x="220" y="70" width="640.00" height="20" fill="#4682b4" /><text x="865.0" y="85" font-size="12">0.830</text><text x="210" y="125" text-anchor="end" font-size="14">CLIMATIC_lag_avg</text><rect x="220" y="110" width="458.01" height="20" fill="#4682b4" /><text x="683.0136858844526" y="125" font-size="12">0.594</text><text x="210" y="165" text-anchor="end" font-size="14">ECONOMIC_lag_avg</text><rect x="220" y="150" width="324.25" height="20" fill="#4682b4" /><text x="549.2474037834687" y="165" font-size="12">0.420</text><text x="210" y="205" text-anchor="end" font-size="14">INTERSTATE__bin_lag_avg</text><rect x="220" y="190" width="123.62" height="20" fill="#4682b4" /><text x="348.6175895858791" y="205" font-size="12">0.160</text><text x="210" y="245" text-anchor="end" font-size="14">POISONING__bin_lag_avg</text><rect x="220" y="230" width="80.69" height="20" fill="#4682b4" /><text x="305.68534938393077" y="245" font-size="12">0.105</text><text x="210" y="285" text-anchor="end" font-size="14">ECOLOGICAL__bin_lag_avg</text><rect x="220" y="270" width="63.71" height="20" fill="#4682b4" /><text x="288.70575299807825" y="285" font-size="12">0.083</text><text x="210" y="325" text-anchor="end" font-size="14">GEOPHYSICAL_lag_avg</text><rect x="220" y="310" width="45.49" height="20" fill="#4682b4" /><text x="270.49345906637177" y="325" font-size="12">0.059</text><text x="210" y="365" text-anchor="end" font-size="14">INTRASTATE_lag_avg</text><rect x="220" y="350" width="24.22" height="20" fill="#4682b4" /><text x="249.2224812004345" y="365" font-size="12">0.031</text><text x="210" y="405" text-anchor="end" font-size="14">TERRORISM_lag_avg</text><rect x="220" y="390" width="11.65" height="20" fill="#4682b4" /><text x="236.64843096087606" y="405" font-size="12">0.015</text>
</svg>
