
<svg xmlns='http://www.w3.org/2000/svg' width='900' height='920'>
    <style>
        text { font-family: Arial, sans-serif; }
    </style>
    <rect x='0' y='0' width='900' height='920' fill='white' stroke='black' stroke-width='1'/>
    <text x='450.0' y='30.0' text-anchor='middle' font-size='18'>Top models by AICc weight</text>
    <text x='450.0' y='890.0' text-anchor='middle' font-size='14'>Akaike weight</text>
    <text x="210" y="85" text-anchor="end" font-size="14">292a265bd3ea3a266c722ef5ab6eab2d</text><rect x="220" y="70" width="640.00" height="20" fill="#4682b4" /><text x="865.0" y="85" font-size="12">0.069</text><text x="210" y="125" text-anchor="end" font-size="14">292a265bd3ea3a266c722ef5ab6eab2d</text><rect x="220" y="110" width="640.00" height="20" fill="#4682b4" /><text x="865.0" y="125" font-size="12">0.069</text><text x="210" y="165" text-anchor="end" font-size="14">2a9d0a418fafec33802acb332bf774b0</text><rect x="220" y="150" width="499.48" height="20" fill="#4682b4" /><text x="724.483870967742" y="165" font-size="12">0.054</text><text x="210" y="205" text-anchor="end" font-size="14">2a9d0a418fafec33802acb332bf774b0</text><rect x="220" y="190" width="499.48" height="20" fill="#4682b4" /><text x="724.483870967742" y="205" font-size="12">0.054</text><text x="210" y="245" text-anchor="end" font-size="14">5fa56427c51ab014fecc6e637de64a30</text><rect x="220" y="230" width="375.70" height="20" fill="#4682b4" /><text x="600.6958525345622" y="245" font-size="12">0.041</text><text x="210" y="285" text-anchor="end" font-size="14">5fa56427c51ab014fecc6e637de64a30</text><rect x="220" y="270" width="375.70" height="20" fill="#4682b4" /><text x="600.6958525345622" y="285" font-size="12">0.041</text><text x="210" y="325" text-anchor="end" font-size="14">e67b57c6e86330d48a4e0692065b399c</text><rect x="220" y="310" width="253.68" height="20" fill="#4682b4" /><text x="478.6774193548387" y="325" font-size="12">0.028</text><text x="210" y="365" text-anchor="end" font-size="14">f18dd7384f2666970af7f353193038af</text><rect x="220" y="350" width="253.68" height="20" fill="#4682b4" /><text x="478.6774193548387" y="365" font-size="12">0.028</text><text x="210" y="405" text-anchor="end" font-size="14">e67b57c6e86330d48a4e0692065b399c</text><rect x="220" y="390" width="253.68" height="20" fill="#4682b4" /><text x="478.6774193548387" y="405" font-size="12">0.028</text><text x="210" y="445" text-anchor="end" font-size="14">f18dd7384f2666970af7f353193038af</text><rect x="220" y="430" width="253.68" height="20" fill="#4682b4" /><text x="478.6774193548387" y="445" font-size="12">0.028</text><text x="210" y="485" text-anchor="end" font-size="14">c0f19ae5cbf08ab7f6bbd4ff60b715b6</text><rect x="220" y="470" width="242.19" height="20" fill="#4682b4" /><text x="467.19354838709677" y="485" font-size="12">0.026</text><text x="210" y="525" text-anchor="end" font-size="14">a8bb576d00bb395810757e81fc9286ab</text><rect x="220" y="510" width="242.19" height="20" fill="#4682b4" /><text x="467.19354838709677" y="525" font-size="12">0.026</text><text x="210" y="565" text-anchor="end" font-size="14">c0f19ae5cbf08ab7f6bbd4ff60b715b6</text><rect x="220" y="550" width="242.19" height="20" fill="#4682b4" /><text x="467.19354838709677" y="565" font-size="12">0.026</text><text x="210" y="605" text-anchor="end" font-size="14">a8bb576d00bb395810757e81fc9286ab</text><rect x="220" y="590" width="242.19" height="20" fill="#4682b4" /><text x="467.19354838709677" y="605" font-size="12">0.026</text><text x="210" y="645" text-anchor="end" font-size="14">6514401a188183927cd07220d7bec4c7</text><rect x="220" y="630" width="126.52" height="20" fill="#4682b4" /><text x="351.51612903225805" y="645" font-size="12">0.014</text><text x="210" y="685" text-anchor="end" font-size="14">6514401a188183927cd07220d7bec4c7</text><rect x="220" y="670" width="126.52" height="20" fill="#4682b4" /><text x="351.51612903225805" y="685" font-size="12">0.014</text><text x="210" y="725" text-anchor="end" font-size="14">89d5ea1f8d9094870208e5348f3d06dc</text><rect x="220" y="710" width="92.46" height="20" fill="#4682b4" /><text x="317.46082949308754" y="725" font-size="12">0.010</text><text x="210" y="765" text-anchor="end" font-size="14">fb9e95ae314566126227032e40856c55</text><rect x="220" y="750" width="91.75" height="20" fill="#4682b4" /><text x="316.7511520737327" y="765" font-size="12">0.010</text><text x="210" y="805" text-anchor="end" font-size="14">fb9e95ae314566126227032e40856c55</text><rect x="220" y="790" width="91.75" height="20" fill="#4682b4" /><text x="316.7511520737327" y="805" font-size="12">0.010</text><text x="210" y="845" text-anchor="end" font-size="14">d3e195d088d33a7cc8c58c967eb487e7</text><rect x="220" y="830" width="91.03" height="20" fill="#4682b4" /><text x="316.0322580645161" y="845" font-size="12">0.010</text>
</svg>
