
<svg xmlns='http://www.w3.org/2000/svg' width='1000' height='660'>
    <style>
        text { font-family: Arial, sans-serif; }
    </style>
    <rect x='0' y='0' width='1000' height='660' fill='white' stroke='black' stroke-width='1'/>
    <line x1='600.00' y1='50' x2='600.00' y2='610' stroke='#666' stroke-width='1' stroke-dasharray='4 4' />
    <text x='500.0' y='30.0' text-anchor='middle' font-size='18'>Model-averaged fixed effects</text>
    <text x='500.0' y='630.0' text-anchor='middle' font-size='14'>Coefficient value</text>
    <text x="245" y="85" text-anchor="end" font-size="14">POISONING_lag_avg</text><line x1="800.89" y1="80" x2="889.88" y2="80" stroke="#000" stroke-width="2" /><line x1="800.89" y1="74" x2="800.89" y2="86" stroke="#000" stroke-width="2" /><line x1="889.88" y1="74" x2="889.88" y2="86" stroke="#000" stroke-width="2" /><circle cx="845.38" cy="80" r="6" fill="#8b0000" /><text x="855.38" y="72" font-size="12">1.654 +/- 0.300</text><text x="245" y="125" text-anchor="end" font-size="14">POISONING__bin_lag_avg</text><line x1="603.06" y1="120" x2="940.00" y2="120" stroke="#000" stroke-width="2" /><line x1="603.06" y1="114" x2="603.06" y2="126" stroke="#000" stroke-width="2" /><line x1="940.00" y1="114" x2="940.00" y2="126" stroke="#000" stroke-width="2" /><circle cx="771.53" cy="120" r="6" fill="#8b0000" /><text x="781.53" y="112" font-size="12">1.156 +/- 1.136</text><text x="245" y="165" text-anchor="end" font-size="14">ECOLOGICAL__bin_lag_avg</text><line x1="661.70" y1="160" x2="677.26" y2="160" stroke="#000" stroke-width="2" /><line x1="661.70" y1="154" x2="661.70" y2="166" stroke="#000" stroke-width="2" /><line x1="677.26" y1="154" x2="677.26" y2="166" stroke="#000" stroke-width="2" /><circle cx="669.48" cy="160" r="6" fill="#8b0000" /><text x="679.48" y="152" font-size="12">0.468 +/- 0.052</text><text x="245" y="205" text-anchor="end" font-size="14">ECOLOGICAL_lag_avg</text><line x1="649.50" y1="200" x2="672.32" y2="200" stroke="#000" stroke-width="2" /><line x1="649.50" y1="194" x2="649.50" y2="206" stroke="#000" stroke-width="2" /><line x1="672.32" y1="194" x2="672.32" y2="206" stroke="#000" stroke-width="2" /><circle cx="660.91" cy="200" r="6" fill="#8b0000" /><text x="670.91" y="192" font-size="12">0.411 +/- 0.077</text><text x="245" y="245" text-anchor="end" font-size="14">ECONOMIC_lag_avg</text><line x1="630.14" y1="240" x2="632.94" y2="240" stroke="#000" stroke-width="2" /><line x1="630.14" y1="234" x2="630.14" y2="246" stroke="#000" stroke-width="2" /><line x1="632.94" y1="234" x2="632.94" y2="246" stroke="#000" stroke-width="2" /><circle cx="631.54" cy="240" r="6" fill="#8b0000" /><text x="641.54" y="232" font-size="12">0.213 +/- 0.009</text><text x="245" y="285" text-anchor="end" font-size="14">GEOPHYSICAL_lag_avg</text><line x1="604.09" y1="280" x2="630.63" y2="280" stroke="#000" stroke-width="2" /><line x1="604.09" y1="274" x2="604.09" y2="286" stroke="#000" stroke-width="2" /><line x1="630.63" y1="274" x2="630.63" y2="286" stroke="#000" stroke-width="2" /><circle cx="617.36" cy="280" r="6" fill="#8b0000" /><text x="627.36" y="272" font-size="12">0.117 +/- 0.089</text><text x="245" y="325" text-anchor="end" font-size="14">CLIMATIC_lag_avg</text><line x1="607.70" y1="320" x2="614.14" y2="320" stroke="#000" stroke-width="2" /><line x1="607.70" y1="314" x2="607.70" y2="326" stroke="#000" stroke-width="2" /><line x1="614.14" y1="314" x2="614.14" y2="326" stroke="#000" stroke-width="2" /><circle cx="610.92" cy="320" r="6" fill="#8b0000" /><text x="620.92" y="312" font-size="12">0.074 +/- 0.022</text><text x="245" y="365" text-anchor="end" font-size="14">TECHNOLOGICAL_lag_avg</text><line x1="608.71" y1="360" x2="612.79" y2="360" stroke="#000" stroke-width="2" /><line x1="608.71" y1="354" x2="608.71" y2="366" stroke="#000" stroke-width="2" /><line x1="612.79" y1="354" x2="612.79" y2="366" stroke="#000" stroke-width="2" /><circle cx="610.75" cy="360" r="6" fill="#8b0000" /><text x="620.75" y="352" font-size="12">0.072 +/- 0.014</text><text x="245" y="405" text-anchor="end" font-size="14">INTRASTATE_lag_avg</text><line x1="604.89" y1="400" x2="611.54" y2="400" stroke="#000" stroke-width="2" /><line x1="604.89" y1="394" x2="604.89" y2="406" stroke="#000" stroke-width="2" /><line x1="611.54" y1="394" x2="611.54" y2="406" stroke="#000" stroke-width="2" /><circle cx="608.21" cy="400" r="6" fill="#8b0000" /><text x="618.21" y="392" font-size="12">0.055 +/- 0.022</text><text x="245" y="445" text-anchor="end" font-size="14">TERRORISM_lag_avg</text><line x1="599.91" y1="440" x2="599.94" y2="440" stroke="#000" stroke-width="2" /><line x1="599.91" y1="434" x2="599.91" y2="446" stroke="#000" stroke-width="2" /><line x1="599.94" y1="434" x2="599.94" y2="446" stroke="#000" stroke-width="2" /><circle cx="599.92" cy="440" r="6" fill="#8b0000" /><text x="609.92" y="432" font-size="12">-0.001 +/- 0.000</text><text x="245" y="485" text-anchor="end" font-size="14">GEOPHYSICAL__bin_lag_avg</text><line x1="542.04" y1="480" x2="611.10" y2="480" stroke="#000" stroke-width="2" /><line x1="542.04" y1="474" x2="542.04" y2="486" stroke="#000" stroke-width="2" /><line x1="611.10" y1="474" x2="611.10" y2="486" stroke="#000" stroke-width="2" /><circle cx="576.57" cy="480" r="6" fill="#8b0000" /><text x="586.57" y="472" font-size="12">-0.158 +/- 0.233</text><text x="245" y="525" text-anchor="end" font-size="14">INTERSTATE__bin_lag_avg</text><line x1="449.60" y1="520" x2="494.61" y2="520" stroke="#000" stroke-width="2" /><line x1="449.60" y1="514" x2="449.60" y2="526" stroke="#000" stroke-width="2" /><line x1="494.61" y1="514" x2="494.61" y2="526" stroke="#000" stroke-width="2" /><circle cx="472.11" cy="520" r="6" fill="#8b0000" /><text x="482.11" y="512" font-size="12">-0.862 +/- 0.152</text><text x="245" y="565" text-anchor="end" font-size="14">INTERSTATE_lag_avg</text><line x1="450.92" y1="560" x2="488.08" y2="560" stroke="#000" stroke-width="2" /><line x1="450.92" y1="554" x2="450.92" y2="566" stroke="#000" stroke-width="2" /><line x1="488.08" y1="554" x2="488.08" y2="566" stroke="#000" stroke-width="2" /><circle cx="469.50" cy="560" r="6" fill="#8b0000" /><text x="479.50" y="552" font-size="12">-0.880 +/- 0.125</text>
</svg>
