
<svg xmlns='http://www.w3.org/2000/svg' width='900' height='480'>
    <style>
        text { font-family: Arial, sans-serif; }
    </style>
    <rect x='0' y='0' width='900' height='480' fill='white' stroke='black' stroke-width='1'/>
    <text x='450.0' y='30.0' text-anchor='middle' font-size='18'>Predictor importance (summed weights)</text>
    <text x='450.0' y='450.0' text-anchor='middle' font-size='14'>Summed Akaike weight</text>
    <text x="210" y="85" text-anchor="end" font-size="14">Climatic Lead Avg</text><rect x="220" y="70" width="640.00" height="20" fill="#4682b4" /><text x="865.0" y="85" font-size="12">0.998</text><text x="210" y="125" text-anchor="end" font-size="14">Ecological Lead Avg</text><rect x="220" y="110" width="345.38" height="20" fill="#4682b4" /><text x="570.3760159344256" y="125" font-size="12">0.539</text><text x="210" y="165" text-anchor="end" font-size="14">Economic Lead Avg</text><rect x="220" y="150" width="49.67" height="20" fill="#4682b4" /><text x="274.67406486182654" y="165" font-size="12">0.077</text><text x="210" y="205" text-anchor="end" font-size="14">Geophysical Lead Avg</text><rect x="220" y="190" width="19.39" height="20" fill="#4682b4" /><text x="244.38516989711752" y="205" font-size="12">0.030</text><text x="210" y="245" text-anchor="end" font-size="14">Interstate Lead Avg</text><rect x="220" y="230" width="14.65" height="20" fill="#4682b4" /><text x="239.64834074034547" y="245" font-size="12">0.023</text><text x="210" y="285" text-anchor="end" font-size="14">Intrastate Lead Avg</text><rect x="220" y="270" width="3.22" height="20" fill="#4682b4" /><text x="228.2177328320895" y="285" font-size="12">0.005</text><text x="210" y="325" text-anchor="end" font-size="14">Poisoning Lead Avg</text><rect x="220" y="310" width="1.53" height="20" fill="#4682b4" /><text x="226.5261696552884" y="325" font-size="12">0.002</text><text x="210" y="365" text-anchor="end" font-size="14">Technological Lead Avg</text><rect x="220" y="350" width="0.44" height="20" fill="#4682b4" /><text x="225.44058523616945" y="365" font-size="12">0.001</text><text x="210" y="405" text-anchor="end" font-size="14">Terrorism Lead Avg</text><rect x="220" y="390" width="0.20" height="20" fill="#4682b4" /><text x="225.19521677128043" y="405" font-size="12">0.000</text>
</svg>
