
<svg xmlns='http://www.w3.org/2000/svg' width='1000' height='500'>
    <style>
        text { font-family: Arial, sans-serif; }
    </style>
    <rect x='0' y='0' width='1000' height='500' fill='white' stroke='black' stroke-width='1'/>
    <line x1='600.00' y1='50' x2='600.00' y2='450' stroke='#666' stroke-width='1' stroke-dasharray='4 4' />
    <text x='500.0' y='30.0' text-anchor='middle' font-size='18'>Model-averaged fixed effects</text>
    <text x='500.0' y='470.0' text-anchor='middle' font-size='14'>Coefficient value</text>
    <text x="245" y="85" text-anchor="end" font-size="14">INTERSTATE__bin_lead_avg</text><line x1="716.66" y1="80" x2="722.57" y2="80" stroke="#000" stroke-width="2" /><line x1="716.66" y1="74" x2="716.66" y2="86" stroke="#000" stroke-width="2" /><line x1="722.57" y1="74" x2="722.57" y2="86" stroke="#000" stroke-width="2" /><circle cx="719.62" cy="80" r="6" fill="#8b0000" /><text x="729.62" y="72" font-size="12">0.499 +/- 0.012</text><text x="245" y="125" text-anchor="end" font-size="14">CLIMATIC_lead_avg</text><line x1="626.57" y1="120" x2="627.48" y2="120" stroke="#000" stroke-width="2" /><line x1="626.57" y1="114" x2="626.57" y2="126" stroke="#000" stroke-width="2" /><line x1="627.48" y1="114" x2="627.48" y2="126" stroke="#000" stroke-width="2" /><circle cx="627.02" cy="120" r="6" fill="#8b0000" /><text x="637.02" y="112" font-size="12">0.113 +/- 0.002</text><text x="245" y="165" text-anchor="end" font-size="14">ECONOMIC_lead_avg</text><line x1="612.11" y1="160" x2="615.17" y2="160" stroke="#000" stroke-width="2" /><line x1="612.11" y1="154" x2="612.11" y2="166" stroke="#000" stroke-width="2" /><line x1="615.17" y1="154" x2="615.17" y2="166" stroke="#000" stroke-width="2" /><circle cx="613.64" cy="160" r="6" fill="#8b0000" /><text x="623.64" y="152" font-size="12">0.057 +/- 0.006</text><text x="245" y="205" text-anchor="end" font-size="14">GEOPHYSICAL_lead_avg</text><line x1="592.19" y1="200" x2="618.17" y2="200" stroke="#000" stroke-width="2" /><line x1="592.19" y1="194" x2="592.19" y2="206" stroke="#000" stroke-width="2" /><line x1="618.17" y1="194" x2="618.17" y2="206" stroke="#000" stroke-width="2" /><circle cx="605.18" cy="200" r="6" fill="#8b0000" /><text x="615.18" y="192" font-size="12">0.022 +/- 0.054</text><text x="245" y="245" text-anchor="end" font-size="14">TERRORISM_lead_avg</text><line x1="600.02" y1="240" x2="600.03" y2="240" stroke="#000" stroke-width="2" /><line x1="600.02" y1="234" x2="600.02" y2="246" stroke="#000" stroke-width="2" /><line x1="600.03" y1="234" x2="600.03" y2="246" stroke="#000" stroke-width="2" /><circle cx="600.02" cy="240" r="6" fill="#8b0000" /><text x="610.02" y="232" font-size="12">0.000 +/- 0.000</text><text x="245" y="285" text-anchor="end" font-size="14">TECHNOLOGICAL_lead_avg</text><line x1="595.83" y1="280" x2="600.10" y2="280" stroke="#000" stroke-width="2" /><line x1="595.83" y1="274" x2="595.83" y2="286" stroke="#000" stroke-width="2" /><line x1="600.10" y1="274" x2="600.10" y2="286" stroke="#000" stroke-width="2" /><circle cx="597.97" cy="280" r="6" fill="#8b0000" /><text x="607.97" y="272" font-size="12">-0.008 +/- 0.009</text><text x="245" y="325" text-anchor="end" font-size="14">INTRASTATE_lead_avg</text><line x1="587.16" y1="320" x2="593.27" y2="320" stroke="#000" stroke-width="2" /><line x1="587.16" y1="314" x2="587.16" y2="326" stroke="#000" stroke-width="2" /><line x1="593.27" y1="314" x2="593.27" y2="326" stroke="#000" stroke-width="2" /><circle cx="590.21" cy="320" r="6" fill="#8b0000" /><text x="600.21" y="312" font-size="12">-0.041 +/- 0.013</text><text x="245" y="365" text-anchor="end" font-size="14">POISONING__bin_lead_avg</text><line x1="513.54" y1="360" x2="629.62" y2="360" stroke="#000" stroke-width="2" /><line x1="513.54" y1="354" x2="513.54" y2="366" stroke="#000" stroke-width="2" /><line x1="629.62" y1="354" x2="629.62" y2="366" stroke="#000" stroke-width="2" /><circle cx="571.58" cy="360" r="6" fill="#8b0000" /><text x="581.58" y="352" font-size="12">-0.119 +/- 0.242</text><text x="245" y="405" text-anchor="end" font-size="14">ECOLOGICAL__bin_lead_avg</text><line x1="260.00" y1="400" x2="341.11" y2="400" stroke="#000" stroke-width="2" /><line x1="260.00" y1="394" x2="260.00" y2="406" stroke="#000" stroke-width="2" /><line x1="341.11" y1="394" x2="341.11" y2="406" stroke="#000" stroke-width="2" /><circle cx="300.56" cy="400" r="6" fill="#8b0000" /><text x="310.56" y="392" font-size="12">-1.250 +/- 0.169</text>
</svg>
