
<svg xmlns='http://www.w3.org/2000/svg' width='900' height='640'>
    <style>
        text { font-family: Arial, sans-serif; }
    </style>
    <rect x='0' y='0' width='900' height='640' fill='white' stroke='black' stroke-width='1'/>
    <text x='450.0' y='30.0' text-anchor='middle' font-size='18'>Predictor importance (summed weights)</text>
    <text x='450.0' y='610.0' text-anchor='middle' font-size='14'>Summed Akaike weight</text>
    <text x="210" y="85" text-anchor="end" font-size="14">CLIMATIC</text><rect x="220" y="70" width="640.00" height="20" fill="#4682b4" /><text x="865.0" y="85" font-size="12">0.827</text><text x="210" y="125" text-anchor="end" font-size="14">ECOLOGICAL</text><rect x="220" y="110" width="317.07" height="20" fill="#4682b4" /><text x="542.0692788481647" y="125" font-size="12">0.410</text><text x="210" y="165" text-anchor="end" font-size="14">ECOLOGICAL__bin</text><rect x="220" y="150" width="228.65" height="20" fill="#4682b4" /><text x="453.64978264253705" y="165" font-size="12">0.295</text><text x="210" y="205" text-anchor="end" font-size="14">ECONOMIC</text><rect x="220" y="190" width="115.46" height="20" fill="#4682b4" /><text x="340.46212729704195" y="205" font-size="12">0.149</text><text x="210" y="245" text-anchor="end" font-size="14">GEOPHYSICAL</text><rect x="220" y="230" width="81.65" height="20" fill="#4682b4" /><text x="306.65411937325814" y="245" font-size="12">0.105</text><text x="210" y="285" text-anchor="end" font-size="14">GEOPHYSICAL__bin</text><rect x="220" y="270" width="66.56" height="20" fill="#4682b4" /><text x="291.55747884821363" y="285" font-size="12">0.086</text><text x="210" y="325" text-anchor="end" font-size="14">INTERSTATE</text><rect x="220" y="310" width="38.88" height="20" fill="#4682b4" /><text x="263.8847610671873" y="325" font-size="12">0.050</text><text x="210" y="365" text-anchor="end" font-size="14">INTERSTATE__bin</text><rect x="220" y="350" width="23.37" height="20" fill="#4682b4" /><text x="248.36546955363477" y="365" font-size="12">0.030</text><text x="210" y="405" text-anchor="end" font-size="14">TECHNOLOGICAL</text><rect x="220" y="390" width="11.66" height="20" fill="#4682b4" /><text x="236.65944260971753" y="405" font-size="12">0.015</text><text x="210" y="445" text-anchor="end" font-size="14">INTRASTATE</text><rect x="220" y="430" width="11.29" height="20" fill="#4682b4" /><text x="236.29081028875038" y="445" font-size="12">0.015</text><text x="210" y="485" text-anchor="end" font-size="14">POISONING</text><rect x="220" y="470" width="5.78" height="20" fill="#4682b4" /><text x="230.78302902162872" y="485" font-size="12">0.007</text><text x="210" y="525" text-anchor="end" font-size="14">POISONING__bin</text><rect x="220" y="510" width="3.47" height="20" fill="#4682b4" /><text x="228.46650550112136" y="525" font-size="12">0.004</text><text x="210" y="565" text-anchor="end" font-size="14">TERRORISM</text><rect x="220" y="550" width="1.52" height="20" fill="#4682b4" /><text x="226.5217256602936" y="565" font-size="12">0.002</text>
</svg>
