
<svg xmlns='http://www.w3.org/2000/svg' width='900' height='920'>
    <style>
        text { font-family: Arial, sans-serif; }
    </style>
    <rect x='0' y='0' width='900' height='920' fill='white' stroke='black' stroke-width='1'/>
    <text x='450.0' y='30.0' text-anchor='middle' font-size='18'>Top models by AICc weight</text>
    <text x='450.0' y='890.0' text-anchor='middle' font-size='14'>Akaike weight</text>
    <text x="210" y="85" text-anchor="end" font-size="14">73da7f537814038ead10c648508d64e5</text><rect x="220" y="70" width="640.00" height="20" fill="#4682b4" /><text x="865.0" y="85" font-size="12">0.002</text><text x="210" y="125" text-anchor="end" font-size="14">73da7f537814038ead10c648508d64e5</text><rect x="220" y="110" width="640.00" height="20" fill="#4682b4" /><text x="865.0" y="125" font-size="12">0.002</text><text x="210" y="165" text-anchor="end" font-size="14">0170b0bea6e638cd664f6447a43c7ee1</text><rect x="220" y="150" width="510.05" height="20" fill="#4682b4" /><text x="735.05291005291" y="165" font-size="12">0.001</text><text x="210" y="205" text-anchor="end" font-size="14">7f435d37ace1ae9be28d5cc0aa77c806</text><rect x="220" y="190" width="426.67" height="20" fill="#4682b4" /><text x="651.6666666666667" y="205" font-size="12">0.001</text><text x="210" y="245" text-anchor="end" font-size="14">D9606d2ba094fffbd6979694bdc21485</text><rect x="220" y="230" width="311.96" height="20" fill="#4682b4" /><text x="536.9576719576719" y="245" font-size="12">0.001</text><text x="210" y="285" text-anchor="end" font-size="14">D9606d2ba094fffbd6979694bdc21485</text><rect x="220" y="270" width="311.96" height="20" fill="#4682b4" /><text x="536.9576719576719" y="285" font-size="12">0.001</text><text x="210" y="325" text-anchor="end" font-size="14">B4a03e01474cad60bc86dfd0a63dc253</text><rect x="220" y="310" width="302.22" height="20" fill="#4682b4" /><text x="527.2222222222222" y="325" font-size="12">0.001</text><text x="210" y="365" text-anchor="end" font-size="14">B4a03e01474cad60bc86dfd0a63dc253</text><rect x="220" y="350" width="302.22" height="20" fill="#4682b4" /><text x="527.2222222222222" y="365" font-size="12">0.001</text><text x="210" y="405" text-anchor="end" font-size="14">14bf160cfa17defebe42355b00b04ec3</text><rect x="220" y="390" width="270.90" height="20" fill="#4682b4" /><text x="495.89947089947094" y="405" font-size="12">0.001</text><text x="210" y="445" text-anchor="end" font-size="14">E320de60391ac4efedb29c4f036e1d33</text><rect x="220" y="430" width="255.24" height="20" fill="#4682b4" /><text x="480.23809523809524" y="445" font-size="12">0.001</text><text x="210" y="485" text-anchor="end" font-size="14">E320de60391ac4efedb29c4f036e1d33</text><rect x="220" y="470" width="255.24" height="20" fill="#4682b4" /><text x="480.23809523809524" y="485" font-size="12">0.001</text><text x="210" y="525" text-anchor="end" font-size="14">E320de60391ac4efedb29c4f036e1d33</text><rect x="220" y="510" width="255.24" height="20" fill="#4682b4" /><text x="480.23809523809524" y="525" font-size="12">0.001</text><text x="210" y="565" text-anchor="end" font-size="14">E320de60391ac4efedb29c4f036e1d33</text><rect x="220" y="550" width="255.24" height="20" fill="#4682b4" /><text x="480.23809523809524" y="565" font-size="12">0.001</text><text x="210" y="605" text-anchor="end" font-size="14">E320de60391ac4efedb29c4f036e1d33</text><rect x="220" y="590" width="255.24" height="20" fill="#4682b4" /><text x="480.23809523809524" y="605" font-size="12">0.001</text><text x="210" y="645" text-anchor="end" font-size="14">E320de60391ac4efedb29c4f036e1d33</text><rect x="220" y="630" width="255.24" height="20" fill="#4682b4" /><text x="480.23809523809524" y="645" font-size="12">0.001</text><text x="210" y="685" text-anchor="end" font-size="14">E320de60391ac4efedb29c4f036e1d33</text><rect x="220" y="670" width="255.24" height="20" fill="#4682b4" /><text x="480.23809523809524" y="685" font-size="12">0.001</text><text x="210" y="725" text-anchor="end" font-size="14">E320de60391ac4efedb29c4f036e1d33</text><rect x="220" y="710" width="255.24" height="20" fill="#4682b4" /><text x="480.23809523809524" y="725" font-size="12">0.001</text><text x="210" y="765" text-anchor="end" font-size="14">E320de60391ac4efedb29c4f036e1d33</text><rect x="220" y="750" width="255.24" height="20" fill="#4682b4" /><text x="480.23809523809524" y="765" font-size="12">0.001</text><text x="210" y="805" text-anchor="end" font-size="14">E320de60391ac4efedb29c4f036e1d33</text><rect x="220" y="790" width="255.24" height="20" fill="#4682b4" /><text x="480.23809523809524" y="805" font-size="12">0.001</text><text x="210" y="845" text-anchor="end" font-size="14">E320de60391ac4efedb29c4f036e1d33</text><rect x="220" y="830" width="255.24" height="20" fill="#4682b4" /><text x="480.23809523809524" y="845" font-size="12">0.001</text>
</svg>
