
<svg xmlns='http://www.w3.org/2000/svg' width='1000' height='500'>
    <style>
        text { font-family: Arial, sans-serif; }
    </style>
    <rect x='0' y='0' width='1000' height='500' fill='white' stroke='black' stroke-width='1'/>
    <line x1='600.00' y1='50' x2='600.00' y2='450' stroke='#666' stroke-width='1' stroke-dasharray='4 4' />
    <text x='500.0' y='30.0' text-anchor='middle' font-size='18'>Model-averaged fixed effects</text>
    <text x='500.0' y='470.0' text-anchor='middle' font-size='14'>Coefficient value</text>
    <text x="245" y="85" text-anchor="end" font-size="14">Poisoning</text><line x1="406.05" y1="80" x2="938.05" y2="80" stroke="#000" stroke-width="2" /><line x1="406.05" y1="74" x2="406.05" y2="86" stroke="#000" stroke-width="2" /><line x1="938.05" y1="74" x2="938.05" y2="86" stroke="#000" stroke-width="2" /><circle cx="672.05" cy="80" r="6" fill="#8b0000" /><text x="682.05" y="72" font-size="12">0.929 +/- 3.428</text><text x="245" y="125" text-anchor="end" font-size="14">Interstate</text><line x1="629.68" y1="120" x2="653.36" y2="120" stroke="#000" stroke-width="2" /><line x1="629.68" y1="114" x2="629.68" y2="126" stroke="#000" stroke-width="2" /><line x1="653.36" y1="114" x2="653.36" y2="126" stroke="#000" stroke-width="2" /><circle cx="641.52" cy="120" r="6" fill="#8b0000" /><text x="651.52" y="112" font-size="12">0.535 +/- 0.153</text><text x="245" y="165" text-anchor="end" font-size="14">Ecological</text><line x1="309.65" y1="160" x2="940.00" y2="160" stroke="#000" stroke-width="2" /><line x1="309.65" y1="154" x2="309.65" y2="166" stroke="#000" stroke-width="2" /><line x1="940.00" y1="154" x2="940.00" y2="166" stroke="#000" stroke-width="2" /><circle cx="624.82" cy="160" r="6" fill="#8b0000" /><text x="634.82" y="152" font-size="12">0.320 +/- 4.062</text><text x="245" y="205" text-anchor="end" font-size="14">Climatic</text><line x1="610.29" y1="200" x2="610.80" y2="200" stroke="#000" stroke-width="2" /><line x1="610.29" y1="194" x2="610.29" y2="206" stroke="#000" stroke-width="2" /><line x1="610.80" y1="194" x2="610.80" y2="206" stroke="#000" stroke-width="2" /><circle cx="610.54" cy="200" r="6" fill="#8b0000" /><text x="620.54" y="192" font-size="12">0.136 +/- 0.003</text><text x="245" y="245" text-anchor="end" font-size="14">Technological</text><line x1="609.18" y1="240" x2="611.60" y2="240" stroke="#000" stroke-width="2" /><line x1="609.18" y1="234" x2="609.18" y2="246" stroke="#000" stroke-width="2" /><line x1="611.60" y1="234" x2="611.60" y2="246" stroke="#000" stroke-width="2" /><circle cx="610.39" cy="240" r="6" fill="#8b0000" /><text x="620.39" y="232" font-size="12">0.134 +/- 0.016</text><text x="245" y="285" text-anchor="end" font-size="14">Intrastate</text><line x1="607.99" y1="280" x2="611.18" y2="280" stroke="#000" stroke-width="2" /><line x1="607.99" y1="274" x2="607.99" y2="286" stroke="#000" stroke-width="2" /><line x1="611.18" y1="274" x2="611.18" y2="286" stroke="#000" stroke-width="2" /><circle cx="609.58" cy="280" r="6" fill="#8b0000" /><text x="619.58" y="272" font-size="12">0.123 +/- 0.021</text><text x="245" y="325" text-anchor="end" font-size="14">Terrorism</text><line x1="600.14" y1="320" x2="600.29" y2="320" stroke="#000" stroke-width="2" /><line x1="600.14" y1="314" x2="600.14" y2="326" stroke="#000" stroke-width="2" /><line x1="600.29" y1="314" x2="600.29" y2="326" stroke="#000" stroke-width="2" /><circle cx="600.22" cy="320" r="6" fill="#8b0000" /><text x="610.22" y="312" font-size="12">0.003 +/- 0.001</text><text x="245" y="365" text-anchor="end" font-size="14">Geophysical</text><line x1="576.20" y1="360" x2="621.00" y2="360" stroke="#000" stroke-width="2" /><line x1="576.20" y1="354" x2="576.20" y2="366" stroke="#000" stroke-width="2" /><line x1="621.00" y1="354" x2="621.00" y2="366" stroke="#000" stroke-width="2" /><circle cx="598.60" cy="360" r="6" fill="#8b0000" /><text x="608.60" y="352" font-size="12">-0.018 +/- 0.289</text><text x="245" y="405" text-anchor="end" font-size="14">Economic</text><line x1="595.74" y1="400" x2="596.30" y2="400" stroke="#000" stroke-width="2" /><line x1="595.74" y1="394" x2="595.74" y2="406" stroke="#000" stroke-width="2" /><line x1="596.30" y1="394" x2="596.30" y2="406" stroke="#000" stroke-width="2" /><circle cx="596.02" cy="400" r="6" fill="#8b0000" /><text x="606.02" y="392" font-size="12">-0.051 +/- 0.004</text>
</svg>
