
<svg xmlns='http://www.w3.org/2000/svg' width='1000' height='660'>
    <style>
        text { font-family: Arial, sans-serif; }
    </style>
    <rect x='0' y='0' width='1000' height='660' fill='white' stroke='black' stroke-width='1'/>
    <line x1='600.00' y1='50' x2='600.00' y2='610' stroke='#666' stroke-width='1' stroke-dasharray='4 4' />
    <text x='500.0' y='30.0' text-anchor='middle' font-size='18'>Model-averaged fixed effects</text>
    <text x='500.0' y='630.0' text-anchor='middle' font-size='14'>Coefficient value</text>
    <text x="245" y="85" text-anchor="end" font-size="14">POISONING__bin</text><line x1="429.48" y1="80" x2="897.21" y2="80" stroke="#000" stroke-width="2" /><line x1="429.48" y1="74" x2="429.48" y2="86" stroke="#000" stroke-width="2" /><line x1="897.21" y1="74" x2="897.21" y2="86" stroke="#000" stroke-width="2" /><circle cx="663.34" cy="80" r="6" fill="#8b0000" /><text x="673.34" y="72" font-size="12">0.929 +/- 3.428</text><text x="245" y="125" text-anchor="end" font-size="14">INTERSTATE__bin</text><line x1="626.09" y1="120" x2="646.91" y2="120" stroke="#000" stroke-width="2" /><line x1="626.09" y1="114" x2="626.09" y2="126" stroke="#000" stroke-width="2" /><line x1="646.91" y1="114" x2="646.91" y2="126" stroke="#000" stroke-width="2" /><circle cx="636.50" cy="120" r="6" fill="#8b0000" /><text x="646.50" y="112" font-size="12">0.535 +/- 0.153</text><text x="245" y="165" text-anchor="end" font-size="14">INTERSTATE</text><line x1="625.57" y1="160" x2="646.56" y2="160" stroke="#000" stroke-width="2" /><line x1="625.57" y1="154" x2="625.57" y2="166" stroke="#000" stroke-width="2" /><line x1="646.56" y1="154" x2="646.56" y2="166" stroke="#000" stroke-width="2" /><circle cx="636.07" cy="160" r="6" fill="#8b0000" /><text x="646.07" y="152" font-size="12">0.529 +/- 0.154</text><text x="245" y="205" text-anchor="end" font-size="14">GEOPHYSICAL__bin</text><line x1="603.83" y1="200" x2="651.40" y2="200" stroke="#000" stroke-width="2" /><line x1="603.83" y1="194" x2="603.83" y2="206" stroke="#000" stroke-width="2" /><line x1="651.40" y1="194" x2="651.40" y2="206" stroke="#000" stroke-width="2" /><circle cx="627.62" cy="200" r="6" fill="#8b0000" /><text x="637.62" y="192" font-size="12">0.405 +/- 0.349</text><text x="245" y="245" text-anchor="end" font-size="14">ECOLOGICAL__bin</text><line x1="344.73" y1="240" x2="898.92" y2="240" stroke="#000" stroke-width="2" /><line x1="344.73" y1="234" x2="344.73" y2="246" stroke="#000" stroke-width="2" /><line x1="898.92" y1="234" x2="898.92" y2="246" stroke="#000" stroke-width="2" /><circle cx="621.82" cy="240" r="6" fill="#8b0000" /><text x="631.82" y="232" font-size="12">0.320 +/- 4.062</text><text x="245" y="285" text-anchor="end" font-size="14">CLIMATIC</text><line x1="609.05" y1="280" x2="609.49" y2="280" stroke="#000" stroke-width="2" /><line x1="609.05" y1="274" x2="609.05" y2="286" stroke="#000" stroke-width="2" /><line x1="609.49" y1="274" x2="609.49" y2="286" stroke="#000" stroke-width="2" /><circle cx="609.27" cy="280" r="6" fill="#8b0000" /><text x="619.27" y="272" font-size="12">0.136 +/- 0.003</text><text x="245" y="325" text-anchor="end" font-size="14">TECHNOLOGICAL</text><line x1="608.07" y1="320" x2="610.20" y2="320" stroke="#000" stroke-width="2" /><line x1="608.07" y1="314" x2="608.07" y2="326" stroke="#000" stroke-width="2" /><line x1="610.20" y1="314" x2="610.20" y2="326" stroke="#000" stroke-width="2" /><circle cx="609.14" cy="320" r="6" fill="#8b0000" /><text x="619.14" y="312" font-size="12">0.134 +/- 0.016</text><text x="245" y="365" text-anchor="end" font-size="14">INTRASTATE</text><line x1="607.02" y1="360" x2="609.83" y2="360" stroke="#000" stroke-width="2" /><line x1="607.02" y1="354" x2="607.02" y2="366" stroke="#000" stroke-width="2" /><line x1="609.83" y1="354" x2="609.83" y2="366" stroke="#000" stroke-width="2" /><circle cx="608.42" cy="360" r="6" fill="#8b0000" /><text x="618.42" y="352" font-size="12">0.123 +/- 0.021</text><text x="245" y="405" text-anchor="end" font-size="14">TERRORISM</text><line x1="600.13" y1="400" x2="600.25" y2="400" stroke="#000" stroke-width="2" /><line x1="600.13" y1="394" x2="600.13" y2="406" stroke="#000" stroke-width="2" /><line x1="600.25" y1="394" x2="600.25" y2="406" stroke="#000" stroke-width="2" /><circle cx="600.19" cy="400" r="6" fill="#8b0000" /><text x="610.19" y="392" font-size="12">0.003 +/- 0.001</text><text x="245" y="445" text-anchor="end" font-size="14">GEOPHYSICAL</text><line x1="579.08" y1="440" x2="618.46" y2="440" stroke="#000" stroke-width="2" /><line x1="579.08" y1="434" x2="579.08" y2="446" stroke="#000" stroke-width="2" /><line x1="618.46" y1="434" x2="618.46" y2="446" stroke="#000" stroke-width="2" /><circle cx="598.77" cy="440" r="6" fill="#8b0000" /><text x="608.77" y="432" font-size="12">-0.018 +/- 0.289</text><text x="245" y="485" text-anchor="end" font-size="14">ECONOMIC</text><line x1="596.26" y1="480" x2="596.75" y2="480" stroke="#000" stroke-width="2" /><line x1="596.26" y1="474" x2="596.26" y2="486" stroke="#000" stroke-width="2" /><line x1="596.75" y1="474" x2="596.75" y2="486" stroke="#000" stroke-width="2" /><circle cx="596.50" cy="480" r="6" fill="#8b0000" /><text x="606.50" y="472" font-size="12">-0.051 +/- 0.004</text><text x="245" y="525" text-anchor="end" font-size="14">POISONING</text><line x1="391.81" y1="520" x2="756.76" y2="520" stroke="#000" stroke-width="2" /><line x1="391.81" y1="514" x2="391.81" y2="526" stroke="#000" stroke-width="2" /><line x1="756.76" y1="514" x2="756.76" y2="526" stroke="#000" stroke-width="2" /><circle cx="574.28" cy="520" r="6" fill="#8b0000" /><text x="584.28" y="512" font-size="12">-0.377 +/- 2.675</text><text x="245" y="565" text-anchor="end" font-size="14">ECOLOGICAL</text><line x1="260.00" y1="560" x2="703.43" y2="560" stroke="#000" stroke-width="2" /><line x1="260.00" y1="554" x2="260.00" y2="566" stroke="#000" stroke-width="2" /><line x1="703.43" y1="554" x2="703.43" y2="566" stroke="#000" stroke-width="2" /><circle cx="481.71" cy="560" r="6" fill="#8b0000" /><text x="491.71" y="552" font-size="12">-1.734 +/- 3.250</text>
</svg>
