
<svg xmlns='http://www.w3.org/2000/svg' width='900' height='480'>
    <style>
        text { font-family: Arial, sans-serif; }
    </style>
    <rect x='0' y='0' width='900' height='480' fill='white' stroke='black' stroke-width='1'/>
    <text x='450.0' y='30.0' text-anchor='middle' font-size='18'>Predictor importance (summed weights)</text>
    <text x='450.0' y='450.0' text-anchor='middle' font-size='14'>Summed Akaike weight</text>
    <text x="210" y="85" text-anchor="end" font-size="14">CLIMATIC_lead_avg</text><rect x="220" y="70" width="640.00" height="20" fill="#4682b4" /><text x="865.0" y="85" font-size="12">1.000</text><text x="210" y="125" text-anchor="end" font-size="14">ECONOMIC_lead_avg</text><rect x="220" y="110" width="589.47" height="20" fill="#4682b4" /><text x="814.4741872686503" y="125" font-size="12">0.921</text><text x="210" y="165" text-anchor="end" font-size="14">ECOLOGICAL__bin_lead_avg</text><rect x="220" y="150" width="335.85" height="20" fill="#4682b4" /><text x="560.8454700723794" y="165" font-size="12">0.525</text><text x="210" y="205" text-anchor="end" font-size="14">INTRASTATE_lead_avg</text><rect x="220" y="190" width="68.91" height="20" fill="#4682b4" /><text x="293.9116257555517" y="205" font-size="12">0.108</text><text x="210" y="245" text-anchor="end" font-size="14">GEOPHYSICAL_lead_avg</text><rect x="220" y="230" width="23.43" height="20" fill="#4682b4" /><text x="248.43305276018899" y="245" font-size="12">0.037</text><text x="210" y="285" text-anchor="end" font-size="14">INTERSTATE__bin_lead_avg</text><rect x="220" y="270" width="16.49" height="20" fill="#4682b4" /><text x="241.4881785799245" y="285" font-size="12">0.026</text><text x="210" y="325" text-anchor="end" font-size="14">POISONING__bin_lead_avg</text><rect x="220" y="310" width="4.08" height="20" fill="#4682b4" /><text x="229.07533345484543" y="325" font-size="12">0.006</text><text x="210" y="365" text-anchor="end" font-size="14">TECHNOLOGICAL_lead_avg</text><rect x="220" y="350" width="1.33" height="20" fill="#4682b4" /><text x="226.32761326671923" y="365" font-size="12">0.002</text><text x="210" y="405" text-anchor="end" font-size="14">TERRORISM_lead_avg</text><rect x="220" y="390" width="0.55" height="20" fill="#4682b4" /><text x="225.5524046405864" y="405" font-size="12">0.001</text>
</svg>
