
<svg xmlns='http://www.w3.org/2000/svg' width='1000' height='500'>
    <style>
        text { font-family: Arial, sans-serif; }
    </style>
    <rect x='0' y='0' width='1000' height='500' fill='white' stroke='black' stroke-width='1'/>
    <line x1='600.00' y1='50' x2='600.00' y2='450' stroke='#666' stroke-width='1' stroke-dasharray='4 4' />
    <text x='500.0' y='30.0' text-anchor='middle' font-size='18'>Model-averaged fixed effects</text>
    <text x='500.0' y='470.0' text-anchor='middle' font-size='14'>Coefficient value</text>
    <text x="245" y="85" text-anchor="end" font-size="14">POISONING__bin_lead_avg</text><line x1="640.34" y1="80" x2="817.14" y2="80" stroke="#000" stroke-width="2" /><line x1="640.34" y1="74" x2="640.34" y2="86" stroke="#000" stroke-width="2" /><line x1="817.14" y1="74" x2="817.14" y2="86" stroke="#000" stroke-width="2" /><circle cx="728.74" cy="80" r="6" fill="#8b0000" /><text x="738.74" y="72" font-size="12">0.462 +/- 0.317</text><text x="245" y="125" text-anchor="end" font-size="14">ECONOMIC_lead_avg</text><line x1="680.01" y1="120" x2="682.95" y2="120" stroke="#000" stroke-width="2" /><line x1="680.01" y1="114" x2="680.01" y2="126" stroke="#000" stroke-width="2" /><line x1="682.95" y1="114" x2="682.95" y2="126" stroke="#000" stroke-width="2" /><circle cx="681.48" cy="120" r="6" fill="#8b0000" /><text x="691.48" y="112" font-size="12">0.292 +/- 0.005</text><text x="245" y="165" text-anchor="end" font-size="14">INTRASTATE_lead_avg</text><line x1="650.54" y1="160" x2="656.01" y2="160" stroke="#000" stroke-width="2" /><line x1="650.54" y1="154" x2="650.54" y2="166" stroke="#000" stroke-width="2" /><line x1="656.01" y1="154" x2="656.01" y2="166" stroke="#000" stroke-width="2" /><circle cx="653.27" cy="160" r="6" fill="#8b0000" /><text x="663.27" y="152" font-size="12">0.191 +/- 0.010</text><text x="245" y="205" text-anchor="end" font-size="14">CLIMATIC_lead_avg</text><line x1="631.52" y1="200" x2="633.59" y2="200" stroke="#000" stroke-width="2" /><line x1="631.52" y1="194" x2="631.52" y2="206" stroke="#000" stroke-width="2" /><line x1="633.59" y1="194" x2="633.59" y2="206" stroke="#000" stroke-width="2" /><circle cx="632.56" cy="200" r="6" fill="#8b0000" /><text x="642.56" y="192" font-size="12">0.117 +/- 0.004</text><text x="245" y="245" text-anchor="end" font-size="14">INTERSTATE__bin_lead_avg</text><line x1="576.67" y1="240" x2="651.61" y2="240" stroke="#000" stroke-width="2" /><line x1="576.67" y1="234" x2="576.67" y2="246" stroke="#000" stroke-width="2" /><line x1="651.61" y1="234" x2="651.61" y2="246" stroke="#000" stroke-width="2" /><circle cx="614.14" cy="240" r="6" fill="#8b0000" /><text x="624.14" y="232" font-size="12">0.051 +/- 0.134</text><text x="245" y="285" text-anchor="end" font-size="14">GEOPHYSICAL_lead_avg</text><line x1="602.46" y1="280" x2="605.68" y2="280" stroke="#000" stroke-width="2" /><line x1="602.46" y1="274" x2="602.46" y2="286" stroke="#000" stroke-width="2" /><line x1="605.68" y1="274" x2="605.68" y2="286" stroke="#000" stroke-width="2" /><circle cx="604.07" cy="280" r="6" fill="#8b0000" /><text x="614.07" y="272" font-size="12">0.015 +/- 0.006</text><text x="245" y="325" text-anchor="end" font-size="14">TECHNOLOGICAL_lead_avg</text><line x1="603.03" y1="320" x2="604.32" y2="320" stroke="#000" stroke-width="2" /><line x1="603.03" y1="314" x2="603.03" y2="326" stroke="#000" stroke-width="2" /><line x1="604.32" y1="314" x2="604.32" y2="326" stroke="#000" stroke-width="2" /><circle cx="603.68" cy="320" r="6" fill="#8b0000" /><text x="613.68" y="312" font-size="12">0.013 +/- 0.002</text><text x="245" y="365" text-anchor="end" font-size="14">TERRORISM_lead_avg</text><line x1="600.04" y1="360" x2="600.07" y2="360" stroke="#000" stroke-width="2" /><line x1="600.04" y1="354" x2="600.04" y2="366" stroke="#000" stroke-width="2" /><line x1="600.07" y1="354" x2="600.07" y2="366" stroke="#000" stroke-width="2" /><circle cx="600.06" cy="360" r="6" fill="#8b0000" /><text x="610.06" y="352" font-size="12">0.000 +/- 0.000</text><text x="245" y="405" text-anchor="end" font-size="14">ECOLOGICAL__bin_lead_avg</text><line x1="260.00" y1="400" x2="461.06" y2="400" stroke="#000" stroke-width="2" /><line x1="260.00" y1="394" x2="260.00" y2="406" stroke="#000" stroke-width="2" /><line x1="461.06" y1="394" x2="461.06" y2="406" stroke="#000" stroke-width="2" /><circle cx="360.53" cy="400" r="6" fill="#8b0000" /><text x="370.53" y="392" font-size="12">-0.859 +/- 0.361</text>
</svg>
