
<svg xmlns='http://www.w3.org/2000/svg' width='900' height='640'>
    <style>
        text { font-family: Arial, sans-serif; }
    </style>
    <rect x='0' y='0' width='900' height='640' fill='white' stroke='black' stroke-width='1'/>
    <text x='450.0' y='30.0' text-anchor='middle' font-size='18'>Predictor importance (summed weights)</text>
    <text x='450.0' y='610.0' text-anchor='middle' font-size='14'>Summed Akaike weight</text>
    <text x="210" y="85" text-anchor="end" font-size="14">GEOPHYSICAL__bin_lead_avg</text><rect x="220" y="70" width="640.00" height="20" fill="#4682b4" /><text x="865.0" y="85" font-size="12">0.331</text><text x="210" y="125" text-anchor="end" font-size="14">ECONOMIC_lead_avg</text><rect x="220" y="110" width="630.00" height="20" fill="#4682b4" /><text x="855.0013955836815" y="125" font-size="12">0.325</text><text x="210" y="165" text-anchor="end" font-size="14">CLIMATIC_lead_avg</text><rect x="220" y="150" width="585.67" height="20" fill="#4682b4" /><text x="810.6682707705273" y="165" font-size="12">0.303</text><text x="210" y="205" text-anchor="end" font-size="14">INTERSTATE__bin_lead_avg</text><rect x="220" y="190" width="566.58" height="20" fill="#4682b4" /><text x="791.5841526942635" y="205" font-size="12">0.293</text><text x="210" y="245" text-anchor="end" font-size="14">GEOPHYSICAL_lead_avg</text><rect x="220" y="230" width="414.46" height="20" fill="#4682b4" /><text x="639.4592198449052" y="245" font-size="12">0.214</text><text x="210" y="285" text-anchor="end" font-size="14">INTERSTATE_lead_avg</text><rect x="220" y="270" width="374.58" height="20" fill="#4682b4" /><text x="599.5813118082547" y="285" font-size="12">0.194</text><text x="210" y="325" text-anchor="end" font-size="14">INTRASTATE_lead_avg</text><rect x="220" y="310" width="258.29" height="20" fill="#4682b4" /><text x="483.2946379756131" y="325" font-size="12">0.133</text><text x="210" y="365" text-anchor="end" font-size="14">ECOLOGICAL__bin_lead_avg</text><rect x="220" y="350" width="193.11" height="20" fill="#4682b4" /><text x="418.1103033564499" y="365" font-size="12">0.100</text><text x="210" y="405" text-anchor="end" font-size="14">ECOLOGICAL_lead_avg</text><rect x="220" y="390" width="165.13" height="20" fill="#4682b4" /><text x="390.13004349421976" y="405" font-size="12">0.085</text><text x="210" y="445" text-anchor="end" font-size="14">POISONING__bin_lead_avg</text><rect x="220" y="430" width="17.16" height="20" fill="#4682b4" /><text x="242.1560946985008" y="445" font-size="12">0.009</text><text x="210" y="485" text-anchor="end" font-size="14">TECHNOLOGICAL_lead_avg</text><rect x="220" y="470" width="10.32" height="20" fill="#4682b4" /><text x="235.32093543230457" y="485" font-size="12">0.005</text><text x="210" y="525" text-anchor="end" font-size="14">POISONING_lead_avg</text><rect x="220" y="510" width="8.98" height="20" fill="#4682b4" /><text x="233.981394157874" y="525" font-size="12">0.005</text><text x="210" y="565" text-anchor="end" font-size="14">TERRORISM_lead_avg</text><rect x="220" y="550" width="2.24" height="20" fill="#4682b4" /><text x="227.2355638824393" y="565" font-size="12">0.001</text>
</svg>
