
<svg xmlns='http://www.w3.org/2000/svg' width='900' height='480'>
    <style>
        text { font-family: Arial, sans-serif; }
    </style>
    <rect x='0' y='0' width='900' height='480' fill='white' stroke='black' stroke-width='1'/>
    <text x='450.0' y='30.0' text-anchor='middle' font-size='18'>Predictor importance (summed weights)</text>
    <text x='450.0' y='450.0' text-anchor='middle' font-size='14'>Summed Akaike weight</text>
    <text x="210" y="85" text-anchor="end" font-size="14">Economic Lead Avg</text><rect x="220" y="70" width="640.00" height="20" fill="#4682b4" /><text x="865.0" y="85" font-size="12">0.325</text><text x="210" y="125" text-anchor="end" font-size="14">Climatic Lead Avg</text><rect x="220" y="110" width="594.96" height="20" fill="#4682b4" /><text x="819.9632745588896" y="125" font-size="12">0.303</text><text x="210" y="165" text-anchor="end" font-size="14">Interstate Lead Avg</text><rect x="220" y="150" width="575.58" height="20" fill="#4682b4" /><text x="800.5762769197922" y="165" font-size="12">0.293</text><text x="210" y="205" text-anchor="end" font-size="14">Geophysical Lead Avg</text><rect x="220" y="190" width="421.04" height="20" fill="#4682b4" /><text x="646.0370049339141" y="205" font-size="12">0.214</text><text x="210" y="245" text-anchor="end" font-size="14">Intrastate Lead Avg</text><rect x="220" y="230" width="262.39" height="20" fill="#4682b4" /><text x="487.3939716057897" y="245" font-size="12">0.133</text><text x="210" y="285" text-anchor="end" font-size="14">Ecological Lead Avg</text><rect x="220" y="270" width="196.18" height="20" fill="#4682b4" /><text x="421.17511169737037" y="285" font-size="12">0.100</text><text x="210" y="325" text-anchor="end" font-size="14">Poisoning Lead Avg</text><rect x="220" y="310" width="17.43" height="20" fill="#4682b4" /><text x="242.42837505442014" y="325" font-size="12">0.009</text><text x="210" y="365" text-anchor="end" font-size="14">Technological Lead Avg</text><rect x="220" y="350" width="10.48" height="20" fill="#4682b4" /><text x="235.4847365783296" y="365" font-size="12">0.005</text><text x="210" y="405" text-anchor="end" font-size="14">Terrorism Lead Avg</text><rect x="220" y="390" width="2.27" height="20" fill="#4682b4" /><text x="227.27104399258604" y="405" font-size="12">0.001</text>
</svg>
