
<svg xmlns='http://www.w3.org/2000/svg' width='1000' height='500'>
    <style>
        text { font-family: Arial, sans-serif; }
    </style>
    <rect x='0' y='0' width='1000' height='500' fill='white' stroke='black' stroke-width='1'/>
    <line x1='600.00' y1='50' x2='600.00' y2='450' stroke='#666' stroke-width='1' stroke-dasharray='4 4' />
    <text x='500.0' y='30.0' text-anchor='middle' font-size='18'>Model-averaged fixed effects</text>
    <text x='500.0' y='470.0' text-anchor='middle' font-size='14'>Coefficient value</text>
    <text x="245" y="85" text-anchor="end" font-size="14">POISONING__bin_lead_avg</text><line x1="653.49" y1="80" x2="672.48" y2="80" stroke="#000" stroke-width="2" /><line x1="653.49" y1="74" x2="653.49" y2="86" stroke="#000" stroke-width="2" /><line x1="672.48" y1="74" x2="672.48" y2="86" stroke="#000" stroke-width="2" /><circle cx="662.98" cy="80" r="6" fill="#8b0000" /><text x="672.98" y="72" font-size="12">2.055 +/- 0.310</text><text x="245" y="125" text-anchor="end" font-size="14">INTRASTATE_lead_avg</text><line x1="611.11" y1="120" x2="612.63" y2="120" stroke="#000" stroke-width="2" /><line x1="611.11" y1="114" x2="611.11" y2="126" stroke="#000" stroke-width="2" /><line x1="612.63" y1="114" x2="612.63" y2="126" stroke="#000" stroke-width="2" /><circle cx="611.87" cy="120" r="6" fill="#8b0000" /><text x="621.87" y="112" font-size="12">0.387 +/- 0.025</text><text x="245" y="165" text-anchor="end" font-size="14">ECONOMIC_lead_avg</text><line x1="609.77" y1="160" x2="610.83" y2="160" stroke="#000" stroke-width="2" /><line x1="609.77" y1="154" x2="609.77" y2="166" stroke="#000" stroke-width="2" /><line x1="610.83" y1="154" x2="610.83" y2="166" stroke="#000" stroke-width="2" /><circle cx="610.30" cy="160" r="6" fill="#8b0000" /><text x="620.30" y="152" font-size="12">0.336 +/- 0.017</text><text x="245" y="205" text-anchor="end" font-size="14">CLIMATIC_lead_avg</text><line x1="604.61" y1="200" x2="605.56" y2="200" stroke="#000" stroke-width="2" /><line x1="604.61" y1="194" x2="604.61" y2="206" stroke="#000" stroke-width="2" /><line x1="605.56" y1="194" x2="605.56" y2="206" stroke="#000" stroke-width="2" /><circle cx="605.08" cy="200" r="6" fill="#8b0000" /><text x="615.08" y="192" font-size="12">0.166 +/- 0.015</text><text x="245" y="245" text-anchor="end" font-size="14">TECHNOLOGICAL_lead_avg</text><line x1="601.28" y1="240" x2="601.59" y2="240" stroke="#000" stroke-width="2" /><line x1="601.28" y1="234" x2="601.28" y2="246" stroke="#000" stroke-width="2" /><line x1="601.59" y1="234" x2="601.59" y2="246" stroke="#000" stroke-width="2" /><circle cx="601.44" cy="240" r="6" fill="#8b0000" /><text x="611.44" y="232" font-size="12">0.047 +/- 0.005</text><text x="245" y="285" text-anchor="end" font-size="14">TERRORISM_lead_avg</text><line x1="600.03" y1="280" x2="600.04" y2="280" stroke="#000" stroke-width="2" /><line x1="600.03" y1="274" x2="600.03" y2="286" stroke="#000" stroke-width="2" /><line x1="600.04" y1="274" x2="600.04" y2="286" stroke="#000" stroke-width="2" /><circle cx="600.03" cy="280" r="6" fill="#8b0000" /><text x="610.03" y="272" font-size="12">0.001 +/- 0.000</text><text x="245" y="325" text-anchor="end" font-size="14">ECOLOGICAL__bin_lead_avg</text><line x1="585.10" y1="320" x2="598.23" y2="320" stroke="#000" stroke-width="2" /><line x1="585.10" y1="314" x2="585.10" y2="326" stroke="#000" stroke-width="2" /><line x1="598.23" y1="314" x2="598.23" y2="326" stroke="#000" stroke-width="2" /><circle cx="591.66" cy="320" r="6" fill="#8b0000" /><text x="601.66" y="312" font-size="12">-0.272 +/- 0.214</text><text x="245" y="365" text-anchor="end" font-size="14">INTERSTATE__bin_lead_avg</text><line x1="475.58" y1="360" x2="484.04" y2="360" stroke="#000" stroke-width="2" /><line x1="475.58" y1="354" x2="475.58" y2="366" stroke="#000" stroke-width="2" /><line x1="484.04" y1="354" x2="484.04" y2="366" stroke="#000" stroke-width="2" /><circle cx="479.81" cy="360" r="6" fill="#8b0000" /><text x="489.81" y="352" font-size="12">-3.922 +/- 0.138</text><text x="245" y="405" text-anchor="end" font-size="14">GEOPHYSICAL_lead_avg</text><line x1="260.00" y1="400" x2="539.28" y2="400" stroke="#000" stroke-width="2" /><line x1="260.00" y1="394" x2="260.00" y2="406" stroke="#000" stroke-width="2" /><line x1="539.28" y1="394" x2="539.28" y2="406" stroke="#000" stroke-width="2" /><circle cx="399.64" cy="400" r="6" fill="#8b0000" /><text x="409.64" y="392" font-size="12">-6.538 +/- 4.557</text>
</svg>
