
<svg xmlns='http://www.w3.org/2000/svg' width='900' height='640'>
    <style>
        text { font-family: Arial, sans-serif; }
    </style>
    <rect x='0' y='0' width='900' height='640' fill='white' stroke='black' stroke-width='1'/>
    <text x='450.0' y='30.0' text-anchor='middle' font-size='18'>Predictor importance (summed weights)</text>
    <text x='450.0' y='610.0' text-anchor='middle' font-size='14'>Summed Akaike weight</text>
    <text x="210" y="85" text-anchor="end" font-size="14">CLIMATIC</text><rect x="220" y="70" width="640.00" height="20" fill="#4682b4" /><text x="865.0" y="85" font-size="12">0.737</text><text x="210" y="125" text-anchor="end" font-size="14">GEOPHYSICAL</text><rect x="220" y="110" width="284.15" height="20" fill="#4682b4" /><text x="509.1466896100383" y="125" font-size="12">0.327</text><text x="210" y="165" text-anchor="end" font-size="14">ECOLOGICAL</text><rect x="220" y="150" width="208.87" height="20" fill="#4682b4" /><text x="433.8743425247437" y="165" font-size="12">0.241</text><text x="210" y="205" text-anchor="end" font-size="14">ECOLOGICAL__bin</text><rect x="220" y="190" width="151.44" height="20" fill="#4682b4" /><text x="376.43985572996394" y="205" font-size="12">0.174</text><text x="210" y="245" text-anchor="end" font-size="14">GEOPHYSICAL__bin</text><rect x="220" y="230" width="119.17" height="20" fill="#4682b4" /><text x="344.1705788196207" y="245" font-size="12">0.137</text><text x="210" y="285" text-anchor="end" font-size="14">ECONOMIC</text><rect x="220" y="270" width="113.07" height="20" fill="#4682b4" /><text x="338.0674820987434" y="285" font-size="12">0.130</text><text x="210" y="325" text-anchor="end" font-size="14">INTERSTATE</text><rect x="220" y="310" width="94.38" height="20" fill="#4682b4" /><text x="319.38221803223865" y="325" font-size="12">0.109</text><text x="210" y="365" text-anchor="end" font-size="14">INTERSTATE__bin</text><rect x="220" y="350" width="54.93" height="20" fill="#4682b4" /><text x="279.931841728476" y="365" font-size="12">0.063</text><text x="210" y="405" text-anchor="end" font-size="14">TECHNOLOGICAL</text><rect x="220" y="390" width="39.15" height="20" fill="#4682b4" /><text x="264.1525613991438" y="405" font-size="12">0.045</text><text x="210" y="445" text-anchor="end" font-size="14">INTRASTATE</text><rect x="220" y="430" width="11.00" height="20" fill="#4682b4" /><text x="236.0046379160517" y="445" font-size="12">0.013</text><text x="210" y="485" text-anchor="end" font-size="14">POISONING</text><rect x="220" y="470" width="6.41" height="20" fill="#4682b4" /><text x="231.41472299431317" y="485" font-size="12">0.007</text><text x="210" y="525" text-anchor="end" font-size="14">POISONING__bin</text><rect x="220" y="510" width="4.55" height="20" fill="#4682b4" /><text x="229.54790036734863" y="525" font-size="12">0.005</text><text x="210" y="565" text-anchor="end" font-size="14">TERRORISM</text><rect x="220" y="550" width="4.32" height="20" fill="#4682b4" /><text x="229.31933822417548" y="565" font-size="12">0.005</text>
</svg>
