
<svg xmlns='http://www.w3.org/2000/svg' width='900' height='920'>
    <style>
        text { font-family: Arial, sans-serif; }
    </style>
    <rect x='0' y='0' width='900' height='920' fill='white' stroke='black' stroke-width='1'/>
    <text x='450.0' y='30.0' text-anchor='middle' font-size='18'>Top models by AICc weight</text>
    <text x='450.0' y='890.0' text-anchor='middle' font-size='14'>Akaike weight</text>
    <text x="210" y="85" text-anchor="end" font-size="14">A6ffe30149253560f0ca1c48c8684a85</text><rect x="220" y="70" width="640.00" height="20" fill="#4682b4" /><text x="865.0" y="85" font-size="12">0.003</text><text x="210" y="125" text-anchor="end" font-size="14">C2afd3ed0563877ec9b27c94cc184ebf</text><rect x="220" y="110" width="607.81" height="20" fill="#4682b4" /><text x="832.8146906430966" y="125" font-size="12">0.003</text><text x="210" y="165" text-anchor="end" font-size="14">C2afd3ed0563877ec9b27c94cc184ebf</text><rect x="220" y="150" width="607.81" height="20" fill="#4682b4" /><text x="832.8146906430966" y="165" font-size="12">0.003</text><text x="210" y="205" text-anchor="end" font-size="14">F8571ff50ae7f6a7464a8a0d0d12d437</text><rect x="220" y="190" width="591.62" height="20" fill="#4682b4" /><text x="816.6245047241695" y="205" font-size="12">0.003</text><text x="210" y="245" text-anchor="end" font-size="14">F8571ff50ae7f6a7464a8a0d0d12d437</text><rect x="220" y="230" width="591.62" height="20" fill="#4682b4" /><text x="816.6245047241695" y="245" font-size="12">0.003</text><text x="210" y="285" text-anchor="end" font-size="14">B81037415784a5955f3937f0f1ab3711</text><rect x="220" y="270" width="589.67" height="20" fill="#4682b4" /><text x="814.6738799146602" y="285" font-size="12">0.003</text><text x="210" y="325" text-anchor="end" font-size="14">B0aee2903561d9842f46c67bf515ffb9</text><rect x="220" y="310" width="381.35" height="20" fill="#4682b4" /><text x="606.3471502590673" y="325" font-size="12">0.002</text><text x="210" y="365" text-anchor="end" font-size="14">651d58ed3e43ecb7cf1209c709f46a43</text><rect x="220" y="350" width="381.35" height="20" fill="#4682b4" /><text x="606.3471502590673" y="365" font-size="12">0.002</text><text x="210" y="405" text-anchor="end" font-size="14">B0aee2903561d9842f46c67bf515ffb9</text><rect x="220" y="390" width="381.35" height="20" fill="#4682b4" /><text x="606.3471502590673" y="405" font-size="12">0.002</text><text x="210" y="445" text-anchor="end" font-size="14">651d58ed3e43ecb7cf1209c709f46a43</text><rect x="220" y="430" width="381.35" height="20" fill="#4682b4" /><text x="606.3471502590673" y="445" font-size="12">0.002</text><text x="210" y="485" text-anchor="end" font-size="14">2d243a9d3a76c6f1766ed6144c55a5d8</text><rect x="220" y="470" width="335.90" height="20" fill="#4682b4" /><text x="560.8975921975008" y="485" font-size="12">0.002</text><text x="210" y="525" text-anchor="end" font-size="14">2d243a9d3a76c6f1766ed6144c55a5d8</text><rect x="220" y="510" width="335.90" height="20" fill="#4682b4" /><text x="560.8975921975008" y="525" font-size="12">0.002</text><text x="210" y="565" text-anchor="end" font-size="14">A63bb8baab47dc32640c6ed179d72edd</text><rect x="220" y="550" width="279.72" height="20" fill="#4682b4" /><text x="504.719597683633" y="565" font-size="12">0.001</text><text x="210" y="605" text-anchor="end" font-size="14">A63bb8baab47dc32640c6ed179d72edd</text><rect x="220" y="590" width="279.72" height="20" fill="#4682b4" /><text x="504.719597683633" y="605" font-size="12">0.001</text><text x="210" y="645" text-anchor="end" font-size="14">985f8ae735aa589ae6b2ab10a76359b8</text><rect x="220" y="630" width="262.16" height="20" fill="#4682b4" /><text x="487.1639743980494" y="645" font-size="12">0.001</text><text x="210" y="685" text-anchor="end" font-size="14">985f8ae735aa589ae6b2ab10a76359b8</text><rect x="220" y="670" width="262.16" height="20" fill="#4682b4" /><text x="487.1639743980494" y="685" font-size="12">0.001</text><text x="210" y="725" text-anchor="end" font-size="14">591307dbaebd757b59de37fdf5b43dce</text><rect x="220" y="710" width="242.27" height="20" fill="#4682b4" /><text x="467.2676013410546" y="725" font-size="12">0.001</text><text x="210" y="765" text-anchor="end" font-size="14">591307dbaebd757b59de37fdf5b43dce</text><rect x="220" y="750" width="242.27" height="20" fill="#4682b4" /><text x="467.2676013410546" y="765" font-size="12">0.001</text><text x="210" y="805" text-anchor="end" font-size="14">83dd52fbc144d7f9723b29d4d2efbe4e</text><rect x="220" y="790" width="238.17" height="20" fill="#4682b4" /><text x="463.17128924108505" y="805" font-size="12">0.001</text><text x="210" y="845" text-anchor="end" font-size="14">1a9f8fb83108bdb1d15bde591152d1f5</text><rect x="220" y="830" width="238.17" height="20" fill="#4682b4" /><text x="463.17128924108505" y="845" font-size="12">0.001</text>
</svg>
