
<svg xmlns='http://www.w3.org/2000/svg' width='1000' height='660'>
    <style>
        text { font-family: Arial, sans-serif; }
    </style>
    <rect x='0' y='0' width='1000' height='660' fill='white' stroke='black' stroke-width='1'/>
    <line x1='600.00' y1='50' x2='600.00' y2='610' stroke='#666' stroke-width='1' stroke-dasharray='4 4' />
    <text x='500.0' y='30.0' text-anchor='middle' font-size='18'>Model-averaged fixed effects</text>
    <text x='500.0' y='630.0' text-anchor='middle' font-size='14'>Coefficient value</text>
    <text x="245" y="85" text-anchor="end" font-size="14">ECOLOGICAL</text><line x1="450.87" y1="80" x2="883.67" y2="80" stroke="#000" stroke-width="2" /><line x1="450.87" y1="74" x2="450.87" y2="86" stroke="#000" stroke-width="2" /><line x1="883.67" y1="74" x2="883.67" y2="86" stroke="#000" stroke-width="2" /><circle cx="667.27" cy="80" r="6" fill="#8b0000" /><text x="677.27" y="72" font-size="12">1.492 +/- 4.799</text><text x="245" y="125" text-anchor="end" font-size="14">INTERSTATE</text><line x1="629.79" y1="120" x2="634.27" y2="120" stroke="#000" stroke-width="2" /><line x1="629.79" y1="114" x2="629.79" y2="126" stroke="#000" stroke-width="2" /><line x1="634.27" y1="114" x2="634.27" y2="126" stroke="#000" stroke-width="2" /><circle cx="632.03" cy="120" r="6" fill="#8b0000" /><text x="642.03" y="112" font-size="12">0.710 +/- 0.050</text><text x="245" y="165" text-anchor="end" font-size="14">INTERSTATE__bin</text><line x1="628.77" y1="160" x2="634.62" y2="160" stroke="#000" stroke-width="2" /><line x1="628.77" y1="154" x2="628.77" y2="166" stroke="#000" stroke-width="2" /><line x1="634.62" y1="154" x2="634.62" y2="166" stroke="#000" stroke-width="2" /><circle cx="631.69" cy="160" r="6" fill="#8b0000" /><text x="641.69" y="152" font-size="12">0.703 +/- 0.065</text><text x="245" y="205" text-anchor="end" font-size="14">GEOPHYSICAL</text><line x1="604.90" y1="200" x2="611.89" y2="200" stroke="#000" stroke-width="2" /><line x1="604.90" y1="194" x2="604.90" y2="206" stroke="#000" stroke-width="2" /><line x1="611.89" y1="194" x2="611.89" y2="206" stroke="#000" stroke-width="2" /><circle cx="608.40" cy="200" r="6" fill="#8b0000" /><text x="618.40" y="192" font-size="12">0.186 +/- 0.078</text><text x="245" y="245" text-anchor="end" font-size="14">POISONING</text><line x1="564.43" y1="240" x2="651.07" y2="240" stroke="#000" stroke-width="2" /><line x1="564.43" y1="234" x2="564.43" y2="246" stroke="#000" stroke-width="2" /><line x1="651.07" y1="234" x2="651.07" y2="246" stroke="#000" stroke-width="2" /><circle cx="607.75" cy="240" r="6" fill="#8b0000" /><text x="617.75" y="232" font-size="12">0.172 +/- 0.961</text><text x="245" y="285" text-anchor="end" font-size="14">CLIMATIC</text><line x1="602.93" y1="280" x2="603.49" y2="280" stroke="#000" stroke-width="2" /><line x1="602.93" y1="274" x2="602.93" y2="286" stroke="#000" stroke-width="2" /><line x1="603.49" y1="274" x2="603.49" y2="286" stroke="#000" stroke-width="2" /><circle cx="603.21" cy="280" r="6" fill="#8b0000" /><text x="613.21" y="272" font-size="12">0.071 +/- 0.006</text><text x="245" y="325" text-anchor="end" font-size="14">TECHNOLOGICAL</text><line x1="602.01" y1="320" x2="602.46" y2="320" stroke="#000" stroke-width="2" /><line x1="602.01" y1="314" x2="602.01" y2="326" stroke="#000" stroke-width="2" /><line x1="602.46" y1="314" x2="602.46" y2="326" stroke="#000" stroke-width="2" /><circle cx="602.23" cy="320" r="6" fill="#8b0000" /><text x="612.23" y="312" font-size="12">0.050 +/- 0.005</text><text x="245" y="365" text-anchor="end" font-size="14">TERRORISM</text><line x1="599.97" y1="360" x2="599.97" y2="360" stroke="#000" stroke-width="2" /><line x1="599.97" y1="354" x2="599.97" y2="366" stroke="#000" stroke-width="2" /><line x1="599.97" y1="354" x2="599.97" y2="366" stroke="#000" stroke-width="2" /><circle cx="599.97" cy="360" r="6" fill="#8b0000" /><text x="609.97" y="352" font-size="12">-0.001 +/- 0.000</text><text x="245" y="405" text-anchor="end" font-size="14">INTRASTATE</text><line x1="597.11" y1="400" x2="599.76" y2="400" stroke="#000" stroke-width="2" /><line x1="597.11" y1="394" x2="597.11" y2="406" stroke="#000" stroke-width="2" /><line x1="599.76" y1="394" x2="599.76" y2="406" stroke="#000" stroke-width="2" /><circle cx="598.44" cy="400" r="6" fill="#8b0000" /><text x="608.44" y="392" font-size="12">-0.035 +/- 0.029</text><text x="245" y="445" text-anchor="end" font-size="14">ECONOMIC</text><line x1="595.45" y1="440" x2="596.94" y2="440" stroke="#000" stroke-width="2" /><line x1="595.45" y1="434" x2="595.45" y2="446" stroke="#000" stroke-width="2" /><line x1="596.94" y1="434" x2="596.94" y2="446" stroke="#000" stroke-width="2" /><circle cx="596.20" cy="440" r="6" fill="#8b0000" /><text x="606.20" y="432" font-size="12">-0.084 +/- 0.017</text><text x="245" y="485" text-anchor="end" font-size="14">POISONING__bin</text><line x1="529.23" y1="480" x2="635.16" y2="480" stroke="#000" stroke-width="2" /><line x1="529.23" y1="474" x2="529.23" y2="486" stroke="#000" stroke-width="2" /><line x1="635.16" y1="474" x2="635.16" y2="486" stroke="#000" stroke-width="2" /><circle cx="582.20" cy="480" r="6" fill="#8b0000" /><text x="592.20" y="472" font-size="12">-0.395 +/- 1.175</text><text x="245" y="525" text-anchor="end" font-size="14">GEOPHYSICAL__bin</text><line x1="569.19" y1="520" x2="589.13" y2="520" stroke="#000" stroke-width="2" /><line x1="569.19" y1="514" x2="569.19" y2="526" stroke="#000" stroke-width="2" /><line x1="589.13" y1="514" x2="589.13" y2="526" stroke="#000" stroke-width="2" /><circle cx="579.16" cy="520" r="6" fill="#8b0000" /><text x="589.16" y="512" font-size="12">-0.462 +/- 0.221</text><text x="245" y="565" text-anchor="end" font-size="14">ECOLOGICAL__bin</text><line x1="260.00" y1="560" x2="766.01" y2="560" stroke="#000" stroke-width="2" /><line x1="260.00" y1="554" x2="260.00" y2="566" stroke="#000" stroke-width="2" /><line x1="766.01" y1="554" x2="766.01" y2="566" stroke="#000" stroke-width="2" /><circle cx="513.00" cy="560" r="6" fill="#8b0000" /><text x="523.00" y="552" font-size="12">-1.929 +/- 5.611</text>
</svg>
