
<svg xmlns='http://www.w3.org/2000/svg' width='900' height='640'>
    <style>
        text { font-family: Arial, sans-serif; }
    </style>
    <rect x='0' y='0' width='900' height='640' fill='white' stroke='black' stroke-width='1'/>
    <text x='450.0' y='30.0' text-anchor='middle' font-size='18'>Predictor importance (summed weights)</text>
    <text x='450.0' y='610.0' text-anchor='middle' font-size='14'>Summed Akaike weight</text>
    <text x="210" y="85" text-anchor="end" font-size="14">CLIMATIC_lag_avg</text><rect x="220" y="70" width="640.00" height="20" fill="#4682b4" /><text x="865.0" y="85" font-size="12">0.817</text><text x="210" y="125" text-anchor="end" font-size="14">ECOLOGICAL__bin_lag_avg</text><rect x="220" y="110" width="203.57" height="20" fill="#4682b4" /><text x="428.56891428396773" y="125" font-size="12">0.260</text><text x="210" y="165" text-anchor="end" font-size="14">ECONOMIC_lag_avg</text><rect x="220" y="150" width="148.23" height="20" fill="#4682b4" /><text x="373.22753119575464" y="165" font-size="12">0.189</text><text x="210" y="205" text-anchor="end" font-size="14">ECOLOGICAL_lag_avg</text><rect x="220" y="190" width="143.43" height="20" fill="#4682b4" /><text x="368.425308835427" y="205" font-size="12">0.183</text><text x="210" y="245" text-anchor="end" font-size="14">TECHNOLOGICAL_lag_avg</text><rect x="220" y="230" width="121.36" height="20" fill="#4682b4" /><text x="346.36290236186994" y="245" font-size="12">0.155</text><text x="210" y="285" text-anchor="end" font-size="14">INTRASTATE_lag_avg</text><rect x="220" y="270" width="105.35" height="20" fill="#4682b4" /><text x="330.3519412174883" y="285" font-size="12">0.135</text><text x="210" y="325" text-anchor="end" font-size="14">GEOPHYSICAL__bin_lag_avg</text><rect x="220" y="310" width="67.14" height="20" fill="#4682b4" /><text x="292.14292334403416" y="325" font-size="12">0.086</text><text x="210" y="365" text-anchor="end" font-size="14">GEOPHYSICAL_lag_avg</text><rect x="220" y="350" width="45.38" height="20" fill="#4682b4" /><text x="270.3833842012557" y="365" font-size="12">0.058</text><text x="210" y="405" text-anchor="end" font-size="14">INTERSTATE__bin_lag_avg</text><rect x="220" y="390" width="30.48" height="20" fill="#4682b4" /><text x="255.4767105662752" y="405" font-size="12">0.039</text><text x="210" y="445" text-anchor="end" font-size="14">INTERSTATE_lag_avg</text><rect x="220" y="430" width="20.94" height="20" fill="#4682b4" /><text x="245.93987177320128" y="445" font-size="12">0.027</text><text x="210" y="485" text-anchor="end" font-size="14">POISONING_lag_avg</text><rect x="220" y="470" width="15.73" height="20" fill="#4682b4" /><text x="240.7281067758096" y="485" font-size="12">0.020</text><text x="210" y="525" text-anchor="end" font-size="14">POISONING__bin_lag_avg</text><rect x="220" y="510" width="11.29" height="20" fill="#4682b4" /><text x="236.28689505725507" y="525" font-size="12">0.014</text><text x="210" y="565" text-anchor="end" font-size="14">TERRORISM_lag_avg</text><rect x="220" y="550" width="4.14" height="20" fill="#4682b4" /><text x="229.1389146238888" y="565" font-size="12">0.005</text>
</svg>
