
<svg xmlns='http://www.w3.org/2000/svg' width='900' height='920'>
    <style>
        text { font-family: Arial, sans-serif; }
    </style>
    <rect x='0' y='0' width='900' height='920' fill='white' stroke='black' stroke-width='1'/>
    <text x='450.0' y='30.0' text-anchor='middle' font-size='18'>Top models by AICc weight</text>
    <text x='450.0' y='890.0' text-anchor='middle' font-size='14'>Akaike weight</text>
    <text x="210" y="85" text-anchor="end" font-size="14">aa26c1825a2f4252041a484f034d996f</text><rect x="220" y="70" width="640.00" height="20" fill="#4682b4" /><text x="865.0" y="85" font-size="12">0.023</text><text x="210" y="125" text-anchor="end" font-size="14">aa26c1825a2f4252041a484f034d996f</text><rect x="220" y="110" width="640.00" height="20" fill="#4682b4" /><text x="865.0" y="125" font-size="12">0.023</text><text x="210" y="165" text-anchor="end" font-size="14">3ef304d37cc023b42fac95ec52325c94</text><rect x="220" y="150" width="288.35" height="20" fill="#4682b4" /><text x="513.3501394550526" y="165" font-size="12">0.011</text><text x="210" y="205" text-anchor="end" font-size="14">680965ae2fae6dc76e43c9b869245269</text><rect x="220" y="190" width="191.44" height="20" fill="#4682b4" /><text x="416.43703068011155" y="205" font-size="12">0.007</text><text x="210" y="245" text-anchor="end" font-size="14">680965ae2fae6dc76e43c9b869245269</text><rect x="220" y="230" width="191.44" height="20" fill="#4682b4" /><text x="416.43703068011155" y="245" font-size="12">0.007</text><text x="210" y="285" text-anchor="end" font-size="14">ef6526b6a0bc86541208511d66e68e2a</text><rect x="220" y="270" width="139.97" height="20" fill="#4682b4" /><text x="364.9733962668955" y="285" font-size="12">0.005</text><text x="210" y="325" text-anchor="end" font-size="14">ef6526b6a0bc86541208511d66e68e2a</text><rect x="220" y="310" width="139.97" height="20" fill="#4682b4" /><text x="364.9733962668955" y="325" font-size="12">0.005</text><text x="210" y="365" text-anchor="end" font-size="14">3c13d9dbd3b62a779172bd0e09ba7f5c</text><rect x="220" y="350" width="136.21" height="20" fill="#4682b4" /><text x="361.21111349495817" y="365" font-size="12">0.005</text><text x="210" y="405" text-anchor="end" font-size="14">3c13d9dbd3b62a779172bd0e09ba7f5c</text><rect x="220" y="390" width="136.21" height="20" fill="#4682b4" /><text x="361.21111349495817" y="405" font-size="12">0.005</text><text x="210" y="445" text-anchor="end" font-size="14">c96177b7e525b6d457eab3cd4fd1d6f6</text><rect x="220" y="430" width="129.68" height="20" fill="#4682b4" /><text x="354.67517700064366" y="445" font-size="12">0.005</text><text x="210" y="485" text-anchor="end" font-size="14">c96177b7e525b6d457eab3cd4fd1d6f6</text><rect x="220" y="470" width="129.68" height="20" fill="#4682b4" /><text x="354.67517700064366" y="485" font-size="12">0.005</text><text x="210" y="525" text-anchor="end" font-size="14">318ab5a240b08d3dd92d4d957969eb18</text><rect x="220" y="510" width="126.60" height="20" fill="#4682b4" /><text x="351.5994421797898" y="525" font-size="12">0.005</text><text x="210" y="565" text-anchor="end" font-size="14">318ab5a240b08d3dd92d4d957969eb18</text><rect x="220" y="550" width="126.60" height="20" fill="#4682b4" /><text x="351.5994421797898" y="565" font-size="12">0.005</text><text x="210" y="605" text-anchor="end" font-size="14">fe90967d7fe1ca7fadea8a225e8638c2</text><rect x="220" y="590" width="118.28" height="20" fill="#4682b4" /><text x="343.27848101265823" y="605" font-size="12">0.004</text><text x="210" y="645" text-anchor="end" font-size="14">a698233f2aec1e81e5f648253fbc1795</text><rect x="220" y="630" width="115.01" height="20" fill="#4682b4" /><text x="340.01051276550095" y="645" font-size="12">0.004</text><text x="210" y="685" text-anchor="end" font-size="14">a698233f2aec1e81e5f648253fbc1795</text><rect x="220" y="670" width="115.01" height="20" fill="#4682b4" /><text x="340.01051276550095" y="685" font-size="12">0.004</text><text x="210" y="725" text-anchor="end" font-size="14">86982f95c63d765c49575e879cd45959</text><rect x="220" y="710" width="114.93" height="20" fill="#4682b4" /><text x="339.928127011371" y="725" font-size="12">0.004</text><text x="210" y="765" text-anchor="end" font-size="14">86982f95c63d765c49575e879cd45959</text><rect x="220" y="750" width="114.93" height="20" fill="#4682b4" /><text x="339.928127011371" y="765" font-size="12">0.004</text><text x="210" y="805" text-anchor="end" font-size="14">3673f932a42efb44eb859ac713eb4fae</text><rect x="220" y="790" width="113.03" height="20" fill="#4682b4" /><text x="338.0332546663806" y="805" font-size="12">0.004</text><text x="210" y="845" text-anchor="end" font-size="14">8e3a4483325511e10836fcb60b3bcb33</text><rect x="220" y="830" width="113.03" height="20" fill="#4682b4" /><text x="338.0332546663806" y="845" font-size="12">0.004</text>
</svg>
