
<svg xmlns='http://www.w3.org/2000/svg' width='1000' height='660'>
    <style>
        text { font-family: Arial, sans-serif; }
    </style>
    <rect x='0' y='0' width='1000' height='660' fill='white' stroke='black' stroke-width='1'/>
    <line x1='600.00' y1='50' x2='600.00' y2='610' stroke='#666' stroke-width='1' stroke-dasharray='4 4' />
    <text x='500.0' y='30.0' text-anchor='middle' font-size='18'>Model-averaged fixed effects</text>
    <text x='500.0' y='630.0' text-anchor='middle' font-size='14'>Coefficient value</text>
    <text x="245" y="85" text-anchor="end" font-size="14">POISONING_lag_avg</text><line x1="692.21" y1="80" x2="940.00" y2="80" stroke="#000" stroke-width="2" /><line x1="692.21" y1="74" x2="692.21" y2="86" stroke="#000" stroke-width="2" /><line x1="940.00" y1="74" x2="940.00" y2="86" stroke="#000" stroke-width="2" /><circle cx="816.10" cy="80" r="6" fill="#8b0000" /><text x="826.10" y="72" font-size="12">1.037 +/- 0.594</text><text x="245" y="125" text-anchor="end" font-size="14">INTRASTATE_lag_avg</text><line x1="711.10" y1="120" x2="747.06" y2="120" stroke="#000" stroke-width="2" /><line x1="711.10" y1="114" x2="711.10" y2="126" stroke="#000" stroke-width="2" /><line x1="747.06" y1="114" x2="747.06" y2="126" stroke="#000" stroke-width="2" /><circle cx="729.08" cy="120" r="6" fill="#8b0000" /><text x="739.08" y="112" font-size="12">0.619 +/- 0.086</text><text x="245" y="165" text-anchor="end" font-size="14">INTERSTATE_lag_avg</text><line x1="610.27" y1="160" x2="817.63" y2="160" stroke="#000" stroke-width="2" /><line x1="610.27" y1="154" x2="610.27" y2="166" stroke="#000" stroke-width="2" /><line x1="817.63" y1="154" x2="817.63" y2="166" stroke="#000" stroke-width="2" /><circle cx="713.95" cy="160" r="6" fill="#8b0000" /><text x="723.95" y="152" font-size="12">0.547 +/- 0.497</text><text x="245" y="205" text-anchor="end" font-size="14">INTERSTATE__bin_lag_avg</text><line x1="597.84" y1="200" x2="804.38" y2="200" stroke="#000" stroke-width="2" /><line x1="597.84" y1="194" x2="597.84" y2="206" stroke="#000" stroke-width="2" /><line x1="804.38" y1="194" x2="804.38" y2="206" stroke="#000" stroke-width="2" /><circle cx="701.11" cy="200" r="6" fill="#8b0000" /><text x="711.11" y="192" font-size="12">0.485 +/- 0.495</text><text x="245" y="245" text-anchor="end" font-size="14">POISONING__bin_lag_avg</text><line x1="450.42" y1="240" x2="873.38" y2="240" stroke="#000" stroke-width="2" /><line x1="450.42" y1="234" x2="450.42" y2="246" stroke="#000" stroke-width="2" /><line x1="873.38" y1="234" x2="873.38" y2="246" stroke="#000" stroke-width="2" /><circle cx="661.90" cy="240" r="6" fill="#8b0000" /><text x="671.90" y="232" font-size="12">0.297 +/- 1.015</text><text x="245" y="285" text-anchor="end" font-size="14">TECHNOLOGICAL_lag_avg</text><line x1="637.05" y1="280" x2="643.54" y2="280" stroke="#000" stroke-width="2" /><line x1="637.05" y1="274" x2="637.05" y2="286" stroke="#000" stroke-width="2" /><line x1="643.54" y1="274" x2="643.54" y2="286" stroke="#000" stroke-width="2" /><circle cx="640.29" cy="280" r="6" fill="#8b0000" /><text x="650.29" y="272" font-size="12">0.193 +/- 0.016</text><text x="245" y="325" text-anchor="end" font-size="14">ECONOMIC_lag_avg</text><line x1="631.79" y1="320" x2="638.49" y2="320" stroke="#000" stroke-width="2" /><line x1="631.79" y1="314" x2="631.79" y2="326" stroke="#000" stroke-width="2" /><line x1="638.49" y1="314" x2="638.49" y2="326" stroke="#000" stroke-width="2" /><circle cx="635.14" cy="320" r="6" fill="#8b0000" /><text x="645.14" y="312" font-size="12">0.169 +/- 0.016</text><text x="245" y="365" text-anchor="end" font-size="14">CLIMATIC_lag_avg</text><line x1="612.31" y1="360" x2="614.80" y2="360" stroke="#000" stroke-width="2" /><line x1="612.31" y1="354" x2="612.31" y2="366" stroke="#000" stroke-width="2" /><line x1="614.80" y1="354" x2="614.80" y2="366" stroke="#000" stroke-width="2" /><circle cx="613.55" cy="360" r="6" fill="#8b0000" /><text x="623.55" y="352" font-size="12">0.065 +/- 0.006</text><text x="245" y="405" text-anchor="end" font-size="14">TERRORISM_lag_avg</text><line x1="600.09" y1="400" x2="600.23" y2="400" stroke="#000" stroke-width="2" /><line x1="600.09" y1="394" x2="600.09" y2="406" stroke="#000" stroke-width="2" /><line x1="600.23" y1="394" x2="600.23" y2="406" stroke="#000" stroke-width="2" /><circle cx="600.16" cy="400" r="6" fill="#8b0000" /><text x="610.16" y="392" font-size="12">0.001 +/- 0.000</text><text x="245" y="445" text-anchor="end" font-size="14">GEOPHYSICAL_lag_avg</text><line x1="573.52" y1="440" x2="598.25" y2="440" stroke="#000" stroke-width="2" /><line x1="573.52" y1="434" x2="573.52" y2="446" stroke="#000" stroke-width="2" /><line x1="598.25" y1="434" x2="598.25" y2="446" stroke="#000" stroke-width="2" /><circle cx="585.88" cy="440" r="6" fill="#8b0000" /><text x="595.88" y="432" font-size="12">-0.068 +/- 0.059</text><text x="245" y="485" text-anchor="end" font-size="14">GEOPHYSICAL__bin_lag_avg</text><line x1="562.20" y1="480" x2="602.47" y2="480" stroke="#000" stroke-width="2" /><line x1="562.20" y1="474" x2="562.20" y2="486" stroke="#000" stroke-width="2" /><line x1="602.47" y1="474" x2="602.47" y2="486" stroke="#000" stroke-width="2" /><circle cx="582.34" cy="480" r="6" fill="#8b0000" /><text x="592.34" y="472" font-size="12">-0.085 +/- 0.097</text><text x="245" y="525" text-anchor="end" font-size="14">ECOLOGICAL__bin_lag_avg</text><line x1="542.68" y1="520" x2="582.80" y2="520" stroke="#000" stroke-width="2" /><line x1="542.68" y1="514" x2="542.68" y2="526" stroke="#000" stroke-width="2" /><line x1="582.80" y1="514" x2="582.80" y2="526" stroke="#000" stroke-width="2" /><circle cx="562.74" cy="520" r="6" fill="#8b0000" /><text x="572.74" y="512" font-size="12">-0.179 +/- 0.096</text><text x="245" y="565" text-anchor="end" font-size="14">ECOLOGICAL_lag_avg</text><line x1="538.31" y1="560" x2="582.44" y2="560" stroke="#000" stroke-width="2" /><line x1="538.31" y1="554" x2="538.31" y2="566" stroke="#000" stroke-width="2" /><line x1="582.44" y1="554" x2="582.44" y2="566" stroke="#000" stroke-width="2" /><circle cx="560.37" cy="560" r="6" fill="#8b0000" /><text x="570.37" y="552" font-size="12">-0.190 +/- 0.106</text>
</svg>
