
<svg xmlns='http://www.w3.org/2000/svg' width='1000' height='500'>
    <style>
        text { font-family: Arial, sans-serif; }
    </style>
    <rect x='0' y='0' width='1000' height='500' fill='white' stroke='black' stroke-width='1'/>
    <line x1='600.00' y1='50' x2='600.00' y2='450' stroke='#666' stroke-width='1' stroke-dasharray='4 4' />
    <text x='500.0' y='30.0' text-anchor='middle' font-size='18'>Model-averaged fixed effects</text>
    <text x='500.0' y='470.0' text-anchor='middle' font-size='14'>Coefficient value</text>
    <text x="245" y="85" text-anchor="end" font-size="14">INTRASTATE_lag_avg</text><line x1="738.17" y1="80" x2="782.90" y2="80" stroke="#000" stroke-width="2" /><line x1="738.17" y1="74" x2="738.17" y2="86" stroke="#000" stroke-width="2" /><line x1="782.90" y1="74" x2="782.90" y2="86" stroke="#000" stroke-width="2" /><circle cx="760.54" cy="80" r="6" fill="#8b0000" /><text x="770.54" y="72" font-size="12">0.619 +/- 0.086</text><text x="245" y="125" text-anchor="end" font-size="14">INTERSTATE__bin_lag_avg</text><line x1="597.31" y1="120" x2="854.19" y2="120" stroke="#000" stroke-width="2" /><line x1="597.31" y1="114" x2="597.31" y2="126" stroke="#000" stroke-width="2" /><line x1="854.19" y1="114" x2="854.19" y2="126" stroke="#000" stroke-width="2" /><circle cx="725.75" cy="120" r="6" fill="#8b0000" /><text x="735.75" y="112" font-size="12">0.485 +/- 0.495</text><text x="245" y="165" text-anchor="end" font-size="14">POISONING__bin_lag_avg</text><line x1="413.96" y1="160" x2="940.00" y2="160" stroke="#000" stroke-width="2" /><line x1="413.96" y1="154" x2="413.96" y2="166" stroke="#000" stroke-width="2" /><line x1="940.00" y1="154" x2="940.00" y2="166" stroke="#000" stroke-width="2" /><circle cx="676.98" cy="160" r="6" fill="#8b0000" /><text x="686.98" y="152" font-size="12">0.297 +/- 1.015</text><text x="245" y="205" text-anchor="end" font-size="14">TECHNOLOGICAL_lag_avg</text><line x1="646.07" y1="200" x2="654.15" y2="200" stroke="#000" stroke-width="2" /><line x1="646.07" y1="194" x2="646.07" y2="206" stroke="#000" stroke-width="2" /><line x1="654.15" y1="194" x2="654.15" y2="206" stroke="#000" stroke-width="2" /><circle cx="650.11" cy="200" r="6" fill="#8b0000" /><text x="660.11" y="192" font-size="12">0.193 +/- 0.016</text><text x="245" y="245" text-anchor="end" font-size="14">ECONOMIC_lag_avg</text><line x1="639.54" y1="240" x2="647.87" y2="240" stroke="#000" stroke-width="2" /><line x1="639.54" y1="234" x2="639.54" y2="246" stroke="#000" stroke-width="2" /><line x1="647.87" y1="234" x2="647.87" y2="246" stroke="#000" stroke-width="2" /><circle cx="643.71" cy="240" r="6" fill="#8b0000" /><text x="653.71" y="232" font-size="12">0.169 +/- 0.016</text><text x="245" y="285" text-anchor="end" font-size="14">CLIMATIC_lag_avg</text><line x1="615.31" y1="280" x2="618.40" y2="280" stroke="#000" stroke-width="2" /><line x1="615.31" y1="274" x2="615.31" y2="286" stroke="#000" stroke-width="2" /><line x1="618.40" y1="274" x2="618.40" y2="286" stroke="#000" stroke-width="2" /><circle cx="616.86" cy="280" r="6" fill="#8b0000" /><text x="626.86" y="272" font-size="12">0.065 +/- 0.006</text><text x="245" y="325" text-anchor="end" font-size="14">TERRORISM_lag_avg</text><line x1="600.11" y1="320" x2="600.29" y2="320" stroke="#000" stroke-width="2" /><line x1="600.11" y1="314" x2="600.11" y2="326" stroke="#000" stroke-width="2" /><line x1="600.29" y1="314" x2="600.29" y2="326" stroke="#000" stroke-width="2" /><circle cx="600.20" cy="320" r="6" fill="#8b0000" /><text x="610.20" y="312" font-size="12">0.001 +/- 0.000</text><text x="245" y="365" text-anchor="end" font-size="14">GEOPHYSICAL_lag_avg</text><line x1="567.07" y1="360" x2="597.82" y2="360" stroke="#000" stroke-width="2" /><line x1="567.07" y1="354" x2="567.07" y2="366" stroke="#000" stroke-width="2" /><line x1="597.82" y1="354" x2="597.82" y2="366" stroke="#000" stroke-width="2" /><circle cx="582.44" cy="360" r="6" fill="#8b0000" /><text x="592.44" y="352" font-size="12">-0.068 +/- 0.059</text><text x="245" y="405" text-anchor="end" font-size="14">ECOLOGICAL__bin_lag_avg</text><line x1="528.71" y1="400" x2="578.60" y2="400" stroke="#000" stroke-width="2" /><line x1="528.71" y1="394" x2="528.71" y2="406" stroke="#000" stroke-width="2" /><line x1="578.60" y1="394" x2="578.60" y2="406" stroke="#000" stroke-width="2" /><circle cx="553.66" cy="400" r="6" fill="#8b0000" /><text x="563.66" y="392" font-size="12">-0.179 +/- 0.096</text>
</svg>
