
<svg xmlns='http://www.w3.org/2000/svg' width='900' height='440'>
    <style>
        text { font-family: Arial, sans-serif; }
    </style>
    <rect x='0' y='0' width='900' height='440' fill='white' stroke='black' stroke-width='1'/>
    <text x='450.0' y='30.0' text-anchor='middle' font-size='18'>Predictor importance (summed weights)</text>
    <text x='450.0' y='410.0' text-anchor='middle' font-size='14'>Summed Akaike weight</text>
    <text x="210" y="85" text-anchor="end" font-size="14">scale(Year)</text><rect x="220" y="70" width="640.00" height="20" fill="#4682b4" /><text x="865.0" y="85" font-size="12">1.000</text><text x="210" y="125" text-anchor="end" font-size="14">Outbreak_lag</text><rect x="220" y="110" width="640.00" height="20" fill="#4682b4" /><text x="865.0" y="125" font-size="12">1.000</text><text x="210" y="165" text-anchor="end" font-size="14">TECHNOLOGICAL_lag_avg</text><rect x="220" y="150" width="463.22" height="20" fill="#4682b4" /><text x="688.216837836374" y="165" font-size="12">0.724</text><text x="210" y="205" text-anchor="end" font-size="14">CLIMATIC_lag_avg</text><rect x="220" y="190" width="224.59" height="20" fill="#4682b4" /><text x="449.59135466011963" y="205" font-size="12">0.351</text><text x="210" y="245" text-anchor="end" font-size="14">CONFLICTS_lag_avg</text><rect x="220" y="230" width="174.30" height="20" fill="#4682b4" /><text x="399.29941997849687" y="245" font-size="12">0.272</text><text x="210" y="285" text-anchor="end" font-size="14">ECONOMIC_lag_avg</text><rect x="220" y="270" width="169.59" height="20" fill="#4682b4" /><text x="394.5901437801046" y="285" font-size="12">0.265</text><text x="210" y="325" text-anchor="end" font-size="14">ECOLOGICAL_lag_avg</text><rect x="220" y="310" width="72.94" height="20" fill="#4682b4" /><text x="297.93820758949096" y="325" font-size="12">0.114</text><text x="210" y="365" text-anchor="end" font-size="14">GEOPHYSICAL_lag_avg</text><rect x="220" y="350" width="50.08" height="20" fill="#4682b4" /><text x="275.0800850041879" y="365" font-size="12">0.078</text>
</svg>
