
<svg xmlns='http://www.w3.org/2000/svg' width='900' height='920'>
    <style>
        text { font-family: Arial, sans-serif; }
    </style>
    <rect x='0' y='0' width='900' height='920' fill='white' stroke='black' stroke-width='1'/>
    <text x='450.0' y='30.0' text-anchor='middle' font-size='18'>Top models by AICc weight</text>
    <text x='450.0' y='890.0' text-anchor='middle' font-size='14'>Akaike weight</text>
    <text x="210" y="85" text-anchor="end" font-size="14">680965ae2fae6dc76e43c9b869245269</text><rect x="220" y="70" width="640.00" height="20" fill="#4682b4" /><text x="865.0" y="85" font-size="12">0.219</text><text x="210" y="125" text-anchor="end" font-size="14">3ef304d37cc023b42fac95ec52325c94</text><rect x="220" y="110" width="536.33" height="20" fill="#4682b4" /><text x="761.3316309998129" y="125" font-size="12">0.184</text><text x="210" y="165" text-anchor="end" font-size="14">9aa9c6ed5cf6429243d4fbcfcc8bda7c</text><rect x="220" y="150" width="284.63" height="20" fill="#4682b4" /><text x="509.6294343962649" y="165" font-size="12">0.097</text><text x="210" y="205" text-anchor="end" font-size="14">c96177b7e525b6d457eab3cd4fd1d6f6</text><rect x="220" y="190" width="226.66" height="20" fill="#4682b4" /><text x="451.6642934403111" y="205" font-size="12">0.078</text><text x="210" y="245" text-anchor="end" font-size="14">a698233f2aec1e81e5f648253fbc1795</text><rect x="220" y="230" width="225.07" height="20" fill="#4682b4" /><text x="450.0694853293536" y="245" font-size="12">0.077</text><text x="210" y="285" text-anchor="end" font-size="14">ef6526b6a0bc86541208511d66e68e2a</text><rect x="220" y="270" width="201.38" height="20" fill="#4682b4" /><text x="426.3781142891046" y="285" font-size="12">0.069</text><text x="210" y="325" text-anchor="end" font-size="14">46411e6a104ae414efc845c149a251b0</text><rect x="220" y="310" width="33.75" height="20" fill="#4682b4" /><text x="258.7538507879568" y="325" font-size="12">0.012</text><text x="210" y="365" text-anchor="end" font-size="14">17d46158795fd6b2665525336149b707</text><rect x="220" y="350" width="32.75" height="20" fill="#4682b4" /><text x="257.7519841541502" y="365" font-size="12">0.011</text><text x="210" y="405" text-anchor="end" font-size="14">17d46158795fd6b2665525336149b707</text><rect x="220" y="390" width="32.75" height="20" fill="#4682b4" /><text x="257.7519841541502" y="405" font-size="12">0.011</text><text x="210" y="445" text-anchor="end" font-size="14">17d46158795fd6b2665525336149b707</text><rect x="220" y="430" width="32.75" height="20" fill="#4682b4" /><text x="257.7519841541502" y="445" font-size="12">0.011</text><text x="210" y="485" text-anchor="end" font-size="14">17d46158795fd6b2665525336149b707</text><rect x="220" y="470" width="32.75" height="20" fill="#4682b4" /><text x="257.7519841541502" y="485" font-size="12">0.011</text><text x="210" y="525" text-anchor="end" font-size="14">bde3e0314807bc7cc073f76ff60091bc</text><rect x="220" y="510" width="31.55" height="20" fill="#4682b4" /><text x="256.5485758359918" y="525" font-size="12">0.011</text><text x="210" y="565" text-anchor="end" font-size="14">bde3e0314807bc7cc073f76ff60091bc</text><rect x="220" y="550" width="31.55" height="20" fill="#4682b4" /><text x="256.5485758359918" y="565" font-size="12">0.011</text><text x="210" y="605" text-anchor="end" font-size="14">bde3e0314807bc7cc073f76ff60091bc</text><rect x="220" y="590" width="31.55" height="20" fill="#4682b4" /><text x="256.5485758359918" y="605" font-size="12">0.011</text><text x="210" y="645" text-anchor="end" font-size="14">bde3e0314807bc7cc073f76ff60091bc</text><rect x="220" y="630" width="31.55" height="20" fill="#4682b4" /><text x="256.5485758359918" y="645" font-size="12">0.011</text><text x="210" y="685" text-anchor="end" font-size="14">bde3e0314807bc7cc073f76ff60091bc</text><rect x="220" y="670" width="31.55" height="20" fill="#4682b4" /><text x="256.5485758359918" y="685" font-size="12">0.011</text><text x="210" y="725" text-anchor="end" font-size="14">bde3e0314807bc7cc073f76ff60091bc</text><rect x="220" y="710" width="31.55" height="20" fill="#4682b4" /><text x="256.5485758359918" y="725" font-size="12">0.011</text><text x="210" y="765" text-anchor="end" font-size="14">bde3e0314807bc7cc073f76ff60091bc</text><rect x="220" y="750" width="31.55" height="20" fill="#4682b4" /><text x="256.5485758359918" y="765" font-size="12">0.011</text><text x="210" y="805" text-anchor="end" font-size="14">bde3e0314807bc7cc073f76ff60091bc</text><rect x="220" y="790" width="31.55" height="20" fill="#4682b4" /><text x="256.5485758359918" y="805" font-size="12">0.011</text><text x="210" y="845" text-anchor="end" font-size="14">bde3e0314807bc7cc073f76ff60091bc</text><rect x="220" y="830" width="31.55" height="20" fill="#4682b4" /><text x="256.5485758359918" y="845" font-size="12">0.011</text>
</svg>
