
<svg xmlns='http://www.w3.org/2000/svg' width='1000' height='500'>
    <style>
        text { font-family: Arial, sans-serif; }
    </style>
    <rect x='0' y='0' width='1000' height='500' fill='white' stroke='black' stroke-width='1'/>
    <line x1='600.00' y1='50' x2='600.00' y2='450' stroke='#666' stroke-width='1' stroke-dasharray='4 4' />
    <text x='500.0' y='30.0' text-anchor='middle' font-size='18'>Model-averaged fixed effects</text>
    <text x='500.0' y='470.0' text-anchor='middle' font-size='14'>Coefficient value</text>
    <text x="245" y="85" text-anchor="end" font-size="14">Outbreak_lag</text><line x1="749.23" y1="80" x2="755.93" y2="80" stroke="#000" stroke-width="2" /><line x1="749.23" y1="74" x2="749.23" y2="86" stroke="#000" stroke-width="2" /><line x1="755.93" y1="74" x2="755.93" y2="86" stroke="#000" stroke-width="2" /><circle cx="752.58" cy="80" r="6" fill="#8b0000" /><text x="762.58" y="72" font-size="12">0.807 ± 0.018</text><text x="245" y="125" text-anchor="end" font-size="14">ECONOMIC_lag_avg</text><line x1="649.52" y1="120" x2="652.94" y2="120" stroke="#000" stroke-width="2" /><line x1="649.52" y1="114" x2="649.52" y2="126" stroke="#000" stroke-width="2" /><line x1="652.94" y1="114" x2="652.94" y2="126" stroke="#000" stroke-width="2" /><circle cx="651.23" cy="120" r="6" fill="#8b0000" /><text x="661.23" y="112" font-size="12">0.271 ± 0.009</text><text x="245" y="165" text-anchor="end" font-size="14">TECHNOLOGICAL_lag_avg</text><line x1="636.69" y1="160" x2="642.28" y2="160" stroke="#000" stroke-width="2" /><line x1="636.69" y1="154" x2="636.69" y2="166" stroke="#000" stroke-width="2" /><line x1="642.28" y1="154" x2="642.28" y2="166" stroke="#000" stroke-width="2" /><circle cx="639.49" cy="160" r="6" fill="#8b0000" /><text x="649.49" y="152" font-size="12">0.209 ± 0.015</text><text x="245" y="205" text-anchor="end" font-size="14">CLIMATIC_lag_avg</text><line x1="606.67" y1="200" x2="615.01" y2="200" stroke="#000" stroke-width="2" /><line x1="606.67" y1="194" x2="606.67" y2="206" stroke="#000" stroke-width="2" /><line x1="615.01" y1="194" x2="615.01" y2="206" stroke="#000" stroke-width="2" /><circle cx="610.84" cy="200" r="6" fill="#8b0000" /><text x="620.84" y="192" font-size="12">0.057 ± 0.022</text><text x="245" y="245" text-anchor="end" font-size="14">scale(Year)</text><line x1="602.03" y1="240" x2="614.42" y2="240" stroke="#000" stroke-width="2" /><line x1="602.03" y1="234" x2="602.03" y2="246" stroke="#000" stroke-width="2" /><line x1="614.42" y1="234" x2="614.42" y2="246" stroke="#000" stroke-width="2" /><circle cx="608.22" cy="240" r="6" fill="#8b0000" /><text x="618.22" y="232" font-size="12">0.043 ± 0.033</text><text x="245" y="285" text-anchor="end" font-size="14">CONFLICTS_lag_avg</text><line x1="600.24" y1="280" x2="600.36" y2="280" stroke="#000" stroke-width="2" /><line x1="600.24" y1="274" x2="600.24" y2="286" stroke="#000" stroke-width="2" /><line x1="600.36" y1="274" x2="600.36" y2="286" stroke="#000" stroke-width="2" /><circle cx="600.30" cy="280" r="6" fill="#8b0000" /><text x="610.30" y="272" font-size="12">0.002 ± 0.000</text><text x="245" y="325" text-anchor="end" font-size="14">GEOPHYSICAL_lag_avg</text><line x1="582.35" y1="320" x2="599.77" y2="320" stroke="#000" stroke-width="2" /><line x1="582.35" y1="314" x2="582.35" y2="326" stroke="#000" stroke-width="2" /><line x1="599.77" y1="314" x2="599.77" y2="326" stroke="#000" stroke-width="2" /><circle cx="591.06" cy="320" r="6" fill="#8b0000" /><text x="601.06" y="312" font-size="12">-0.047 ± 0.046</text><text x="245" y="365" text-anchor="end" font-size="14">ECOLOGICAL_lag_avg</text><line x1="508.05" y1="360" x2="540.78" y2="360" stroke="#000" stroke-width="2" /><line x1="508.05" y1="354" x2="508.05" y2="366" stroke="#000" stroke-width="2" /><line x1="540.78" y1="354" x2="540.78" y2="366" stroke="#000" stroke-width="2" /><circle cx="524.42" cy="360" r="6" fill="#8b0000" /><text x="534.42" y="352" font-size="12">-0.400 ± 0.087</text><text x="245" y="405" text-anchor="end" font-size="14">(Intercept)</text><line x1="260.00" y1="400" x2="299.85" y2="400" stroke="#000" stroke-width="2" /><line x1="260.00" y1="394" x2="260.00" y2="406" stroke="#000" stroke-width="2" /><line x1="299.85" y1="394" x2="299.85" y2="406" stroke="#000" stroke-width="2" /><circle cx="279.93" cy="400" r="6" fill="#8b0000" /><text x="289.93" y="392" font-size="12">-1.692 ± 0.105</text>
</svg>
