
<svg xmlns='http://www.w3.org/2000/svg' width='900' height='480'>
    <style>
        text { font-family: Arial, sans-serif; }
    </style>
    <rect x='0' y='0' width='900' height='480' fill='white' stroke='black' stroke-width='1'/>
    <text x='450.0' y='30.0' text-anchor='middle' font-size='18'>Predictor importance (summed weights)</text>
    <text x='450.0' y='450.0' text-anchor='middle' font-size='14'>Summed Akaike weight</text>
    <text x="210" y="85" text-anchor="end" font-size="14">Geophysical</text><rect x="220" y="70" width="640.00" height="20" fill="#4682b4" /><text x="865.0" y="85" font-size="12">0.730</text><text x="210" y="125" text-anchor="end" font-size="14">Climatic</text><rect x="220" y="110" width="224.32" height="20" fill="#4682b4" /><text x="449.316986306559" y="125" font-size="12">0.256</text><text x="210" y="165" text-anchor="end" font-size="14">Ecological</text><rect x="220" y="150" width="65.21" height="20" fill="#4682b4" /><text x="290.21088546879093" y="165" font-size="12">0.074</text><text x="210" y="205" text-anchor="end" font-size="14">Economic</text><rect x="220" y="190" width="49.35" height="20" fill="#4682b4" /><text x="274.354791394953" y="205" font-size="12">0.056</text><text x="210" y="245" text-anchor="end" font-size="14">Intrastate</text><rect x="220" y="230" width="25.81" height="20" fill="#4682b4" /><text x="250.8079092491238" y="245" font-size="12">0.029</text><text x="210" y="285" text-anchor="end" font-size="14">Interstate</text><rect x="220" y="270" width="9.36" height="20" fill="#4682b4" /><text x="234.364255124095" y="285" font-size="12">0.011</text><text x="210" y="325" text-anchor="end" font-size="14">Poisoning</text><rect x="220" y="310" width="2.29" height="20" fill="#4682b4" /><text x="227.28886732174357" y="325" font-size="12">0.003</text><text x="210" y="365" text-anchor="end" font-size="14">Technological</text><rect x="220" y="350" width="2.12" height="20" fill="#4682b4" /><text x="227.12376428629605" y="365" font-size="12">0.002</text><text x="210" y="405" text-anchor="end" font-size="14">Terrorism</text><rect x="220" y="390" width="0.74" height="20" fill="#4682b4" /><text x="225.73921183771844" y="405" font-size="12">0.001</text>
</svg>
