
<svg xmlns='http://www.w3.org/2000/svg' width='900' height='640'>
    <style>
        text { font-family: Arial, sans-serif; }
    </style>
    <rect x='0' y='0' width='900' height='640' fill='white' stroke='black' stroke-width='1'/>
    <text x='450.0' y='30.0' text-anchor='middle' font-size='18'>Predictor importance (summed weights)</text>
    <text x='450.0' y='610.0' text-anchor='middle' font-size='14'>Summed Akaike weight</text>
    <text x="210" y="85" text-anchor="end" font-size="14">GEOPHYSICAL</text><rect x="220" y="70" width="640.00" height="20" fill="#4682b4" /><text x="865.0" y="85" font-size="12">0.730</text><text x="210" y="125" text-anchor="end" font-size="14">GEOPHYSICAL__bin</text><rect x="220" y="110" width="625.70" height="20" fill="#4682b4" /><text x="850.6991385862597" y="125" font-size="12">0.714</text><text x="210" y="165" text-anchor="end" font-size="14">CLIMATIC</text><rect x="220" y="150" width="224.32" height="20" fill="#4682b4" /><text x="449.316986306559" y="165" font-size="12">0.256</text><text x="210" y="205" text-anchor="end" font-size="14">ECOLOGICAL</text><rect x="220" y="190" width="88.20" height="20" fill="#4682b4" /><text x="313.2008957724872" y="205" font-size="12">0.101</text><text x="210" y="245" text-anchor="end" font-size="14">ECOLOGICAL__bin</text><rect x="220" y="230" width="65.21" height="20" fill="#4682b4" /><text x="290.21088546879093" y="245" font-size="12">0.074</text><text x="210" y="285" text-anchor="end" font-size="14">ECONOMIC</text><rect x="220" y="270" width="49.35" height="20" fill="#4682b4" /><text x="274.354791394953" y="285" font-size="12">0.056</text><text x="210" y="325" text-anchor="end" font-size="14">INTRASTATE</text><rect x="220" y="310" width="25.81" height="20" fill="#4682b4" /><text x="250.8079092491238" y="325" font-size="12">0.029</text><text x="210" y="365" text-anchor="end" font-size="14">INTERSTATE</text><rect x="220" y="350" width="14.77" height="20" fill="#4682b4" /><text x="239.7691981690457" y="365" font-size="12">0.017</text><text x="210" y="405" text-anchor="end" font-size="14">INTERSTATE__bin</text><rect x="220" y="390" width="9.36" height="20" fill="#4682b4" /><text x="234.364255124095" y="405" font-size="12">0.011</text><text x="210" y="445" text-anchor="end" font-size="14">POISONING</text><rect x="220" y="430" width="4.14" height="20" fill="#4682b4" /><text x="229.14107960164478" y="445" font-size="12">0.005</text><text x="210" y="485" text-anchor="end" font-size="14">POISONING__bin</text><rect x="220" y="470" width="2.29" height="20" fill="#4682b4" /><text x="227.28886732174357" y="485" font-size="12">0.003</text><text x="210" y="525" text-anchor="end" font-size="14">TECHNOLOGICAL</text><rect x="220" y="510" width="2.12" height="20" fill="#4682b4" /><text x="227.12376428629605" y="525" font-size="12">0.002</text><text x="210" y="565" text-anchor="end" font-size="14">TERRORISM</text><rect x="220" y="550" width="0.74" height="20" fill="#4682b4" /><text x="225.73921183771844" y="565" font-size="12">0.001</text>
</svg>
