
<svg xmlns='http://www.w3.org/2000/svg' width='1000' height='660'>
    <style>
        text { font-family: Arial, sans-serif; }
    </style>
    <rect x='0' y='0' width='1000' height='660' fill='white' stroke='black' stroke-width='1'/>
    <line x1='600.00' y1='50' x2='600.00' y2='610' stroke='#666' stroke-width='1' stroke-dasharray='4 4' />
    <text x='500.0' y='30.0' text-anchor='middle' font-size='18'>Model-averaged fixed effects</text>
    <text x='500.0' y='630.0' text-anchor='middle' font-size='14'>Coefficient value</text>
    <text x="245" y="85" text-anchor="end" font-size="14">GEOPHYSICAL</text><line x1="808.09" y1="80" x2="938.30" y2="80" stroke="#000" stroke-width="2" /><line x1="808.09" y1="74" x2="808.09" y2="86" stroke="#000" stroke-width="2" /><line x1="938.30" y1="74" x2="938.30" y2="86" stroke="#000" stroke-width="2" /><circle cx="873.20" cy="80" r="6" fill="#8b0000" /><text x="883.20" y="72" font-size="12">18.600 +/- 4.432</text><text x="245" y="125" text-anchor="end" font-size="14">POISONING__bin</text><line x1="616.27" y1="120" x2="617.22" y2="120" stroke="#000" stroke-width="2" /><line x1="616.27" y1="114" x2="616.27" y2="126" stroke="#000" stroke-width="2" /><line x1="617.22" y1="114" x2="617.22" y2="126" stroke="#000" stroke-width="2" /><circle cx="616.74" cy="120" r="6" fill="#8b0000" /><text x="626.74" y="112" font-size="12">1.140 +/- 0.032</text><text x="245" y="165" text-anchor="end" font-size="14">POISONING</text><line x1="616.28" y1="160" x2="617.18" y2="160" stroke="#000" stroke-width="2" /><line x1="616.28" y1="154" x2="616.28" y2="166" stroke="#000" stroke-width="2" /><line x1="617.18" y1="154" x2="617.18" y2="166" stroke="#000" stroke-width="2" /><circle cx="616.73" cy="160" r="6" fill="#8b0000" /><text x="626.73" y="152" font-size="12">1.139 +/- 0.031</text><text x="245" y="205" text-anchor="end" font-size="14">INTRASTATE</text><line x1="604.13" y1="200" x2="604.29" y2="200" stroke="#000" stroke-width="2" /><line x1="604.13" y1="194" x2="604.13" y2="206" stroke="#000" stroke-width="2" /><line x1="604.29" y1="194" x2="604.29" y2="206" stroke="#000" stroke-width="2" /><circle cx="604.21" cy="200" r="6" fill="#8b0000" /><text x="614.21" y="192" font-size="12">0.287 +/- 0.005</text><text x="245" y="245" text-anchor="end" font-size="14">INTERSTATE</text><line x1="602.66" y1="240" x2="603.54" y2="240" stroke="#000" stroke-width="2" /><line x1="602.66" y1="234" x2="602.66" y2="246" stroke="#000" stroke-width="2" /><line x1="603.54" y1="234" x2="603.54" y2="246" stroke="#000" stroke-width="2" /><circle cx="603.10" cy="240" r="6" fill="#8b0000" /><text x="613.10" y="232" font-size="12">0.211 +/- 0.030</text><text x="245" y="285" text-anchor="end" font-size="14">INTERSTATE__bin</text><line x1="602.62" y1="280" x2="603.48" y2="280" stroke="#000" stroke-width="2" /><line x1="602.62" y1="274" x2="602.62" y2="286" stroke="#000" stroke-width="2" /><line x1="603.48" y1="274" x2="603.48" y2="286" stroke="#000" stroke-width="2" /><circle cx="603.05" cy="280" r="6" fill="#8b0000" /><text x="613.05" y="272" font-size="12">0.208 +/- 0.029</text><text x="245" y="325" text-anchor="end" font-size="14">CLIMATIC</text><line x1="601.90" y1="320" x2="601.93" y2="320" stroke="#000" stroke-width="2" /><line x1="601.90" y1="314" x2="601.90" y2="326" stroke="#000" stroke-width="2" /><line x1="601.93" y1="314" x2="601.93" y2="326" stroke="#000" stroke-width="2" /><circle cx="601.92" cy="320" r="6" fill="#8b0000" /><text x="611.92" y="312" font-size="12">0.131 +/- 0.001</text><text x="245" y="365" text-anchor="end" font-size="14">ECOLOGICAL</text><line x1="600.32" y1="360" x2="601.60" y2="360" stroke="#000" stroke-width="2" /><line x1="600.32" y1="354" x2="600.32" y2="366" stroke="#000" stroke-width="2" /><line x1="601.60" y1="354" x2="601.60" y2="366" stroke="#000" stroke-width="2" /><circle cx="600.96" cy="360" r="6" fill="#8b0000" /><text x="610.96" y="352" font-size="12">0.065 +/- 0.044</text><text x="245" y="405" text-anchor="end" font-size="14">ECONOMIC</text><line x1="600.65" y1="400" x2="600.85" y2="400" stroke="#000" stroke-width="2" /><line x1="600.65" y1="394" x2="600.65" y2="406" stroke="#000" stroke-width="2" /><line x1="600.85" y1="394" x2="600.85" y2="406" stroke="#000" stroke-width="2" /><circle cx="600.75" cy="400" r="6" fill="#8b0000" /><text x="610.75" y="392" font-size="12">0.051 +/- 0.007</text><text x="245" y="445" text-anchor="end" font-size="14">TECHNOLOGICAL</text><line x1="600.51" y1="440" x2="600.66" y2="440" stroke="#000" stroke-width="2" /><line x1="600.51" y1="434" x2="600.51" y2="446" stroke="#000" stroke-width="2" /><line x1="600.66" y1="434" x2="600.66" y2="446" stroke="#000" stroke-width="2" /><circle cx="600.59" cy="440" r="6" fill="#8b0000" /><text x="610.59" y="432" font-size="12">0.040 +/- 0.005</text><text x="245" y="485" text-anchor="end" font-size="14">ECOLOGICAL__bin</text><line x1="599.58" y1="480" x2="601.42" y2="480" stroke="#000" stroke-width="2" /><line x1="599.58" y1="474" x2="599.58" y2="486" stroke="#000" stroke-width="2" /><line x1="601.42" y1="474" x2="601.42" y2="486" stroke="#000" stroke-width="2" /><circle cx="600.50" cy="480" r="6" fill="#8b0000" /><text x="610.50" y="472" font-size="12">0.034 +/- 0.063</text><text x="245" y="525" text-anchor="end" font-size="14">TERRORISM</text><line x1="599.97" y1="520" x2="599.98" y2="520" stroke="#000" stroke-width="2" /><line x1="599.97" y1="514" x2="599.97" y2="526" stroke="#000" stroke-width="2" /><line x1="599.98" y1="514" x2="599.98" y2="526" stroke="#000" stroke-width="2" /><circle cx="599.97" cy="520" r="6" fill="#8b0000" /><text x="609.97" y="512" font-size="12">-0.002 +/- 0.000</text><text x="245" y="565" text-anchor="end" font-size="14">GEOPHYSICAL__bin</text><line x1="260.00" y1="560" x2="365.55" y2="560" stroke="#000" stroke-width="2" /><line x1="260.00" y1="554" x2="260.00" y2="566" stroke="#000" stroke-width="2" /><line x1="365.55" y1="554" x2="365.55" y2="566" stroke="#000" stroke-width="2" /><circle cx="312.77" cy="560" r="6" fill="#8b0000" /><text x="322.77" y="552" font-size="12">-19.555 +/- 3.593</text>
</svg>
