
<svg xmlns='http://www.w3.org/2000/svg' width='1000' height='500'>
    <style>
        text { font-family: Arial, sans-serif; }
    </style>
    <rect x='0' y='0' width='1000' height='500' fill='white' stroke='black' stroke-width='1'/>
    <line x1='600.00' y1='50' x2='600.00' y2='450' stroke='#666' stroke-width='1' stroke-dasharray='4 4' />
    <text x='500.0' y='30.0' text-anchor='middle' font-size='18'>Model-averaged fixed effects</text>
    <text x='500.0' y='470.0' text-anchor='middle' font-size='14'>Coefficient value</text>
    <text x="245" y="85" text-anchor="end" font-size="14">GEOPHYSICAL</text><line x1="809.14" y1="80" x2="940.00" y2="80" stroke="#000" stroke-width="2" /><line x1="809.14" y1="74" x2="809.14" y2="86" stroke="#000" stroke-width="2" /><line x1="940.00" y1="74" x2="940.00" y2="86" stroke="#000" stroke-width="2" /><circle cx="874.57" cy="80" r="6" fill="#8b0000" /><text x="884.57" y="72" font-size="12">18.600 +/- 4.432</text><text x="245" y="125" text-anchor="end" font-size="14">POISONING__bin</text><line x1="616.35" y1="120" x2="617.31" y2="120" stroke="#000" stroke-width="2" /><line x1="616.35" y1="114" x2="616.35" y2="126" stroke="#000" stroke-width="2" /><line x1="617.31" y1="114" x2="617.31" y2="126" stroke="#000" stroke-width="2" /><circle cx="616.83" cy="120" r="6" fill="#8b0000" /><text x="626.83" y="112" font-size="12">1.140 +/- 0.032</text><text x="245" y="165" text-anchor="end" font-size="14">INTRASTATE</text><line x1="604.15" y1="160" x2="604.31" y2="160" stroke="#000" stroke-width="2" /><line x1="604.15" y1="154" x2="604.15" y2="166" stroke="#000" stroke-width="2" /><line x1="604.31" y1="154" x2="604.31" y2="166" stroke="#000" stroke-width="2" /><circle cx="604.23" cy="160" r="6" fill="#8b0000" /><text x="614.23" y="152" font-size="12">0.287 +/- 0.005</text><text x="245" y="205" text-anchor="end" font-size="14">INTERSTATE__bin</text><line x1="602.64" y1="200" x2="603.50" y2="200" stroke="#000" stroke-width="2" /><line x1="602.64" y1="194" x2="602.64" y2="206" stroke="#000" stroke-width="2" /><line x1="603.50" y1="194" x2="603.50" y2="206" stroke="#000" stroke-width="2" /><circle cx="603.07" cy="200" r="6" fill="#8b0000" /><text x="613.07" y="192" font-size="12">0.208 +/- 0.029</text><text x="245" y="245" text-anchor="end" font-size="14">CLIMATIC</text><line x1="601.91" y1="240" x2="601.94" y2="240" stroke="#000" stroke-width="2" /><line x1="601.91" y1="234" x2="601.91" y2="246" stroke="#000" stroke-width="2" /><line x1="601.94" y1="234" x2="601.94" y2="246" stroke="#000" stroke-width="2" /><circle cx="601.93" cy="240" r="6" fill="#8b0000" /><text x="611.93" y="232" font-size="12">0.131 +/- 0.001</text><text x="245" y="285" text-anchor="end" font-size="14">ECONOMIC</text><line x1="600.65" y1="280" x2="600.85" y2="280" stroke="#000" stroke-width="2" /><line x1="600.65" y1="274" x2="600.65" y2="286" stroke="#000" stroke-width="2" /><line x1="600.85" y1="274" x2="600.85" y2="286" stroke="#000" stroke-width="2" /><circle cx="600.75" cy="280" r="6" fill="#8b0000" /><text x="610.75" y="272" font-size="12">0.051 +/- 0.007</text><text x="245" y="325" text-anchor="end" font-size="14">TECHNOLOGICAL</text><line x1="600.51" y1="320" x2="600.67" y2="320" stroke="#000" stroke-width="2" /><line x1="600.51" y1="314" x2="600.51" y2="326" stroke="#000" stroke-width="2" /><line x1="600.67" y1="314" x2="600.67" y2="326" stroke="#000" stroke-width="2" /><circle cx="600.59" cy="320" r="6" fill="#8b0000" /><text x="610.59" y="312" font-size="12">0.040 +/- 0.005</text><text x="245" y="365" text-anchor="end" font-size="14">ECOLOGICAL__bin</text><line x1="599.57" y1="360" x2="601.43" y2="360" stroke="#000" stroke-width="2" /><line x1="599.57" y1="354" x2="599.57" y2="366" stroke="#000" stroke-width="2" /><line x1="601.43" y1="354" x2="601.43" y2="366" stroke="#000" stroke-width="2" /><circle cx="600.50" cy="360" r="6" fill="#8b0000" /><text x="610.50" y="352" font-size="12">0.034 +/- 0.063</text><text x="245" y="405" text-anchor="end" font-size="14">TERRORISM</text><line x1="599.97" y1="400" x2="599.98" y2="400" stroke="#000" stroke-width="2" /><line x1="599.97" y1="394" x2="599.97" y2="406" stroke="#000" stroke-width="2" /><line x1="599.98" y1="394" x2="599.98" y2="406" stroke="#000" stroke-width="2" /><circle cx="599.97" cy="400" r="6" fill="#8b0000" /><text x="609.97" y="392" font-size="12">-0.002 +/- 0.000</text>
</svg>
